<?xml version="1.0" encoding="utf-8"?>
<!-- Generator: Adobe Illustrator 16.2.0, SVG Export Plug-In . SVG Version: 6.00 Build 0)  -->
<!DOCTYPE svg PUBLIC "-//W3C//DTD SVG 1.1//EN" "http://www.w3.org/Graphics/SVG/1.1/DTD/svg11.dtd">
<svg version="1.1" xmlns="http://www.w3.org/2000/svg" xmlns:xlink="http://www.w3.org/1999/xlink" x="0px" y="0px" width="138px"
	 height="123px" viewBox="0 0 138 123" enable-background="new 0 0 138 123" xml:space="preserve">
<g id="fon">
	
		<path fill-rule="evenodd" clip-rule="evenodd" fill="#FFFFFF" stroke="#919191" stroke-width="2.0001" stroke-miterlimit="22.9256" d="
		M9.249,1h119.502C133.288,1,137,4.712,137,9.249v104.778c0,4.537-3.712,8.249-8.249,8.249H9.249c-4.537,0-8.249-3.712-8.249-8.249
		V9.249C1,4.712,4.712,1,9.249,1z"/>
</g>
<g id="text">
	<path d="M18.111,99.215c0.003,0.15,0.039,0.283,0.11,0.402c0.073,0.122,0.173,0.216,0.301,0.286
		c0.127,0.074,0.274,0.107,0.438,0.11v9.707c0.003,0.153,0.043,0.292,0.119,0.417c0.076,0.121,0.182,0.218,0.312,0.289
		c0.131,0.07,0.275,0.107,0.437,0.11c0.189-0.003,0.354-0.046,0.502-0.128c0.145-0.085,0.257-0.195,0.34-0.334
		c0.085-0.139,0.124-0.289,0.127-0.456v-4.862h0.595l4.199,5.287c0.085,0.11,0.188,0.192,0.304,0.244
		c0.119,0.054,0.249,0.079,0.394,0.079h0.851c0.161-0.003,0.316-0.043,0.461-0.122c0.147-0.079,0.27-0.188,0.363-0.323
		c0.093-0.139,0.142-0.295,0.145-0.473c-0.003-0.15-0.04-0.283-0.116-0.402c-0.074-0.122-0.176-0.216-0.307-0.289
		c-0.13-0.071-0.277-0.104-0.444-0.107h-0.408l-3.791-4.761l3.859-4.368c0.076-0.086,0.133-0.179,0.167-0.278
		c0.037-0.097,0.054-0.198,0.054-0.3c-0.003-0.165-0.045-0.31-0.127-0.431c-0.083-0.122-0.188-0.216-0.318-0.283
		c-0.133-0.068-0.271-0.103-0.422-0.103c-0.139,0-0.271,0.028-0.399,0.088c-0.13,0.057-0.246,0.142-0.349,0.252l-4.012,4.573h-0.697
		v-3.944c-0.005-0.24-0.085-0.434-0.243-0.578c-0.156-0.144-0.363-0.218-0.624-0.221h-0.85c-0.161,0-0.317,0.043-0.462,0.122
		c-0.147,0.076-0.267,0.187-0.362,0.323C18.162,98.881,18.114,99.037,18.111,99.215z"/>
	<path d="M31.133,104.264c0.003-0.629,0.082-1.21,0.238-1.742s0.38-1,0.669-1.396c0.292-0.396,0.635-0.706,1.037-0.927
		s0.847-0.334,1.337-0.337c0.507,0.003,0.969,0.118,1.383,0.349c0.414,0.227,0.771,0.547,1.068,0.954
		c0.297,0.411,0.526,0.89,0.688,1.437c0.161,0.547,0.243,1.143,0.243,1.782c0,0.629-0.079,1.21-0.237,1.745
		c-0.156,0.536-0.38,1.003-0.669,1.402c-0.289,0.4-0.635,0.712-1.037,0.933c-0.399,0.224-0.847,0.337-1.337,0.34
		c-0.508-0.003-0.97-0.121-1.383-0.354c-0.414-0.235-0.769-0.559-1.068-0.972c-0.298-0.414-0.527-0.896-0.688-1.442
		C31.215,105.489,31.136,104.896,31.133,104.264L31.133,104.264z M29.297,104.383c0.003,0.688,0.08,1.343,0.238,1.958
		c0.156,0.617,0.383,1.182,0.677,1.691c0.295,0.51,0.652,0.955,1.071,1.326c0.419,0.374,0.893,0.663,1.417,0.867
		c0.527,0.204,1.097,0.309,1.714,0.312c0.632-0.003,1.213-0.11,1.751-0.32c0.535-0.213,1.018-0.51,1.445-0.896
		c0.428-0.383,0.79-0.836,1.091-1.359c0.303-0.521,0.532-1.094,0.691-1.721c0.158-0.626,0.24-1.283,0.24-1.978
		c0-0.688-0.079-1.343-0.234-1.958c-0.159-0.614-0.386-1.176-0.681-1.686s-0.651-0.949-1.071-1.323
		c-0.419-0.371-0.89-0.657-1.416-0.861c-0.527-0.204-1.097-0.306-1.714-0.309c-0.629,0.003-1.213,0.11-1.752,0.32
		c-0.535,0.21-1.017,0.504-1.444,0.887s-0.791,0.836-1.091,1.354c-0.304,0.521-0.532,1.094-0.691,1.72
		C29.379,103.032,29.3,103.689,29.297,104.383z"/>
	<path d="M41.521,99.215c0.002,0.147,0.039,0.283,0.115,0.402c0.074,0.122,0.179,0.216,0.307,0.286
		c0.13,0.071,0.28,0.107,0.444,0.11h0.018v9.707c0.003,0.153,0.042,0.292,0.119,0.414c0.076,0.124,0.181,0.221,0.312,0.292
		c0.13,0.07,0.274,0.107,0.437,0.11c0.189-0.003,0.354-0.046,0.501-0.128c0.145-0.085,0.258-0.195,0.34-0.334
		c0.085-0.139,0.125-0.292,0.128-0.459v-6.57l2.975,6.043c0.076,0.156,0.182,0.272,0.314,0.354c0.134,0.082,0.289,0.122,0.468,0.122
		c0.176-0.003,0.322-0.034,0.444-0.094s0.222-0.131,0.295-0.213c0.074-0.082,0.128-0.155,0.161-0.221l3.196-6.162v6.689
		c0.006,0.243,0.085,0.436,0.244,0.58c0.155,0.145,0.365,0.219,0.623,0.222h0.85c0.162-0.003,0.317-0.043,0.462-0.122
		c0.147-0.079,0.27-0.188,0.363-0.326c0.094-0.136,0.142-0.294,0.145-0.473c0-0.147-0.037-0.283-0.111-0.402
		c-0.073-0.122-0.173-0.216-0.3-0.289c-0.128-0.07-0.272-0.104-0.439-0.107v-9.552c-0.003-0.24-0.082-0.434-0.237-0.578
		c-0.156-0.144-0.372-0.218-0.646-0.221c-0.189,0-0.36,0.046-0.51,0.136c-0.15,0.091-0.27,0.222-0.357,0.392l-4.063,7.848
		l-3.91-7.916c-0.079-0.153-0.187-0.27-0.323-0.346c-0.136-0.076-0.295-0.113-0.476-0.113h-0.918c-0.162,0-0.314,0.043-0.462,0.122
		c-0.147,0.076-0.267,0.187-0.363,0.323C41.571,98.881,41.522,99.037,41.521,99.215z"/>
	<path d="M56.82,99.215c0.003,0.147,0.039,0.283,0.115,0.402c0.074,0.122,0.179,0.216,0.307,0.286
		c0.131,0.071,0.28,0.107,0.444,0.11h0.018v9.707c0.003,0.153,0.042,0.292,0.119,0.414c0.076,0.124,0.182,0.221,0.312,0.292
		c0.13,0.07,0.274,0.107,0.437,0.11c0.189-0.003,0.354-0.046,0.501-0.128c0.145-0.085,0.258-0.195,0.34-0.334
		c0.085-0.139,0.125-0.292,0.128-0.459v-6.57l2.975,6.043c0.077,0.156,0.182,0.272,0.314,0.354c0.134,0.082,0.289,0.122,0.468,0.122
		c0.176-0.003,0.323-0.034,0.444-0.094c0.122-0.06,0.222-0.131,0.295-0.213c0.074-0.082,0.128-0.155,0.162-0.221l3.195-6.162v6.689
		c0.006,0.243,0.085,0.436,0.244,0.58c0.156,0.145,0.365,0.219,0.623,0.222h0.85c0.162-0.003,0.318-0.043,0.463-0.122
		c0.146-0.079,0.269-0.188,0.362-0.326c0.094-0.136,0.142-0.294,0.145-0.473c0-0.147-0.037-0.283-0.11-0.402
		c-0.074-0.122-0.173-0.216-0.301-0.289c-0.127-0.07-0.271-0.104-0.439-0.107v-9.552c-0.002-0.24-0.082-0.434-0.237-0.578
		c-0.156-0.144-0.371-0.218-0.646-0.221c-0.189,0-0.359,0.046-0.51,0.136c-0.15,0.091-0.27,0.222-0.357,0.392l-4.063,7.848
		l-3.91-7.916c-0.079-0.153-0.187-0.27-0.323-0.346c-0.136-0.076-0.294-0.113-0.476-0.113h-0.918c-0.162,0-0.314,0.043-0.462,0.122
		c-0.147,0.076-0.267,0.187-0.362,0.323C56.871,98.881,56.823,99.037,56.82,99.215z"/>
	<path d="M71.848,106.763c0.003,0.49,0.074,0.936,0.216,1.332c0.142,0.399,0.34,0.751,0.589,1.054
		c0.252,0.304,0.544,0.559,0.879,0.766c0.331,0.206,0.688,0.359,1.073,0.464c0.386,0.105,0.779,0.159,1.188,0.159
		c0.383-0.003,0.748-0.051,1.097-0.142c0.349-0.094,0.672-0.216,0.963-0.369c0.295-0.149,0.55-0.316,0.768-0.498
		c0.219-0.185,0.389-0.365,0.508-0.547c0.122-0.182,0.182-0.349,0.184-0.502c-0.002-0.158-0.045-0.3-0.127-0.419
		s-0.188-0.213-0.317-0.277c-0.133-0.068-0.272-0.103-0.422-0.103c-0.171,0.003-0.323,0.043-0.454,0.116
		c-0.133,0.077-0.264,0.167-0.388,0.278c-0.125,0.11-0.264,0.224-0.414,0.334c-0.149,0.11-0.331,0.201-0.538,0.277
		c-0.207,0.074-0.459,0.113-0.757,0.116c-0.172,0-0.356-0.02-0.555-0.063c-0.198-0.039-0.396-0.11-0.59-0.206
		c-0.195-0.097-0.371-0.228-0.532-0.392c-0.159-0.164-0.289-0.368-0.386-0.612c-0.096-0.243-0.145-0.535-0.147-0.869
		c0.003-0.312,0.065-0.59,0.185-0.836c0.119-0.249,0.277-0.459,0.473-0.632c0.199-0.176,0.414-0.309,0.649-0.399
		c0.232-0.094,0.468-0.139,0.7-0.139h1.173c0.161-0.003,0.317-0.043,0.462-0.122c0.147-0.079,0.269-0.187,0.362-0.323
		c0.094-0.139,0.142-0.298,0.145-0.473c-0.003-0.15-0.04-0.284-0.116-0.402c-0.073-0.122-0.176-0.219-0.306-0.289
		c-0.131-0.071-0.278-0.105-0.445-0.107h-1.173c-0.312-0.003-0.572-0.052-0.776-0.148c-0.204-0.096-0.363-0.221-0.479-0.376
		c-0.113-0.153-0.196-0.317-0.241-0.496c-0.048-0.176-0.07-0.346-0.068-0.51c0-0.252,0.071-0.484,0.21-0.694s0.346-0.38,0.623-0.504
		c0.278-0.128,0.624-0.193,1.037-0.196h0.731c0.003,0.153,0.042,0.292,0.119,0.417c0.076,0.122,0.181,0.218,0.312,0.289
		c0.13,0.07,0.274,0.107,0.437,0.11c0.189-0.003,0.354-0.045,0.501-0.128c0.145-0.085,0.258-0.195,0.34-0.334
		c0.085-0.139,0.125-0.289,0.128-0.456v-0.816c-0.006-0.24-0.085-0.434-0.244-0.578c-0.155-0.144-0.365-0.218-0.623-0.221H76.2
		c-0.59,0.003-1.116,0.091-1.584,0.261c-0.471,0.17-0.87,0.405-1.198,0.703c-0.332,0.297-0.587,0.637-0.76,1.022
		c-0.176,0.386-0.264,0.793-0.267,1.227c0.003,0.479,0.082,0.912,0.244,1.301c0.161,0.388,0.391,0.72,0.691,0.994
		c-0.298,0.232-0.556,0.505-0.776,0.813c-0.222,0.306-0.394,0.641-0.516,1.003S71.851,106.364,71.848,106.763L71.848,106.763z"/>
	<path d="M83.884,104.027v-4.013h1.156c0.277,0,0.541,0.052,0.79,0.147c0.249,0.1,0.468,0.238,0.66,0.425
		c0.192,0.185,0.346,0.408,0.456,0.669c0.111,0.261,0.165,0.556,0.168,0.884c0,0.278-0.049,0.541-0.139,0.788
		c-0.094,0.246-0.225,0.465-0.395,0.654c-0.17,0.19-0.374,0.34-0.606,0.447c-0.235,0.111-0.496,0.165-0.781,0.168
		c-0.304-0.003-0.559-0.021-0.769-0.055C84.213,104.109,84.034,104.072,83.884,104.027L83.884,104.027z M81.198,99.215
		c0.002,0.147,0.039,0.283,0.11,0.402c0.073,0.122,0.173,0.216,0.3,0.286c0.128,0.071,0.275,0.107,0.439,0.11v9.555
		c0.006,0.24,0.085,0.433,0.244,0.577c0.155,0.145,0.365,0.219,0.623,0.222h0.85c0.162-0.003,0.317-0.043,0.462-0.122
		c0.147-0.079,0.27-0.188,0.363-0.323c0.093-0.139,0.142-0.297,0.145-0.473c0-0.15-0.04-0.283-0.111-0.405
		c-0.073-0.119-0.173-0.216-0.3-0.286c-0.128-0.071-0.275-0.104-0.439-0.107v-2.84c0.185,0.028,0.357,0.049,0.521,0.065
		c0.164,0.015,0.306,0.022,0.425,0.028c0.122,0.006,0.207,0.009,0.261,0.009c0.527-0.003,1.022-0.1,1.484-0.292
		c0.465-0.192,0.873-0.462,1.23-0.811c0.354-0.349,0.635-0.759,0.835-1.229c0.201-0.47,0.307-0.986,0.31-1.544
		c-0.003-0.564-0.108-1.074-0.313-1.53c-0.2-0.459-0.479-0.853-0.832-1.182c-0.354-0.328-0.76-0.583-1.216-0.759
		c-0.456-0.179-0.938-0.267-1.448-0.27h-2.975c-0.162,0-0.314,0.043-0.462,0.122c-0.147,0.076-0.267,0.187-0.362,0.323
		C81.249,98.881,81.2,99.037,81.198,99.215z"/>
	<path d="M90.734,99.215c0.003,0.15,0.04,0.283,0.11,0.402c0.074,0.122,0.174,0.216,0.301,0.289
		c0.128,0.071,0.274,0.104,0.439,0.107v9.555c0.006,0.24,0.085,0.433,0.243,0.577c0.156,0.145,0.366,0.219,0.624,0.222h6.103
		c0.003,0.153,0.043,0.292,0.119,0.416c0.076,0.122,0.182,0.219,0.312,0.289c0.131,0.071,0.274,0.107,0.437,0.11
		c0.189-0.003,0.354-0.045,0.501-0.127c0.145-0.085,0.258-0.195,0.341-0.335c0.085-0.139,0.124-0.288,0.127-0.456v-0.815
		c-0.003-0.153-0.039-0.292-0.113-0.411c-0.076-0.119-0.176-0.216-0.306-0.283c-0.128-0.068-0.27-0.102-0.431-0.104v-9.707
		c-0.003-0.156-0.043-0.295-0.119-0.417c-0.077-0.122-0.182-0.218-0.312-0.289c-0.131-0.073-0.275-0.11-0.437-0.11
		c-0.188,0.003-0.354,0.045-0.502,0.128c-0.145,0.085-0.258,0.195-0.34,0.334c-0.082,0.136-0.124,0.289-0.127,0.456v9.605h-4.284
		v-9.555c-0.006-0.24-0.085-0.434-0.244-0.578c-0.155-0.144-0.362-0.218-0.623-0.221h-0.85c-0.162,0-0.317,0.043-0.462,0.122
		c-0.147,0.076-0.267,0.187-0.363,0.323C90.786,98.881,90.737,99.037,90.734,99.215z"/>
	<path d="M102.601,99.215c0.003,0.147,0.04,0.283,0.116,0.402c0.073,0.122,0.179,0.216,0.306,0.286
		c0.131,0.071,0.28,0.107,0.445,0.11h0.153v9.707c0.002,0.153,0.042,0.292,0.118,0.417c0.077,0.121,0.182,0.218,0.312,0.289
		c0.131,0.07,0.275,0.107,0.437,0.11c0.19-0.003,0.354-0.046,0.502-0.128c0.145-0.085,0.258-0.195,0.34-0.334
		c0.085-0.139,0.125-0.289,0.128-0.456v-0.544l4.623-6.239v6.732c0.006,0.24,0.086,0.433,0.244,0.577
		c0.156,0.145,0.365,0.219,0.623,0.222h0.851c0.161-0.003,0.317-0.043,0.462-0.122c0.146-0.079,0.269-0.188,0.362-0.323
		c0.094-0.139,0.142-0.297,0.145-0.473c0-0.15-0.037-0.283-0.11-0.405c-0.074-0.119-0.173-0.216-0.301-0.286
		c-0.127-0.071-0.271-0.104-0.438-0.107v-9.707c-0.003-0.156-0.043-0.295-0.119-0.417c-0.077-0.122-0.182-0.218-0.312-0.289
		c-0.131-0.073-0.275-0.11-0.437-0.11c-0.188,0.003-0.354,0.045-0.502,0.128c-0.145,0.085-0.258,0.195-0.34,0.334
		c-0.082,0.136-0.125,0.289-0.128,0.456v0.867l-4.623,6.239v-7.056c-0.006-0.24-0.085-0.434-0.244-0.578
		c-0.156-0.144-0.362-0.218-0.623-0.221h-1.021c-0.161,0-0.314,0.043-0.461,0.122c-0.147,0.076-0.267,0.187-0.363,0.323
		C102.651,98.881,102.604,99.037,102.601,99.215z"/>
	<path d="M116.337,101.85c0.003-0.297,0.07-0.561,0.204-0.79c0.136-0.227,0.312-0.419,0.532-0.575s0.468-0.272,0.734-0.352
		c0.266-0.079,0.535-0.119,0.807-0.119h1.174v3.672h-1.174c-0.291,0-0.572-0.033-0.844-0.104c-0.27-0.07-0.513-0.182-0.729-0.329
		c-0.215-0.146-0.385-0.337-0.513-0.569C116.404,102.451,116.34,102.173,116.337,101.85L116.337,101.85z M114.348,109.721
		c0,0.145,0.037,0.277,0.107,0.399c0.071,0.125,0.17,0.225,0.301,0.301c0.13,0.073,0.283,0.113,0.459,0.116
		c0.173,0,0.334-0.043,0.481-0.125c0.15-0.079,0.272-0.198,0.368-0.352l2.856-4.657h0.867v4.165c0.005,0.24,0.084,0.433,0.243,0.577
		c0.156,0.145,0.365,0.219,0.623,0.222h0.851c0.161-0.003,0.317-0.043,0.462-0.122c0.147-0.079,0.269-0.188,0.362-0.323
		c0.094-0.139,0.142-0.297,0.145-0.473c0-0.15-0.037-0.283-0.11-0.405c-0.074-0.119-0.173-0.216-0.301-0.286
		c-0.127-0.071-0.271-0.104-0.438-0.107v-9.555c-0.003-0.24-0.085-0.434-0.241-0.578c-0.159-0.144-0.365-0.218-0.626-0.221h-2.04
		c-0.428,0-0.848,0.057-1.256,0.167c-0.407,0.11-0.79,0.272-1.147,0.482c-0.356,0.212-0.668,0.464-0.94,0.765
		c-0.271,0.298-0.484,0.635-0.637,1.012c-0.153,0.376-0.233,0.787-0.235,1.229c0.002,0.428,0.067,0.815,0.195,1.164
		c0.127,0.346,0.303,0.655,0.529,0.921c0.228,0.267,0.487,0.493,0.788,0.681c0.3,0.187,0.623,0.337,0.969,0.447l-2.516,4.114
		c-0.043,0.067-0.074,0.139-0.091,0.215C114.356,109.569,114.348,109.645,114.348,109.721z"/>
</g>
<g id="icons">
	<path fill-rule="evenodd" clip-rule="evenodd" fill="#BBB9B9" d="M75.407,9.632l-4.74,1.906v5.296l-3.418,1.375v5.956l-2.565,1.032
		v3.164l17.429-6.308v-3.864l-3.117,1.253v-5.956l-3.588,1.442V9.632L75.407,9.632z M82.112,24.173v5.25l-17.429,4.783v-3.725
		L82.112,24.173L82.112,24.173z M82.112,31.489l-17.429,4.783v3.773l17.429-3.262V31.489L82.112,31.489z M82.112,38.813v5.325
		l-17.429,1.743v-3.807L82.112,38.813L82.112,38.813z M82.112,46.142l-17.429,1.743v3.827l17.429-0.229V46.142L82.112,46.142z
		 M82.112,53.477l-17.429,0.228v3.831l17.429,1.283V53.477L82.112,53.477z M82.112,60.821l-17.429-1.283v3.819l17.429,2.791V60.821
		L82.112,60.821z M82.112,68.167v5.3L64.684,69.17v-3.795L82.112,68.167L82.112,68.167z M82.112,75.521l-17.429-4.295v3.758
		l17.429,5.797V75.521L82.112,75.521z M82.112,82.878v4.096L64.684,79.41v-2.327L82.112,82.878z"/>
	<path fill-rule="evenodd" clip-rule="evenodd" fill="#B64346" d="M84.45,22.795h1.597v60.401H84.45V22.795L84.45,22.795z
		 M87.412,24.637h1.598v56.911h-1.598V24.637L87.412,24.637z M90.375,26.338h1.598v53.767h-1.598V26.338L90.375,26.338z
		 M93.319,80.913V25.539l-11.207-7.352v3.864v2.122v5.25v2.065v5.295v2.03v5.325v2.004v5.342v1.993v5.342v2.002v5.327v2.019v5.3
		v2.055v5.26v2.098v4.096L93.319,80.913z"/>
	<polygon fill-rule="evenodd" clip-rule="evenodd" fill="#BBB9B9" points="50.745,84.842 50.745,18.188 43.583,26.041 
		43.583,78.565 	"/>
	<path fill-rule="evenodd" clip-rule="evenodd" fill="#BC3B3B" d="M53.103,24.627V22.5l8.966,3.339v2.126L53.103,24.627
		L53.103,24.627z M53.103,31.578v-2.064l8.966,2.444v2.065L53.103,31.578L53.103,31.578z M53.103,38.544v-2.027l8.966,1.544v2.027
		L53.103,38.544L53.103,38.544z M53.103,45.52v-2.002l8.966,0.638v2.002L53.103,45.52L53.103,45.52z M53.103,52.507v-1.994
		l8.966-0.274v1.994L53.103,52.507L53.103,52.507z M53.103,59.51v-2.011l8.966-1.192v2.011L53.103,59.51L53.103,59.51z
		 M53.103,66.529v-2.053l8.966-2.114v2.052L53.103,66.529L53.103,66.529z M53.103,73.557V71.45l8.966-3.044v2.108L53.103,73.557
		L53.103,73.557z M53.103,80.597v-2.178l8.966-3.979v2.178L53.103,80.597L53.103,80.597z M64.684,23.888l-13.938-5.701v66.655v0.284
		l13.938-5.725v-2.319v-2.099v-3.758V69.17v-3.795v-2.019v-3.819v-2.002v-3.831v-1.992v-3.827v-2.004v-3.807v-2.029v-3.773v-2.065
		v-3.725V28.36v-3.164V23.888z"/>
	<polygon fill-rule="evenodd" clip-rule="evenodd" fill="#BC4848" points="43.583,73.396 43.583,43.563 37.039,39.149 
		37.039,42.859 37.039,75.693 37.039,77.81 	"/>
	<polygon fill-rule="evenodd" clip-rule="evenodd" fill="#D5D0D2" points="37.039,75.693 37.039,42.859 31.989,46.608 
		31.989,71.944 	"/>
	<polygon fill-rule="evenodd" clip-rule="evenodd" fill="#BBB9B9" points="93.319,40.085 93.319,71.486 100.699,76.312 
		100.699,41.958 100.699,35.259 	"/>
	<polygon fill-rule="evenodd" clip-rule="evenodd" fill="#BB3D3E" points="100.699,41.958 100.699,76.312 105.955,72.141 
		105.955,46.127 	"/>
</g>
</svg>
