<svg xmlns="http://www.w3.org/2000/svg" viewBox="0 0 138 123.28"><g id="fon"><rect x="1" y="1" width="136" height="121.28" rx="8.25" style="fill:#a80000;stroke:#a80000;stroke-miterlimit:22.925600000000003;stroke-width:2.0001px"/></g><g id="text"><path d="M18.11,99.22a.77.77,0,0,0,.11.4.74.74,0,0,0,.3.28A.82.82,0,0,0,19,100v9.71a.79.79,0,0,0,.12.42.86.86,0,0,0,.31.29,1.06,1.06,0,0,0,.44.11,1.16,1.16,0,0,0,.5-.13,1.07,1.07,0,0,0,.34-.33,1,1,0,0,0,.13-.46v-4.86h.59l4.2,5.28a.87.87,0,0,0,.3.25,1,1,0,0,0,.4.08h.85a1.21,1.21,0,0,0,.46-.12,1,1,0,0,0,.36-.33.85.85,0,0,0,.15-.47.78.78,0,0,0-.12-.4.73.73,0,0,0-.31-.29.9.9,0,0,0-.44-.11h-.41L23,103.89l3.86-4.37a.81.81,0,0,0,.17-.28.94.94,0,0,0,.05-.3.71.71,0,0,0-.13-.43.84.84,0,0,0-.31-.28.94.94,0,0,0-.43-.1,1,1,0,0,0-.4.09.91.91,0,0,0-.34.25l-4,4.57H20.8V99.1a.78.78,0,0,0-.25-.58.84.84,0,0,0-.62-.22h-.85a.93.93,0,0,0-.46.12,1,1,0,0,0-.36.32A.81.81,0,0,0,18.11,99.22Z" transform="translate(0 0)" style="fill:#fff"/><path d="M31.13,104.26a6.42,6.42,0,0,1,.24-1.74,4.49,4.49,0,0,1,.67-1.39,3.07,3.07,0,0,1,1-.93,2.71,2.71,0,0,1,1.33-.34,2.84,2.84,0,0,1,1.39.35,3.45,3.45,0,0,1,1.07,1,4.91,4.91,0,0,1,.68,1.44,6.33,6.33,0,0,1,.25,1.78,6.12,6.12,0,0,1-.24,1.75,4.66,4.66,0,0,1-.67,1.4,3.07,3.07,0,0,1-1,.93,2.61,2.61,0,0,1-1.33.34,2.84,2.84,0,0,1-1.39-.35,3.48,3.48,0,0,1-1.06-1,4.8,4.8,0,0,1-.69-1.44,6.33,6.33,0,0,1-.25-1.78Zm-1.83.12a7.74,7.74,0,0,0,.24,2,6.48,6.48,0,0,0,.67,1.69,5.39,5.39,0,0,0,1.07,1.33,4.94,4.94,0,0,0,1.42.87,5,5,0,0,0,1.71.31,4.91,4.91,0,0,0,1.75-.32,4.83,4.83,0,0,0,1.45-.9A5.22,5.22,0,0,0,38.7,108a6.73,6.73,0,0,0,.69-1.72,7.9,7.9,0,0,0,.24-2,8.2,8.2,0,0,0-.23-2,6.87,6.87,0,0,0-.68-1.69,5.34,5.34,0,0,0-1.07-1.32,4.68,4.68,0,0,0-3.13-1.17,4.74,4.74,0,0,0-3.2,1.2,5.57,5.57,0,0,0-1.09,1.36,6.73,6.73,0,0,0-.69,1.72A7.88,7.88,0,0,0,29.3,104.38Z" transform="translate(0 0)" style="fill:#fff"/><path d="M41.52,99.22a.72.72,0,0,0,.12.4.74.74,0,0,0,.3.28.94.94,0,0,0,.45.11h0v9.71a.93.93,0,0,0,.12.41.77.77,0,0,0,.32.3,1,1,0,0,0,.43.11,1.12,1.12,0,0,0,.5-.13,1,1,0,0,0,.34-.33.84.84,0,0,0,.13-.46v-6.57l3,6a.84.84,0,0,0,.32.35.81.81,0,0,0,.47.13,1.06,1.06,0,0,0,.74-.31,2,2,0,0,0,.16-.22l3.19-6.16v6.69a.8.8,0,0,0,.25.58.93.93,0,0,0,.62.22h.85a1.21,1.21,0,0,0,.46-.12,1.06,1.06,0,0,0,.37-.33.84.84,0,0,0,.14-.47.81.81,0,0,0-.11-.41.84.84,0,0,0-.3-.29.89.89,0,0,0-.44-.1V99.1a.74.74,0,0,0-.24-.58.87.87,0,0,0-.64-.22.93.93,0,0,0-.87.52l-4.06,7.85-3.91-7.91a.8.8,0,0,0-.33-.35.88.88,0,0,0-.47-.11h-.92a.93.93,0,0,0-.46.12,1.14,1.14,0,0,0-.37.32A.87.87,0,0,0,41.52,99.22Z" transform="translate(0 0)" style="fill:#fff"/><path d="M56.82,99.22a.72.72,0,0,0,.12.4.74.74,0,0,0,.3.28.94.94,0,0,0,.45.11h0v9.71a.93.93,0,0,0,.12.41.81.81,0,0,0,.31.3,1.06,1.06,0,0,0,.44.11,1.16,1.16,0,0,0,.5-.13,1,1,0,0,0,.34-.33.84.84,0,0,0,.13-.46v-6.57l3,6a.84.84,0,0,0,.32.35.81.81,0,0,0,.47.13,1.06,1.06,0,0,0,.74-.31,2,2,0,0,0,.16-.22l3.19-6.16v6.69a.8.8,0,0,0,.25.58.93.93,0,0,0,.62.22h.85a1.21,1.21,0,0,0,.46-.12,1.06,1.06,0,0,0,.37-.33.84.84,0,0,0,.14-.47A.81.81,0,0,0,70,109a.84.84,0,0,0-.3-.29.89.89,0,0,0-.44-.1V99.1a.74.74,0,0,0-.24-.58.87.87,0,0,0-.64-.22.93.93,0,0,0-.87.52l-4.06,7.85-3.91-7.91a.8.8,0,0,0-.33-.35.88.88,0,0,0-.47-.11h-.92a.93.93,0,0,0-.46.12,1.14,1.14,0,0,0-.37.32A.87.87,0,0,0,56.82,99.22Z" transform="translate(0 0)" style="fill:#fff"/><path d="M71.85,106.76a4.05,4.05,0,0,0,.21,1.34,3.71,3.71,0,0,0,.59,1.05,3.55,3.55,0,0,0,.88.76,4.1,4.1,0,0,0,1.07.47,4.74,4.74,0,0,0,1.19.16,4.94,4.94,0,0,0,1.1-.14,5.18,5.18,0,0,0,1-.37,4.09,4.09,0,0,0,.77-.5,2.82,2.82,0,0,0,.51-.55.93.93,0,0,0,.18-.5.68.68,0,0,0-.13-.42.84.84,0,0,0-.31-.28,1.08,1.08,0,0,0-.43-.1.84.84,0,0,0-.45.12,1.9,1.9,0,0,0-.39.28,4.91,4.91,0,0,1-.41.33,2.28,2.28,0,0,1-.54.28,2.39,2.39,0,0,1-.76.11,2.8,2.8,0,0,1-.55-.06,2.19,2.19,0,0,1-.59-.21,1.65,1.65,0,0,1-.53-.39,1.88,1.88,0,0,1-.39-.61,2.72,2.72,0,0,1-.15-.87,2,2,0,0,1,.19-.83,2.17,2.17,0,0,1,.47-.64,2.2,2.2,0,0,1,.65-.4,1.93,1.93,0,0,1,.7-.13h1.17a1.14,1.14,0,0,0,.47-.13,1.1,1.1,0,0,0,.36-.32.86.86,0,0,0,.14-.47.75.75,0,0,0-.11-.4.78.78,0,0,0-.31-.29.94.94,0,0,0-.45-.11H75.79a1.73,1.73,0,0,1-.77-.15,1.16,1.16,0,0,1-.48-.38,1.18,1.18,0,0,1-.24-.49,1.89,1.89,0,0,1-.07-.51,1.25,1.25,0,0,1,.21-.7,1.37,1.37,0,0,1,.62-.5,2.6,2.6,0,0,1,1-.2h.73a.74.74,0,0,0,.12.42.79.79,0,0,0,.31.29.9.9,0,0,0,.44.11.93.93,0,0,0,.5-.13.88.88,0,0,0,.46-.79V99.1a.74.74,0,0,0-.24-.58.84.84,0,0,0-.62-.22H76.2a4.55,4.55,0,0,0-1.58.26,3.55,3.55,0,0,0-1.2.7,3.09,3.09,0,0,0-.76,1,2.9,2.9,0,0,0-.27,1.23,3.21,3.21,0,0,0,.25,1.3,2.8,2.8,0,0,0,.69,1,3.75,3.75,0,0,0-.78.81,3.63,3.63,0,0,0-.51,1,3.33,3.33,0,0,0-.19,1.14Z" transform="translate(0 0)" style="fill:#fff"/><path d="M83.88,104v-4H85a2.31,2.31,0,0,1,.79.15,1.93,1.93,0,0,1,.66.43,1.9,1.9,0,0,1,.46.67,2.23,2.23,0,0,1,.16.88,2,2,0,0,1-.53,1.44A1.83,1.83,0,0,1,86,104a1.94,1.94,0,0,1-.78.17,5.36,5.36,0,0,1-.77-.06,4.63,4.63,0,0,1-.54-.11ZM81.2,99.22a.8.8,0,0,0,.11.4.74.74,0,0,0,.3.28.9.9,0,0,0,.44.11v9.56a.75.75,0,0,0,.24.58,1,1,0,0,0,.62.22h.85a1.26,1.26,0,0,0,.47-.12,1,1,0,0,0,.36-.33.84.84,0,0,0,0-.88.81.81,0,0,0-.3-.28.87.87,0,0,0-.44-.11v-2.84l.53.07.42,0h.26a3.92,3.92,0,0,0,1.49-.29A3.85,3.85,0,0,0,89,102a3.73,3.73,0,0,0-.31-1.53,3.45,3.45,0,0,0-.83-1.18,3.69,3.69,0,0,0-1.22-.76,3.93,3.93,0,0,0-1.45-.27h-3a.9.9,0,0,0-.46.12,1.14,1.14,0,0,0-.37.32A.87.87,0,0,0,81.2,99.22Z" transform="translate(0 0)" style="fill:#fff"/><path d="M90.73,99.22a.88.88,0,0,0,.11.4,1,1,0,0,0,.31.29.87.87,0,0,0,.44.1v9.56a.75.75,0,0,0,.24.58.93.93,0,0,0,.62.22h6.1a.93.93,0,0,0,.12.41.81.81,0,0,0,.32.29.89.89,0,0,0,.43.11,1,1,0,0,0,.5-.12.92.92,0,0,0,.34-.34.81.81,0,0,0,.13-.45v-.82a.81.81,0,0,0-.11-.41.86.86,0,0,0-.31-.29,1,1,0,0,0-.43-.1V98.94a.73.73,0,0,0-.12-.41.78.78,0,0,0-.31-.29.8.8,0,0,0-.44-.11,1.06,1.06,0,0,0-.5.12,1,1,0,0,0-.34.34.9.9,0,0,0-.12.46v9.6H93.42V99.1a.77.77,0,0,0-.24-.58.88.88,0,0,0-.63-.22H91.7a1,1,0,0,0-.46.12,1.11,1.11,0,0,0-.36.32A1,1,0,0,0,90.73,99.22Z" transform="translate(0 0)" style="fill:#fff"/><path d="M102.6,99.22a.72.72,0,0,0,.12.4.81.81,0,0,0,.3.28.94.94,0,0,0,.45.11h.15v9.71a.79.79,0,0,0,.12.42.86.86,0,0,0,.31.29,1.06,1.06,0,0,0,.44.11,1.16,1.16,0,0,0,.5-.13,1.07,1.07,0,0,0,.34-.33,1,1,0,0,0,.13-.46v-.54l4.62-6.24v6.73a.83.83,0,0,0,.24.58,1,1,0,0,0,.63.22h.85a1.21,1.21,0,0,0,.46-.12,1,1,0,0,0,.36-.33.81.81,0,0,0,0-.88,1,1,0,0,0-.3-.28.93.93,0,0,0-.44-.11V98.94a.93.93,0,0,0-.12-.41.78.78,0,0,0-.31-.29.82.82,0,0,0-.44-.11,1,1,0,0,0-.5.12.92.92,0,0,0-.34.34.91.91,0,0,0-.13.46v.86l-4.62,6.24V99.1a.78.78,0,0,0-.25-.58.84.84,0,0,0-.62-.22h-1a.93.93,0,0,0-.46.12,1,1,0,0,0-.36.32A.81.81,0,0,0,102.6,99.22Z" transform="translate(0 0)" style="fill:#fff"/><path d="M116.34,101.85a1.57,1.57,0,0,1,.2-.79,2,2,0,0,1,.53-.58,2.65,2.65,0,0,1,.74-.35,2.72,2.72,0,0,1,.8-.12h1.18v3.68h-1.18a3.34,3.34,0,0,1-.84-.11,2.31,2.31,0,0,1-.73-.33,1.57,1.57,0,0,1-.51-.57,1.67,1.67,0,0,1-.19-.83Zm-2,7.87a.69.69,0,0,0,.11.4.79.79,0,0,0,.3.3,1.07,1.07,0,0,0,.45.12,1,1,0,0,0,.49-.13.93.93,0,0,0,.36-.35l2.86-4.66h.87v4.17a.75.75,0,0,0,.24.58,1,1,0,0,0,.62.22h.85a1.26,1.26,0,0,0,.47-.12,1,1,0,0,0,.36-.33.84.84,0,0,0,.14-.47.74.74,0,0,0-.11-.41.81.81,0,0,0-.3-.28.87.87,0,0,0-.44-.11V99.1a.74.74,0,0,0-.24-.58.86.86,0,0,0-.62-.22h-2a4.84,4.84,0,0,0-1.26.16,4.69,4.69,0,0,0-1.15.49,4.29,4.29,0,0,0-.94.76,3.43,3.43,0,0,0-.63,1,3.14,3.14,0,0,0-.24,1.23,3.34,3.34,0,0,0,.2,1.17,2.91,2.91,0,0,0,.53.92,3.41,3.41,0,0,0,.78.68,4.73,4.73,0,0,0,1,.44l-2.51,4.12a.48.48,0,0,0-.09.21A1,1,0,0,0,114.35,109.72Z" transform="translate(0 0)" style="fill:#fff"/></g><g id="icons"><path d="M75.41,9.63l-4.74,1.91v5.29l-3.42,1.38v5.95l-2.57,1v3.16l17.43-6.31V18.19L79,19.44v-6l-3.59,1.45V9.63Zm6.7,14.54v5.25L64.68,34.21V30.48l17.43-6.31Zm0,7.32L64.68,36.27v3.78l17.43-3.27V31.49Zm0,7.32v5.33L64.68,45.88V42.07l17.43-3.26Zm0,7.33L64.68,47.89v3.82l17.43-.23V46.14Zm0,7.34-17.43.22v3.84l17.43,1.28V53.48Zm0,7.34L64.68,59.54v3.82l17.43,2.79V60.82Zm0,7.35v5.3l-17.43-4.3V65.38l17.43,2.79Zm0,7.35L64.68,71.23V75l17.43,5.8V75.52Zm0,7.36V87L64.68,79.41V77.08Z" transform="translate(0 0)" style="fill:#fff;fill-rule:evenodd"/><path d="M84.45,22.8h1.6V83.2h-1.6V22.8Zm3,1.84H89V81.55h-1.6V24.64Zm3,1.7H92V80.1H90.38V26.34Zm2.94,54.57V25.54L82.11,18.19V87Z" transform="translate(0 0)" style="fill:#fff;fill-rule:evenodd"/><polygon points="50.74 84.84 50.74 18.19 43.58 26.04 43.58 78.56 50.74 84.84" style="fill:#fff;fill-rule:evenodd"/><path d="M53.1,24.63V22.5l9,3.34V28l-9-3.34Zm0,7V29.51l9,2.45V34l-9-2.44Zm0,7v-2l9,1.54v2l-9-1.55Zm0,7v-2l9,.64v2l-9-.64Zm0,7v-2l9-.27v2l-9,.28Zm0,7v-2l9-1.19v2l-9,1.19Zm0,7v-2l9-2.12v2l-9,2.12Zm0,7V71.45l9-3v2.1l-9,3Zm0,7V78.42l9-4v2.18l-9,4ZM64.68,23.89l-13.93-5.7V85.13L64.68,79.4V23.89Z" transform="translate(0 0)" style="fill:#ededed;fill-rule:evenodd"/><polygon points="43.58 73.4 43.58 43.56 37.04 39.15 37.04 42.86 37.04 75.69 37.04 77.81 43.58 73.4" style="fill:#ededed;fill-rule:evenodd"/><polygon points="37.04 75.69 37.04 42.86 31.99 46.61 31.99 71.94 37.04 75.69" style="fill:#fff;fill-rule:evenodd"/><polygon points="93.32 40.09 93.32 71.49 100.7 76.31 100.7 41.96 100.7 35.26 93.32 40.09" style="fill:#fff;fill-rule:evenodd"/><polygon points="100.7 41.96 100.7 76.31 105.95 72.14 105.95 46.13 100.7 41.96" style="fill:#ededed;fill-rule:evenodd"/></g></svg>