<svg xmlns="http://www.w3.org/2000/svg" viewBox="0 0 138 123.28">
  <g id="fon">
    <rect x="1" y="1" width="136" height="121.28" rx="8.25" style="fill: #a80000;stroke: #a80000;stroke-miterlimit: 22.925600000000003;stroke-width: 2.0001px"/>
  </g>
  <g id="text">
    <path d="M9.14,99.22a.88.88,0,0,0,.11.4,1,1,0,0,0,.3.29.92.92,0,0,0,.44.1v9.71a1,1,0,0,0,.12.42.86.86,0,0,0,.31.29,1.06,1.06,0,0,0,.44.11,1.16,1.16,0,0,0,.5-.13,1,1,0,0,0,.34-.33.82.82,0,0,0,.13-.46v-4.86h4.62v4.81a.8.8,0,0,0,.25.58.93.93,0,0,0,.62.22h.85a1.21,1.21,0,0,0,.46-.12,1.06,1.06,0,0,0,.37-.33.84.84,0,0,0,0-.88.81.81,0,0,0-.3-.28.9.9,0,0,0-.44-.11V98.94a.73.73,0,0,0-.12-.41.78.78,0,0,0-.31-.29.82.82,0,0,0-.44-.11,1.06,1.06,0,0,0-.5.12,1,1,0,0,0-.34.34,1,1,0,0,0-.13.46v4H11.83V99.1a.81.81,0,0,0-.24-.58A.88.88,0,0,0,11,98.3h-.85a.93.93,0,0,0-.46.12,1,1,0,0,0-.36.32A.88.88,0,0,0,9.14,99.22Z" transform="translate(0 0)" style="fill: #fff"/>
    <path d="M22.76,104.26a6,6,0,0,1,.24-1.74,4.28,4.28,0,0,1,.67-1.39,3.13,3.13,0,0,1,1-.93,2.85,2.85,0,0,1,2.72,0,3.34,3.34,0,0,1,1.07,1,4.69,4.69,0,0,1,.69,1.44,6.33,6.33,0,0,1,.24,1.78,6.12,6.12,0,0,1-.23,1.75,4.66,4.66,0,0,1-.67,1.4,3.16,3.16,0,0,1-1,.93,2.64,2.64,0,0,1-1.34.34,2.8,2.8,0,0,1-1.38-.35,3.52,3.52,0,0,1-1.07-1A5.34,5.34,0,0,1,23,106a6.33,6.33,0,0,1-.24-1.78Zm-1.84.12a8.22,8.22,0,0,0,.24,2,6.5,6.5,0,0,0,.68,1.69,5.17,5.17,0,0,0,1.07,1.33,4.8,4.8,0,0,0,1.42.87,4.91,4.91,0,0,0,3.46,0,4.83,4.83,0,0,0,1.45-.9A5.22,5.22,0,0,0,30.33,108a6.73,6.73,0,0,0,.69-1.72,7.9,7.9,0,0,0,.24-2,8.2,8.2,0,0,0-.23-2,6.87,6.87,0,0,0-.68-1.69,5.37,5.37,0,0,0-1.08-1.32,4.63,4.63,0,0,0-3.13-1.17,4.78,4.78,0,0,0-1.75.32,4.85,4.85,0,0,0-1.44.88,5.57,5.57,0,0,0-1.09,1.36,6.08,6.08,0,0,0-.69,1.72A8.37,8.37,0,0,0,20.92,104.38Z" transform="translate(0 0)" style="fill: #fff"/>
    <path d="M36,103.26V100h.77a4.57,4.57,0,0,1,1.17.15,1.91,1.91,0,0,1,.7.38,1.24,1.24,0,0,1,.35.49,1.45,1.45,0,0,1,.09.48,2,2,0,0,1-.11.63,2.12,2.12,0,0,1-.33.56,1.63,1.63,0,0,1-.52.41,1.44,1.44,0,0,1-.67.15Zm0,5.39V105H37.3a2.78,2.78,0,0,1,.75.11,2.17,2.17,0,0,1,.68.34,1.81,1.81,0,0,1,.49.57,1.73,1.73,0,0,1,.18.81,1.75,1.75,0,0,1-.15.76,1.58,1.58,0,0,1-.39.52,2.4,2.4,0,0,1-.55.34,2.64,2.64,0,0,1-.61.17,4,4,0,0,1-.57.05Zm-2.68-9.43a.8.8,0,0,0,.11.4.74.74,0,0,0,.3.28.87.87,0,0,0,.44.11v9.56a.75.75,0,0,0,.24.58,1,1,0,0,0,.62.22h2a5.37,5.37,0,0,0,1.71-.28,4,4,0,0,0,1.33-.77,3.38,3.38,0,0,0,.87-1.16,3.49,3.49,0,0,0,.31-1.45,3.36,3.36,0,0,0-.18-1.11,3.24,3.24,0,0,0-.51-.93,3.72,3.72,0,0,0-.77-.71,3.61,3.61,0,0,0,.59-.76,4.14,4.14,0,0,0,.37-.87,3.65,3.65,0,0,0,.13-.92,3,3,0,0,0-.14-.88,2.91,2.91,0,0,0-.43-.84,2.78,2.78,0,0,0-.77-.71,3.92,3.92,0,0,0-1.15-.5,6,6,0,0,0-1.56-.18H34.24a1,1,0,0,0-.47.12,1.22,1.22,0,0,0-.36.32A.87.87,0,0,0,33.27,99.22Z" transform="translate(0 0)" style="fill: #fff"/>
    <path d="M44.66,104.26a6.42,6.42,0,0,1,.23-1.74,4.49,4.49,0,0,1,.67-1.39,3.16,3.16,0,0,1,1-.93,2.75,2.75,0,0,1,1.34-.34,2.8,2.8,0,0,1,1.38.35,3.45,3.45,0,0,1,1.07,1,4.93,4.93,0,0,1,.69,1.44,6.33,6.33,0,0,1,.24,1.78,6.12,6.12,0,0,1-.24,1.75,4.43,4.43,0,0,1-.67,1.4,3.13,3.13,0,0,1-1,.93,2.64,2.64,0,0,1-1.34.34,2.77,2.77,0,0,1-1.38-.35,3.4,3.4,0,0,1-1.07-1A4.8,4.8,0,0,1,44.9,106a6.33,6.33,0,0,1-.24-1.78Zm-1.84.12a7.74,7.74,0,0,0,.24,2,6.17,6.17,0,0,0,.68,1.69,5.17,5.17,0,0,0,1.07,1.33,4.88,4.88,0,0,0,1.41.87,5.05,5.05,0,0,0,1.72.31,5,5,0,0,0,1.75-.32,4.79,4.79,0,0,0,1.44-.9A5.22,5.22,0,0,0,52.22,108a6.4,6.4,0,0,0,.7-1.72,8.39,8.39,0,0,0,.24-2,7.72,7.72,0,0,0-.24-2,6.5,6.5,0,0,0-.68-1.69,5.12,5.12,0,0,0-1.07-1.32,4.58,4.58,0,0,0-1.42-.86A4.52,4.52,0,0,0,48,98.13a4.79,4.79,0,0,0-3.2,1.2,5.82,5.82,0,0,0-1.09,1.36,6.73,6.73,0,0,0-.69,1.72A7.88,7.88,0,0,0,42.82,104.38Z" transform="translate(0 0)" style="fill: #fff"/>
    <path d="M54.72,104.38a7.74,7.74,0,0,0,.24,2,6.17,6.17,0,0,0,.68,1.69,5.17,5.17,0,0,0,1.07,1.33,4.88,4.88,0,0,0,1.41.87,5.05,5.05,0,0,0,1.72.31,4.94,4.94,0,0,0,.58,0,4.42,4.42,0,0,0,.88-.21,5.5,5.5,0,0,0,1.06-.53,6.2,6.2,0,0,0,1.13-1,1,1,0,0,0,.18-.28.91.91,0,0,0,.06-.32.75.75,0,0,0-.13-.42.84.84,0,0,0-.31-.28,1.07,1.07,0,0,0-.43-.09,1.09,1.09,0,0,0-.4.07,1,1,0,0,0-.34.25c-.1.11-.22.22-.36.35a3.64,3.64,0,0,1-.49.36,2.43,2.43,0,0,1-.61.28,2.36,2.36,0,0,1-.72.11,2.77,2.77,0,0,1-1.38-.35,3.4,3.4,0,0,1-1.07-1A4.8,4.8,0,0,1,56.8,106a6.33,6.33,0,0,1-.24-1.78,6.15,6.15,0,0,1,.23-1.71,4,4,0,0,1,.66-1.34,3,3,0,0,1,1-.88,3,3,0,0,1,1.35-.32h1.22a.74.74,0,0,0,.12.42.86.86,0,0,0,.31.29,1,1,0,0,0,.94,0,.9.9,0,0,0,.34-.33,1,1,0,0,0,.13-.46V99.1a.78.78,0,0,0-.25-.58A.84.84,0,0,0,62,98.3H59.94a5,5,0,0,0-1.75.3,4.69,4.69,0,0,0-1.45.85,5.36,5.36,0,0,0-1.09,1.31,6.38,6.38,0,0,0-.69,1.67A7.66,7.66,0,0,0,54.72,104.38Z" transform="translate(0 0)" style="fill: #fff"/>
    <path d="M64.19,100a.74.74,0,0,0,.12.42.79.79,0,0,0,.31.29.9.9,0,0,0,.44.11,1,1,0,0,0,.47-.11,1.1,1.1,0,0,0,.34-.3A.85.85,0,0,0,66,100h1.57v9.56a.75.75,0,0,0,.24.58,1,1,0,0,0,.63.22h.85a1.25,1.25,0,0,0,.46-.12,1,1,0,0,0,.36-.33.84.84,0,0,0,.14-.47.74.74,0,0,0-.11-.41.81.81,0,0,0-.3-.28.86.86,0,0,0-.43-.11V100h2.94a1,1,0,0,0,.46-.12.93.93,0,0,0,.36-.32,1,1,0,0,0,.15-.47.82.82,0,0,0-.12-.41.87.87,0,0,0-.31-.29.89.89,0,0,0-.44-.1H65.16a.95.95,0,0,0-.84.46.82.82,0,0,0-.13.46Z" transform="translate(0 0)" style="fill: #fff"/>
    <path d="M77.57,104v-4h1.15a2.26,2.26,0,0,1,.79.15,1.93,1.93,0,0,1,.66.43,1.78,1.78,0,0,1,.46.67,2.23,2.23,0,0,1,.17.88,2.3,2.3,0,0,1-.14.79,2,2,0,0,1-.39.65,1.93,1.93,0,0,1-.61.45,2,2,0,0,1-.78.17,5.24,5.24,0,0,1-.77-.06,4.63,4.63,0,0,1-.54-.11Zm-2.69-4.81a.8.8,0,0,0,.11.4.89.89,0,0,0,.3.28.93.93,0,0,0,.44.11v9.56a.8.8,0,0,0,.25.58.93.93,0,0,0,.62.22h.85a1.21,1.21,0,0,0,.46-.12,1,1,0,0,0,.36-.33.78.78,0,0,0,.15-.47.84.84,0,0,0-.11-.41,1,1,0,0,0-.3-.28.93.93,0,0,0-.44-.11v-2.84l.52.07.42,0h.26a3.86,3.86,0,0,0,2.72-1.1,4.07,4.07,0,0,0,.84-1.23,3.88,3.88,0,0,0,.3-1.54,3.58,3.58,0,0,0-.31-1.53,3.45,3.45,0,0,0-.83-1.18,3.59,3.59,0,0,0-1.22-.76,3.84,3.84,0,0,0-1.44-.27h-3a1,1,0,0,0-.46.12,1,1,0,0,0-.36.32A.81.81,0,0,0,74.88,99.22Z" transform="translate(0 0)" style="fill: #fff"/>
    <path d="M85.83,104.26a6,6,0,0,1,.24-1.74,4.28,4.28,0,0,1,.67-1.39,3.13,3.13,0,0,1,1-.93,2.85,2.85,0,0,1,2.72,0,3.34,3.34,0,0,1,1.07,1,4.69,4.69,0,0,1,.69,1.44,6.33,6.33,0,0,1,.24,1.78,6.5,6.5,0,0,1-.23,1.75,4.66,4.66,0,0,1-.67,1.4,3.16,3.16,0,0,1-1,.93,2.64,2.64,0,0,1-1.34.34,2.8,2.8,0,0,1-1.38-.35,3.52,3.52,0,0,1-1.07-1,4.8,4.8,0,0,1-.69-1.44,6.33,6.33,0,0,1-.24-1.78Zm-1.84.12a8.22,8.22,0,0,0,.24,2,6.5,6.5,0,0,0,.68,1.69A5.17,5.17,0,0,0,86,109.36a4.8,4.8,0,0,0,1.42.87,4.91,4.91,0,0,0,3.46,0,4.83,4.83,0,0,0,1.45-.9A5.44,5.44,0,0,0,93.4,108a6.73,6.73,0,0,0,.69-1.72,7.9,7.9,0,0,0,.24-2,7.72,7.72,0,0,0-.24-2,6.17,6.17,0,0,0-.68-1.69,5.12,5.12,0,0,0-1.07-1.32,4.63,4.63,0,0,0-3.13-1.17,4.78,4.78,0,0,0-1.75.32,4.73,4.73,0,0,0-1.44.88,5.57,5.57,0,0,0-1.09,1.36,6.4,6.4,0,0,0-.7,1.72A8.93,8.93,0,0,0,84,104.38Z" transform="translate(0 0)" style="fill: #fff"/>
    <path d="M98.27,95.66a.81.81,0,0,0,.06.31.8.8,0,0,0,.18.27,3.68,3.68,0,0,0,.86.62,4.59,4.59,0,0,0,1,.38,4.55,4.55,0,0,0,1,.12,4.28,4.28,0,0,0,1.16-.15,4.8,4.8,0,0,0,1-.41,3.79,3.79,0,0,0,.77-.58,1,1,0,0,0,.21-.3.73.73,0,0,0,.08-.33.83.83,0,0,0-.13-.42,1,1,0,0,0-.33-.29.91.91,0,0,0-.43-.1.84.84,0,0,0-.4.09,2.3,2.3,0,0,0-.33.21,3.35,3.35,0,0,1-.34.26,1.57,1.57,0,0,1-.45.21,2.43,2.43,0,0,1-.67.1,2.59,2.59,0,0,1-.83-.14,2.2,2.2,0,0,1-.55-.31l-.43-.3a.9.9,0,0,0-.47-.14,1,1,0,0,0-.5.13.9.9,0,0,0-.34.33.94.94,0,0,0-.13.44Zm-2,3.56a.72.72,0,0,0,.12.4.81.81,0,0,0,.3.28.94.94,0,0,0,.45.11h.15v9.71a.79.79,0,0,0,.12.42.86.86,0,0,0,.31.29,1.06,1.06,0,0,0,.44.11,1.16,1.16,0,0,0,.5-.13,1.07,1.07,0,0,0,.34-.33.91.91,0,0,0,.13-.46v-.54l4.62-6.24v6.73a.8.8,0,0,0,.25.58.93.93,0,0,0,.62.22h.85a1.21,1.21,0,0,0,.46-.12,1,1,0,0,0,.36-.33.81.81,0,0,0,0-.88,1,1,0,0,0-.3-.28.93.93,0,0,0-.44-.11V98.94a.82.82,0,0,0-.12-.41.78.78,0,0,0-.31-.29.82.82,0,0,0-.44-.11,1,1,0,0,0-.5.12.92.92,0,0,0-.34.34.91.91,0,0,0-.13.46v.86l-4.62,6.24V99.1a.78.78,0,0,0-.25-.58.84.84,0,0,0-.62-.22h-1a1,1,0,0,0-.46.12,1,1,0,0,0-.36.32A.81.81,0,0,0,96.3,99.22Z" transform="translate(0 0)" style="fill: #fff"/>
    <path d="M108.68,99.22a.77.77,0,0,0,.11.4.74.74,0,0,0,.3.28.8.8,0,0,0,.44.11v9.71a.81.81,0,0,0,.43.71,1,1,0,0,0,.44.11,1,1,0,0,0,.84-.46.9.9,0,0,0,.12-.46v-4.86h.6l4.2,5.28a.72.72,0,0,0,.3.25,1,1,0,0,0,.39.08h.86a1.25,1.25,0,0,0,.46-.12,1,1,0,0,0,.36-.33.84.84,0,0,0,.14-.47.77.77,0,0,0-.11-.4.86.86,0,0,0-.31-.29.93.93,0,0,0-.44-.11h-.41l-3.79-4.76,3.86-4.37a.78.78,0,0,0,.16-.28.73.73,0,0,0,.06-.3.78.78,0,0,0-.13-.43.89.89,0,0,0-.74-.38,1.06,1.06,0,0,0-.75.34l-4,4.57h-.7V99.1a.74.74,0,0,0-.24-.58.86.86,0,0,0-.62-.22h-.85a.93.93,0,0,0-.46.12,1.14,1.14,0,0,0-.37.32A.87.87,0,0,0,108.68,99.22Z" transform="translate(0 0)" style="fill: #fff"/>
    <path d="M120.29,99.22a.8.8,0,0,0,.11.4.84.84,0,0,0,.31.28.94.94,0,0,0,.45.11h.15v9.71a.81.81,0,0,0,.43.71,1,1,0,0,0,.44.11,1.16,1.16,0,0,0,.5-.13,1.07,1.07,0,0,0,.34-.33,1,1,0,0,0,.13-.46v-.54l4.62-6.24v6.73a.75.75,0,0,0,.24.58,1,1,0,0,0,.63.22h.85a1.25,1.25,0,0,0,.46-.12,1,1,0,0,0,.36-.33.84.84,0,0,0,.14-.47.74.74,0,0,0-.11-.41.81.81,0,0,0-.3-.28.87.87,0,0,0-.44-.11V98.94a.76.76,0,0,0-.43-.7.79.79,0,0,0-.43-.11,1,1,0,0,0-.5.12.92.92,0,0,0-.34.34.82.82,0,0,0-.13.46v.86l-4.62,6.24V99.1a.78.78,0,0,0-.25-.58.84.84,0,0,0-.62-.22h-1a.93.93,0,0,0-.46.12,1.14,1.14,0,0,0-.37.32A.87.87,0,0,0,120.29,99.22Z" transform="translate(0 0)" style="fill: #fff"/>
  </g>
  <g id="icons">
    <g>
      <polygon points="84.36 16.96 71.79 8.39 71.79 14.22 84.9 21.84 84.36 16.96" style="fill: #ddd;fill-rule: evenodd"/>
      <polygon points="85.06 23.43 71.79 16.16 71.79 21.99 85.52 28.11 85.06 23.43" style="fill: #ddd;fill-rule: evenodd"/>
      <polygon points="85.66 29.65 71.79 23.94 71.79 29.77 86.01 34.17 85.66 29.65" style="fill: #ddd;fill-rule: evenodd"/>
      <polygon points="86.11 35.65 71.79 31.71 71.79 37.54 86.34 40.04 86.11 35.65" style="fill: #ddd;fill-rule: evenodd"/>
      <polygon points="86.43 42.93 71.79 41.43 71.79 47.26 86.48 47.23 86.43 42.93" style="fill: #ddd;fill-rule: evenodd"/>
      <polygon points="86.47 48.66 71.79 49.2 71.79 55.04 86.37 52.96 86.47 48.66" style="fill: #ddd;fill-rule: evenodd"/>
      <polygon points="86.31 54.4 71.79 56.98 71.79 62.81 86.08 58.76 86.31 54.4" style="fill: #ddd;fill-rule: evenodd"/>
      <polygon points="85.87 61.7 71.79 66.7 71.79 72.53 85.5 66.2 85.87 61.7" style="fill: #ddd;fill-rule: evenodd"/>
      <polygon points="85.36 67.72 71.79 74.47 71.79 80.3 84.91 72.35 85.36 67.72" style="fill: #ddd;fill-rule: evenodd"/>
      <polygon points="84.75 73.92 71.79 82.25 71.79 88.08 84.25 78.72 84.75 73.92" style="fill: #ddd;fill-rule: evenodd"/>
    </g>
    <g>
      <path d="M96.06,30.57l-.15-1.2-8.74-4.79.15,1.5c.05.5.1,1,.14,1.49l8.73,4.19C96.15,31.36,96.1,31,96.06,30.57Z" transform="translate(0 0)" style="fill: #ddd;fill-rule: evenodd"/>
      <path d="M96.44,34.09,87.72,30.5l.12,1.44c0,.48.07,1,.1,1.43l8.7,3-.09-1.13C96.51,34.85,96.48,34.47,96.44,34.09Z" transform="translate(0 0)" style="fill: #ddd;fill-rule: evenodd"/>
      <path d="M96.81,38.59,88.13,36.2c0,.47.05.94.08,1.4s0,.93.07,1.4l8.66,1.78-.06-1.09C96.86,39.33,96.84,39,96.81,38.59Z" transform="translate(0 0)" style="fill: #ddd;fill-rule: evenodd"/>
      <path d="M97.06,44l-8.64-.89,0,1.37c0,.46,0,.91,0,1.37l8.63.28c0-.35,0-.71,0-1.06S97.07,44.37,97.06,44Z" transform="translate(0 0)" style="fill: #ddd;fill-rule: evenodd"/>
      <path d="M97.09,48.27l-8.63.32c0,.45,0,.91,0,1.36l0,1.36L97,50.39l0-1.06C97.08,49,97.08,48.62,97.09,48.27Z" transform="translate(0 0)" style="fill: #ddd;fill-rule: evenodd"/>
      <path d="M88.25,55.42c0,.46,0,.92-.07,1.38l8.65-2.14c0-.36,0-.72.07-1.08s0-.71,0-1.06l-8.63,1.53C88.3,54.51,88.28,55,88.25,55.42Z" transform="translate(0 0)" style="fill: #ddd;fill-rule: evenodd"/>
      <path d="M96.67,56.82,88,59.58,87.92,61c0,.47-.07.94-.11,1.41L96.48,59c0-.36.07-.73.1-1.09S96.65,57.18,96.67,56.82Z" transform="translate(0 0)" style="fill: #ddd;fill-rule: evenodd"/>
      <path d="M96.26,61.23l-8.68,4c0,.48-.09,1-.13,1.44s-.09,1-.13,1.45L96,63.49c0-.38.09-.76.14-1.13Z" transform="translate(0 0)" style="fill: #ddd;fill-rule: evenodd"/>
      <path d="M95.71,65.81,87,71.07l-.15,1.49-.15,1.5,8.66-5.88c.06-.4.11-.79.17-1.19Z" transform="translate(0 0)" style="fill: #ddd;fill-rule: evenodd"/>
    </g>
    <path d="M105.7,37.11l-7.29-3.25A135.84,135.84,0,0,1,98,63.42l7.45-4.24A130.11,130.11,0,0,0,105.7,37.11Z" transform="translate(0 0)" style="fill: #d8d8d8;fill-rule: evenodd"/>
    <g>
      <polygon points="71.79 8.39 54.5 18.7 54 23.27 71.79 14.22 71.79 8.39" style="fill: #fff;fill-rule: evenodd"/>
      <polygon points="71.79 16.16 53.85 24.77 53.43 29.2 71.79 21.99 71.79 16.16" style="fill: #fff;fill-rule: evenodd"/>
      <polygon points="71.79 23.94 53.3 30.66 52.98 34.97 71.79 29.77 71.79 23.94" style="fill: #fff;fill-rule: evenodd"/>
      <polygon points="71.79 31.71 52.9 36.38 52.69 40.6 71.79 37.54 71.79 31.71" style="fill: #fff;fill-rule: evenodd"/>
      <polygon points="71.79 41.43 52.6 43.38 52.56 47.54 71.79 47.26 71.79 41.43" style="fill: #fff;fill-rule: evenodd"/>
      <polygon points="71.79 49.2 52.58 48.92 52.68 53.09 71.79 55.04 71.79 49.2" style="fill: #fff;fill-rule: evenodd"/>
      <polygon points="71.79 56.98 52.73 54.48 52.97 58.7 71.79 62.81 71.79 56.98" style="fill: #fff;fill-rule: evenodd"/>
      <polygon points="71.79 66.7 53.16 61.55 53.52 65.89 71.79 72.53 71.79 66.7" style="fill: #fff;fill-rule: evenodd"/>
      <polygon points="71.79 74.47 53.65 67.35 54.08 71.8 71.79 80.3 71.79 74.47" style="fill: #fff;fill-rule: evenodd"/>
      <polygon points="71.79 82.25 54.23 73.31 54.71 77.89 71.79 88.08 71.79 82.25" style="fill: #fff;fill-rule: evenodd"/>
    </g>
    <g>
      <polygon points="51.75 25.78 41.65 30.63 41.4 32.87 51.49 28.61 51.75 25.78" style="fill: #f7f7f7;fill-rule: evenodd"/>
      <polygon points="51.25 31.4 41.18 35.07 41 37.23 51.05 34.16 51.25 31.4" style="fill: #f7f7f7;fill-rule: evenodd"/>
      <polygon points="50.88 36.88 40.85 39.36 40.74 41.47 50.74 39.58 50.88 36.88" style="fill: #f7f7f7;fill-rule: evenodd"/>
      <polygon points="50.62 43.59 40.64 44.6 40.62 46.68 50.58 46.24 50.62 43.59" style="fill: #f7f7f7;fill-rule: evenodd"/>
      <polygon points="50.59 48.9 40.63 48.75 40.69 50.83 50.64 51.55 50.59 48.9" style="fill: #f7f7f7;fill-rule: evenodd"/>
      <polygon points="50.74 54.22 40.78 52.92 40.9 55.03 50.87 56.91 50.74 54.22" style="fill: #f7f7f7;fill-rule: evenodd"/>
      <polygon points="51.04 59.62 41.06 57.16 41.26 59.31 51.23 62.36 51.04 59.62" style="fill: #f7f7f7;fill-rule: evenodd"/>
      <polygon points="51.46 65.14 41.48 61.51 41.74 63.74 51.71 67.95 51.46 65.14" style="fill: #f7f7f7;fill-rule: evenodd"/>
      <polygon points="51.99 70.8 42.02 66.02 42.34 68.34 52.28 73.69 51.99 70.8" style="fill: #f7f7f7;fill-rule: evenodd"/>
    </g>
    <path d="M33.61,59.48l5.91,2.32a129.91,129.91,0,0,1-.48-25l-5.81,1.94A128.76,128.76,0,0,0,33.61,59.48Z" transform="translate(0 0)" style="fill: #e8e8e8;fill-rule: evenodd"/>
  </g>
</svg>
