<?xml version="1.0" encoding="utf-8"?>
<!-- Generator: Adobe Illustrator 16.2.0, SVG Export Plug-In . SVG Version: 6.00 Build 0)  -->
<!DOCTYPE svg PUBLIC "-//W3C//DTD SVG 1.1//EN" "http://www.w3.org/Graphics/SVG/1.1/DTD/svg11.dtd">
<svg version="1.1" xmlns="http://www.w3.org/2000/svg" xmlns:xlink="http://www.w3.org/1999/xlink" x="0px" y="0px" width="138px"
	 height="123px" viewBox="0 0 138 123" enable-background="new 0 0 138 123" xml:space="preserve">
<g id="fon">
	<path fill-rule="evenodd" clip-rule="evenodd" fill="#FFFFFF" stroke="#919191" stroke-width="2" stroke-miterlimit="22.9256" d="
		M9.249,1H128.75C133.288,1,137,4.712,137,9.249v104.778c0,4.537-3.712,8.249-8.249,8.249H9.249c-4.537,0-8.249-3.712-8.249-8.249
		V9.249C1,4.712,4.712,1,9.249,1z"/>
</g>
<g id="text">
	<path d="M9.143,99.215c0.003,0.15,0.04,0.283,0.111,0.402c0.074,0.122,0.173,0.216,0.3,0.289c0.128,0.071,0.275,0.104,0.439,0.107
		v9.707c0.002,0.153,0.042,0.292,0.119,0.417c0.077,0.121,0.182,0.218,0.312,0.289c0.13,0.07,0.275,0.107,0.437,0.11
		c0.189-0.003,0.354-0.046,0.501-0.128c0.145-0.085,0.258-0.195,0.34-0.334c0.085-0.139,0.125-0.289,0.128-0.456v-4.862h4.624v4.812
		c0.006,0.24,0.085,0.433,0.244,0.577c0.156,0.145,0.365,0.219,0.623,0.222h0.85c0.161-0.003,0.317-0.043,0.462-0.122
		c0.147-0.079,0.269-0.188,0.363-0.323c0.093-0.139,0.142-0.297,0.144-0.473c0-0.15-0.037-0.283-0.11-0.405
		c-0.074-0.119-0.173-0.216-0.3-0.286c-0.127-0.071-0.272-0.104-0.439-0.107v-9.707c-0.002-0.156-0.042-0.295-0.119-0.417
		s-0.181-0.218-0.312-0.289c-0.13-0.073-0.275-0.11-0.437-0.11c-0.187,0.003-0.354,0.045-0.501,0.128
		c-0.145,0.085-0.258,0.195-0.34,0.334c-0.083,0.136-0.125,0.289-0.128,0.456v3.995H11.83v-3.944
		c-0.006-0.24-0.085-0.434-0.244-0.578c-0.155-0.144-0.362-0.218-0.623-0.221h-0.85c-0.162,0-0.317,0.043-0.461,0.122
		c-0.147,0.076-0.267,0.187-0.363,0.323C9.194,98.881,9.146,99.037,9.143,99.215z"/>
	<path d="M22.76,104.264c0.003-0.629,0.083-1.21,0.238-1.742s0.379-1,0.668-1.396c0.292-0.396,0.635-0.706,1.037-0.927
		s0.847-0.334,1.337-0.337c0.507,0.003,0.969,0.118,1.382,0.349c0.414,0.227,0.771,0.547,1.068,0.954
		c0.297,0.411,0.527,0.89,0.688,1.437s0.244,1.143,0.244,1.782c0,0.629-0.079,1.21-0.238,1.745c-0.156,0.536-0.38,1.003-0.668,1.402
		c-0.29,0.4-0.635,0.712-1.038,0.933c-0.399,0.224-0.847,0.337-1.337,0.34c-0.507-0.003-0.969-0.121-1.383-0.354
		c-0.414-0.235-0.768-0.559-1.068-0.972c-0.298-0.414-0.527-0.896-0.688-1.442C22.843,105.489,22.763,104.896,22.76,104.264
		L22.76,104.264z M20.924,104.383c0.003,0.688,0.08,1.343,0.238,1.958c0.156,0.617,0.382,1.182,0.677,1.691
		c0.294,0.51,0.651,0.955,1.071,1.326c0.419,0.374,0.893,0.663,1.417,0.867c0.527,0.204,1.096,0.309,1.714,0.312
		c0.632-0.003,1.213-0.11,1.751-0.32c0.536-0.213,1.017-0.51,1.445-0.896c0.428-0.383,0.791-0.836,1.091-1.359
		c0.303-0.521,0.532-1.094,0.691-1.721c0.159-0.626,0.241-1.283,0.241-1.978c0-0.688-0.079-1.343-0.235-1.958
		c-0.159-0.614-0.385-1.176-0.68-1.686c-0.294-0.51-0.651-0.949-1.071-1.323c-0.419-0.371-0.889-0.657-1.416-0.861
		c-0.527-0.204-1.097-0.306-1.714-0.309c-0.629,0.003-1.213,0.11-1.751,0.32c-0.535,0.21-1.017,0.504-1.445,0.887
		c-0.427,0.383-0.791,0.836-1.09,1.354c-0.304,0.521-0.533,1.094-0.691,1.72C21.006,103.032,20.927,103.689,20.924,104.383z"/>
	<path d="M35.952,103.261v-3.247h0.765c0.479,0.003,0.867,0.055,1.173,0.15c0.303,0.097,0.539,0.221,0.703,0.374
		c0.167,0.153,0.281,0.314,0.346,0.487c0.063,0.17,0.094,0.332,0.091,0.484c0,0.21-0.04,0.42-0.113,0.626
		c-0.077,0.204-0.184,0.392-0.326,0.562s-0.315,0.306-0.516,0.408c-0.199,0.102-0.425,0.152-0.677,0.155H35.952L35.952,103.261z
		 M35.952,108.651v-3.673h1.343c0.255,0,0.504,0.037,0.754,0.113c0.246,0.074,0.473,0.188,0.677,0.341
		c0.204,0.149,0.366,0.343,0.49,0.572c0.122,0.229,0.184,0.498,0.187,0.811c-0.003,0.291-0.054,0.541-0.153,0.753
		c-0.097,0.21-0.229,0.386-0.394,0.524c-0.165,0.142-0.349,0.252-0.547,0.334c-0.201,0.08-0.402,0.14-0.609,0.173
		c-0.204,0.034-0.396,0.052-0.575,0.052H35.952L35.952,108.651z M33.266,99.215c0.003,0.147,0.04,0.283,0.11,0.402
		c0.074,0.122,0.173,0.216,0.301,0.286c0.127,0.071,0.274,0.107,0.439,0.11v9.555c0.006,0.24,0.085,0.433,0.244,0.577
		c0.156,0.145,0.366,0.219,0.624,0.222h2.04c0.624-0.003,1.193-0.097,1.706-0.281c0.516-0.181,0.958-0.438,1.334-0.771
		c0.374-0.328,0.663-0.714,0.867-1.158c0.204-0.442,0.306-0.924,0.309-1.445c-0.003-0.396-0.063-0.768-0.181-1.11
		c-0.122-0.343-0.289-0.651-0.507-0.93c-0.221-0.277-0.476-0.516-0.773-0.714c0.232-0.229,0.431-0.481,0.592-0.76
		c0.161-0.277,0.283-0.569,0.368-0.872c0.085-0.304,0.127-0.609,0.127-0.918c0-0.292-0.042-0.584-0.136-0.879
		c-0.09-0.295-0.235-0.575-0.43-0.841c-0.199-0.267-0.454-0.505-0.771-0.711c-0.314-0.21-0.697-0.375-1.145-0.496
		c-0.448-0.119-0.969-0.182-1.564-0.185h-2.584c-0.162,0-0.314,0.043-0.462,0.122c-0.147,0.076-0.266,0.187-0.363,0.323
		C33.317,98.881,33.269,99.037,33.266,99.215z"/>
	<path d="M44.656,104.264c0.003-0.629,0.083-1.21,0.238-1.742s0.379-1,0.668-1.396c0.292-0.396,0.635-0.706,1.037-0.927
		s0.847-0.334,1.337-0.337c0.507,0.003,0.969,0.118,1.382,0.349c0.414,0.227,0.771,0.547,1.068,0.954
		c0.297,0.411,0.527,0.89,0.688,1.437s0.244,1.143,0.244,1.782c0,0.629-0.079,1.21-0.238,1.745c-0.156,0.536-0.38,1.003-0.669,1.402
		c-0.289,0.4-0.634,0.712-1.037,0.933c-0.399,0.224-0.847,0.337-1.337,0.34c-0.507-0.003-0.969-0.121-1.383-0.354
		c-0.414-0.235-0.768-0.559-1.068-0.972c-0.298-0.414-0.527-0.896-0.689-1.442C44.739,105.489,44.659,104.896,44.656,104.264
		L44.656,104.264z M42.82,104.383c0.003,0.688,0.08,1.343,0.238,1.958c0.156,0.617,0.382,1.182,0.677,1.691
		c0.294,0.51,0.651,0.955,1.071,1.326c0.419,0.374,0.892,0.663,1.417,0.867c0.527,0.204,1.097,0.309,1.714,0.312
		c0.632-0.003,1.212-0.11,1.751-0.32c0.536-0.213,1.017-0.51,1.445-0.896c0.428-0.383,0.791-0.836,1.091-1.359
		c0.303-0.521,0.533-1.094,0.691-1.721c0.159-0.626,0.241-1.283,0.241-1.978c0-0.688-0.079-1.343-0.235-1.958
		c-0.159-0.614-0.386-1.176-0.68-1.686c-0.295-0.51-0.652-0.949-1.071-1.323c-0.419-0.371-0.889-0.657-1.417-0.861
		c-0.527-0.204-1.096-0.306-1.714-0.309c-0.629,0.003-1.213,0.11-1.751,0.32c-0.535,0.21-1.017,0.504-1.445,0.887
		s-0.791,0.836-1.091,1.354c-0.303,0.521-0.532,1.094-0.691,1.72C42.903,103.032,42.823,103.689,42.82,104.383z"/>
	<path d="M54.72,104.383c0.003,0.688,0.08,1.343,0.238,1.958c0.156,0.617,0.382,1.182,0.677,1.691
		c0.295,0.51,0.652,0.955,1.071,1.326c0.419,0.374,0.892,0.663,1.417,0.867c0.527,0.204,1.097,0.309,1.714,0.312
		c0.139,0.003,0.334-0.009,0.586-0.04c0.255-0.031,0.547-0.102,0.878-0.212c0.332-0.114,0.683-0.289,1.057-0.53
		s0.75-0.569,1.133-0.986c0.077-0.084,0.136-0.181,0.176-0.283c0.042-0.104,0.062-0.207,0.062-0.312
		c-0.003-0.164-0.045-0.306-0.127-0.425c-0.083-0.119-0.187-0.213-0.318-0.277c-0.133-0.063-0.272-0.097-0.422-0.097
		c-0.139,0-0.272,0.025-0.4,0.079c-0.13,0.051-0.246,0.133-0.348,0.244c-0.099,0.107-0.218,0.227-0.36,0.352
		c-0.142,0.127-0.303,0.246-0.487,0.359c-0.181,0.116-0.385,0.207-0.606,0.28c-0.221,0.073-0.462,0.11-0.722,0.113
		c-0.507-0.003-0.969-0.121-1.383-0.354c-0.414-0.235-0.771-0.559-1.068-0.972c-0.297-0.414-0.527-0.896-0.688-1.442
		s-0.241-1.14-0.244-1.771c0.003-0.623,0.08-1.192,0.232-1.711s0.374-0.967,0.663-1.346c0.286-0.377,0.632-0.672,1.034-0.879
		c0.402-0.206,0.853-0.312,1.352-0.314h1.224c0.002,0.153,0.042,0.292,0.119,0.417c0.076,0.122,0.181,0.218,0.312,0.289
		c0.13,0.07,0.275,0.107,0.437,0.11c0.19-0.003,0.354-0.045,0.501-0.128c0.145-0.085,0.258-0.195,0.34-0.334
		c0.085-0.139,0.125-0.289,0.128-0.456v-0.816c-0.006-0.24-0.085-0.434-0.244-0.578c-0.156-0.144-0.365-0.218-0.623-0.221h-2.091
		c-0.632,0.003-1.213,0.102-1.751,0.304c-0.535,0.198-1.017,0.481-1.445,0.85c-0.428,0.365-0.791,0.802-1.091,1.307
		c-0.303,0.504-0.533,1.062-0.691,1.674S54.723,103.695,54.72,104.383z"/>
	<path d="M64.189,100.014c0.003,0.153,0.042,0.292,0.119,0.414c0.077,0.125,0.181,0.221,0.312,0.292
		c0.13,0.07,0.274,0.107,0.436,0.11c0.179-0.003,0.334-0.04,0.473-0.113c0.142-0.074,0.252-0.173,0.34-0.295
		c0.085-0.125,0.138-0.261,0.155-0.408h1.564v9.555c0.005,0.24,0.085,0.433,0.243,0.577c0.156,0.145,0.366,0.219,0.624,0.222h0.85
		c0.162-0.003,0.317-0.043,0.462-0.122c0.147-0.079,0.269-0.188,0.363-0.323c0.093-0.139,0.141-0.297,0.144-0.473
		c0-0.15-0.04-0.283-0.11-0.405c-0.073-0.119-0.173-0.216-0.3-0.286c-0.127-0.071-0.275-0.104-0.439-0.107v-8.637h2.941
		c0.162-0.003,0.317-0.042,0.462-0.122c0.147-0.079,0.269-0.187,0.363-0.322c0.093-0.139,0.141-0.298,0.144-0.474
		c-0.003-0.149-0.04-0.283-0.116-0.405c-0.074-0.119-0.176-0.215-0.306-0.286c-0.13-0.07-0.278-0.104-0.445-0.107h-7.31
		c-0.184,0.003-0.349,0.046-0.493,0.127c-0.145,0.086-0.261,0.196-0.346,0.335c-0.085,0.136-0.127,0.289-0.13,0.456V100.014z"/>
	<path d="M77.568,104.027v-4.013h1.156c0.278,0,0.541,0.052,0.791,0.147c0.249,0.1,0.467,0.238,0.66,0.425
		c0.192,0.185,0.346,0.408,0.456,0.669s0.165,0.556,0.167,0.884c0,0.278-0.048,0.541-0.139,0.788
		c-0.094,0.246-0.224,0.465-0.394,0.654c-0.17,0.19-0.375,0.34-0.606,0.447c-0.235,0.111-0.496,0.165-0.782,0.168
		c-0.303-0.003-0.558-0.021-0.768-0.055C77.897,104.109,77.718,104.072,77.568,104.027L77.568,104.027z M74.882,99.215
		c0.003,0.147,0.04,0.283,0.11,0.402c0.074,0.122,0.173,0.216,0.301,0.286c0.127,0.071,0.274,0.107,0.439,0.11v9.555
		c0.006,0.24,0.085,0.433,0.244,0.577c0.156,0.145,0.366,0.219,0.624,0.222h0.85c0.161-0.003,0.317-0.043,0.461-0.122
		c0.147-0.079,0.27-0.188,0.363-0.323c0.094-0.139,0.142-0.297,0.145-0.473c0-0.15-0.04-0.283-0.11-0.405
		c-0.074-0.119-0.173-0.216-0.3-0.286c-0.127-0.071-0.275-0.104-0.439-0.107v-2.84c0.185,0.028,0.357,0.049,0.521,0.065
		c0.165,0.015,0.306,0.022,0.425,0.028c0.122,0.006,0.207,0.009,0.261,0.009c0.527-0.003,1.023-0.1,1.485-0.292
		c0.465-0.192,0.873-0.462,1.229-0.811c0.354-0.349,0.635-0.759,0.836-1.229c0.201-0.47,0.306-0.986,0.309-1.544
		c-0.003-0.564-0.108-1.074-0.312-1.53c-0.201-0.459-0.479-0.853-0.833-1.182c-0.354-0.328-0.759-0.583-1.215-0.759
		c-0.457-0.179-0.938-0.267-1.448-0.27h-2.975c-0.162,0-0.314,0.043-0.462,0.122c-0.147,0.076-0.267,0.187-0.363,0.323
		C74.933,98.881,74.885,99.037,74.882,99.215z"/>
	<path d="M85.83,104.264c0.002-0.629,0.082-1.21,0.238-1.742c0.156-0.532,0.379-1,0.669-1.396c0.292-0.396,0.634-0.706,1.037-0.927
		s0.848-0.334,1.337-0.337c0.507,0.003,0.969,0.118,1.382,0.349c0.414,0.227,0.771,0.547,1.069,0.954
		c0.297,0.411,0.527,0.89,0.688,1.437c0.161,0.547,0.243,1.143,0.243,1.782c0,0.629-0.079,1.21-0.238,1.745
		c-0.156,0.536-0.38,1.003-0.668,1.402c-0.289,0.4-0.635,0.712-1.037,0.933c-0.399,0.224-0.847,0.337-1.337,0.34
		c-0.507-0.003-0.969-0.121-1.383-0.354c-0.414-0.235-0.768-0.559-1.068-0.972c-0.298-0.414-0.527-0.896-0.688-1.442
		C85.912,105.489,85.833,104.896,85.83,104.264L85.83,104.264z M83.994,104.383c0.003,0.688,0.08,1.343,0.238,1.958
		c0.156,0.617,0.382,1.182,0.677,1.691c0.294,0.51,0.652,0.955,1.071,1.326c0.419,0.374,0.893,0.663,1.417,0.867
		c0.527,0.204,1.096,0.309,1.714,0.312c0.632-0.003,1.213-0.11,1.751-0.32c0.536-0.213,1.017-0.51,1.445-0.896
		c0.428-0.383,0.791-0.836,1.091-1.359c0.303-0.521,0.532-1.094,0.691-1.721c0.158-0.626,0.24-1.283,0.24-1.978
		c0-0.688-0.079-1.343-0.235-1.958c-0.159-0.614-0.385-1.176-0.68-1.686c-0.294-0.51-0.651-0.949-1.071-1.323
		c-0.419-0.371-0.89-0.657-1.417-0.861s-1.097-0.306-1.714-0.309c-0.629,0.003-1.212,0.11-1.751,0.32
		c-0.536,0.21-1.017,0.504-1.445,0.887s-0.791,0.836-1.091,1.354c-0.303,0.521-0.533,1.094-0.691,1.72
		C84.076,103.032,83.997,103.689,83.994,104.383z"/>
	<path d="M98.274,95.663c0,0.104,0.017,0.207,0.057,0.309c0.037,0.102,0.096,0.189,0.181,0.27c0.263,0.249,0.55,0.456,0.861,0.623
		c0.314,0.164,0.643,0.289,0.986,0.374c0.343,0.082,0.689,0.125,1.043,0.125c0.414-0.003,0.799-0.055,1.159-0.156
		c0.357-0.102,0.683-0.238,0.975-0.408c0.295-0.173,0.553-0.362,0.773-0.575c0.094-0.093,0.165-0.195,0.215-0.303
		c0.048-0.104,0.074-0.216,0.074-0.326c-0.003-0.161-0.045-0.3-0.13-0.422c-0.085-0.125-0.195-0.219-0.329-0.289
		c-0.133-0.068-0.275-0.104-0.425-0.104c-0.155,0.002-0.292,0.03-0.405,0.09c-0.113,0.057-0.224,0.128-0.326,0.216
		c-0.102,0.085-0.215,0.17-0.34,0.255c-0.125,0.085-0.275,0.159-0.456,0.216c-0.179,0.057-0.399,0.087-0.666,0.09
		c-0.34-0.005-0.618-0.051-0.833-0.139c-0.218-0.088-0.399-0.187-0.546-0.303c-0.15-0.116-0.292-0.216-0.428-0.304
		c-0.136-0.088-0.292-0.133-0.47-0.139c-0.19,0.003-0.354,0.046-0.501,0.128c-0.145,0.082-0.258,0.192-0.34,0.328
		C98.316,95.354,98.276,95.5,98.274,95.663L98.274,95.663z M96.302,99.215c0.002,0.147,0.04,0.283,0.116,0.402
		c0.074,0.122,0.178,0.216,0.306,0.286c0.13,0.071,0.28,0.107,0.444,0.11h0.153v9.707c0.003,0.153,0.042,0.292,0.119,0.417
		c0.076,0.121,0.181,0.218,0.312,0.289c0.13,0.07,0.275,0.107,0.436,0.11c0.19-0.003,0.354-0.046,0.502-0.128
		c0.144-0.085,0.257-0.195,0.34-0.334c0.085-0.139,0.125-0.289,0.127-0.456v-0.544l4.624-6.239v6.732
		c0.005,0.24,0.085,0.433,0.244,0.577c0.156,0.145,0.365,0.219,0.624,0.222h0.85c0.162-0.003,0.317-0.043,0.462-0.122
		c0.147-0.079,0.269-0.188,0.363-0.323c0.094-0.139,0.142-0.297,0.145-0.473c0-0.15-0.037-0.283-0.111-0.405
		c-0.073-0.119-0.173-0.216-0.3-0.286c-0.127-0.071-0.272-0.104-0.439-0.107v-9.707c-0.003-0.156-0.042-0.295-0.119-0.417
		s-0.181-0.218-0.312-0.289c-0.13-0.073-0.275-0.11-0.436-0.11c-0.187,0.003-0.354,0.045-0.502,0.128
		c-0.144,0.085-0.258,0.195-0.34,0.334c-0.082,0.136-0.125,0.289-0.127,0.456v0.867l-4.624,6.239v-7.056
		c-0.006-0.24-0.085-0.434-0.244-0.578c-0.156-0.144-0.363-0.218-0.624-0.221h-1.02c-0.162,0-0.315,0.043-0.462,0.122
		c-0.147,0.076-0.267,0.187-0.363,0.323C96.353,98.881,96.304,99.037,96.302,99.215z"/>
	<path d="M108.678,99.215c0.003,0.15,0.04,0.283,0.11,0.402c0.074,0.122,0.173,0.216,0.301,0.286
		c0.127,0.074,0.274,0.107,0.439,0.11v9.707c0.003,0.153,0.042,0.292,0.119,0.417c0.076,0.121,0.181,0.218,0.312,0.289
		c0.13,0.07,0.275,0.107,0.437,0.11c0.189-0.003,0.354-0.046,0.501-0.128c0.145-0.085,0.257-0.195,0.34-0.334
		c0.085-0.139,0.125-0.289,0.127-0.456v-4.862h0.595l4.199,5.287c0.085,0.11,0.187,0.192,0.303,0.244
		c0.119,0.054,0.25,0.079,0.394,0.079h0.85c0.161-0.003,0.317-0.043,0.461-0.122c0.147-0.079,0.269-0.188,0.363-0.323
		c0.093-0.139,0.142-0.295,0.145-0.473c-0.003-0.15-0.04-0.283-0.116-0.402c-0.074-0.122-0.176-0.216-0.306-0.289
		c-0.13-0.071-0.277-0.104-0.445-0.107h-0.408l-3.791-4.761l3.859-4.368c0.077-0.086,0.133-0.179,0.167-0.278
		c0.037-0.097,0.054-0.198,0.054-0.3c-0.003-0.165-0.045-0.31-0.128-0.431c-0.082-0.122-0.187-0.216-0.317-0.283
		c-0.133-0.068-0.271-0.103-0.422-0.103c-0.139,0-0.272,0.028-0.399,0.088c-0.13,0.057-0.247,0.142-0.349,0.252l-4.012,4.573h-0.697
		v-3.944c-0.006-0.24-0.085-0.434-0.244-0.578c-0.156-0.144-0.363-0.218-0.624-0.221h-0.85c-0.162,0-0.317,0.043-0.462,0.122
		c-0.147,0.076-0.267,0.187-0.363,0.323C108.729,98.881,108.681,99.037,108.678,99.215z"/>
	<path d="M120.289,99.215c0.003,0.147,0.04,0.283,0.116,0.402c0.074,0.122,0.179,0.216,0.306,0.286
		c0.13,0.071,0.28,0.107,0.445,0.11h0.153v9.707c0.002,0.153,0.042,0.292,0.119,0.417c0.077,0.121,0.181,0.218,0.312,0.289
		c0.13,0.07,0.275,0.107,0.437,0.11c0.19-0.003,0.354-0.046,0.501-0.128c0.145-0.085,0.258-0.195,0.34-0.334
		c0.085-0.139,0.125-0.289,0.128-0.456v-0.544l4.624-6.239v6.732c0.006,0.24,0.085,0.433,0.244,0.577
		c0.156,0.145,0.365,0.219,0.623,0.222h0.85c0.161-0.003,0.317-0.043,0.462-0.122c0.147-0.079,0.269-0.188,0.362-0.323
		c0.094-0.139,0.142-0.297,0.145-0.473c0-0.15-0.037-0.283-0.11-0.405c-0.074-0.119-0.173-0.216-0.3-0.286
		c-0.127-0.071-0.272-0.104-0.439-0.107v-9.707c-0.002-0.156-0.042-0.295-0.119-0.417c-0.077-0.122-0.181-0.218-0.312-0.289
		c-0.13-0.073-0.275-0.11-0.437-0.11c-0.187,0.003-0.354,0.045-0.501,0.128c-0.145,0.085-0.258,0.195-0.34,0.334
		c-0.083,0.136-0.125,0.289-0.128,0.456v0.867l-4.624,6.239v-7.056c-0.006-0.24-0.085-0.434-0.244-0.578
		c-0.156-0.144-0.362-0.218-0.623-0.221h-1.02c-0.162,0-0.314,0.043-0.462,0.122c-0.147,0.076-0.266,0.187-0.363,0.323
		C120.34,98.881,120.292,99.037,120.289,99.215z"/>
</g>
<g id="icons">
	<g>
		<polygon fill-rule="evenodd" clip-rule="evenodd" fill="#A6A5A5" points="84.354,16.958 71.786,8.387 71.787,14.218 
			84.896,21.835 		"/>
		<polygon fill-rule="evenodd" clip-rule="evenodd" fill="#A6A5A5" points="85.063,23.429 71.787,16.162 71.787,21.993 
			85.522,28.115 		"/>
		<polygon fill-rule="evenodd" clip-rule="evenodd" fill="#A6A5A5" points="85.658,29.647 71.787,23.936 71.787,29.768 
			86.01,34.166 		"/>
		<polygon fill-rule="evenodd" clip-rule="evenodd" fill="#A6A5A5" points="86.108,35.649 71.787,31.711 71.787,37.542 
			86.337,40.04 		"/>
		<polygon fill-rule="evenodd" clip-rule="evenodd" fill="#A6A5A5" points="86.433,42.93 71.787,41.43 71.787,47.261 86.484,47.232 
					"/>
		<polygon fill-rule="evenodd" clip-rule="evenodd" fill="#A6A5A5" points="86.475,48.663 71.787,49.205 71.787,55.036 
			86.373,52.963 		"/>
		<polygon fill-rule="evenodd" clip-rule="evenodd" fill="#A6A5A5" points="86.315,54.403 71.787,56.979 71.787,62.811 
			86.079,58.76 		"/>
		<polygon fill-rule="evenodd" clip-rule="evenodd" fill="#A6A5A5" points="85.873,61.704 71.787,66.698 71.787,72.529 
			85.501,66.196 		"/>
		<polygon fill-rule="evenodd" clip-rule="evenodd" fill="#A6A5A5" points="85.363,67.716 71.787,74.472 71.787,80.304 
			84.912,72.353 		"/>
		<polygon fill-rule="evenodd" clip-rule="evenodd" fill="#A6A5A5" points="84.751,73.925 71.787,82.248 71.786,88.079 
			84.252,78.716 		"/>
	</g>
	<g>
		<path fill-rule="evenodd" clip-rule="evenodd" fill="#ABAAAA" d="M96.058,30.57c-0.048-0.401-0.097-0.802-0.147-1.204
			l-8.736-4.782c0.05,0.5,0.099,1,0.147,1.499c0.048,0.495,0.095,0.99,0.14,1.485l8.732,4.188
			C96.15,31.361,96.105,30.966,96.058,30.57z"/>
		<path fill-rule="evenodd" clip-rule="evenodd" fill="#ABAAAA" d="M96.439,34.086l-8.72-3.59c0.04,0.481,0.078,0.962,0.116,1.444
			c0.037,0.478,0.072,0.955,0.107,1.433l8.702,2.989c-0.031-0.377-0.064-0.754-0.098-1.131
			C96.512,34.848,96.476,34.467,96.439,34.086z"/>
		<path fill-rule="evenodd" clip-rule="evenodd" fill="#ABAAAA" d="M96.812,38.591l-8.683-2.387
			c0.027,0.467,0.054,0.934,0.079,1.401c0.025,0.464,0.047,0.928,0.069,1.393l8.664,1.786c-0.019-0.364-0.039-0.728-0.06-1.092
			C96.859,39.325,96.835,38.958,96.812,38.591z"/>
		<path fill-rule="evenodd" clip-rule="evenodd" fill="#ABAAAA" d="M97.062,44.019l-8.64-0.885c0.011,0.456,0.02,0.912,0.027,1.368
			c0.007,0.455,0.013,0.91,0.016,1.365l8.629,0.284c-0.002-0.355-0.005-0.71-0.011-1.064C97.078,44.73,97.07,44.375,97.062,44.019z"
			/>
		<path fill-rule="evenodd" clip-rule="evenodd" fill="#ABAAAA" d="M97.086,48.271l-8.626,0.318
			c-0.004,0.454-0.011,0.908-0.02,1.362c-0.008,0.454-0.019,0.909-0.031,1.363l8.628-0.923c0.011-0.353,0.021-0.707,0.029-1.06
			C97.075,48.978,97.082,48.625,97.086,48.271z"/>
		<path fill-rule="evenodd" clip-rule="evenodd" fill="#ABAAAA" d="M88.254,55.421c-0.022,0.46-0.046,0.92-0.071,1.379l8.648-2.145
			c0.023-0.357,0.045-0.714,0.065-1.072c0.021-0.356,0.039-0.711,0.056-1.067l-8.637,1.532
			C88.297,54.506,88.277,54.964,88.254,55.421z"/>
		<path fill-rule="evenodd" clip-rule="evenodd" fill="#ABAAAA" d="M96.675,56.816l-8.662,2.763
			c-0.031,0.467-0.063,0.934-0.097,1.401c-0.034,0.47-0.07,0.939-0.106,1.409l8.674-3.384c0.034-0.366,0.067-0.732,0.1-1.098
			C96.616,57.542,96.646,57.179,96.675,56.816z"/>
		<path fill-rule="evenodd" clip-rule="evenodd" fill="#ABAAAA" d="M96.26,61.228l-8.683,4.01c-0.042,0.48-0.083,0.96-0.127,1.44
			c-0.043,0.484-0.088,0.968-0.133,1.452l8.686-4.635c0.045-0.38,0.09-0.759,0.133-1.139C96.178,61.98,96.219,61.604,96.26,61.228z"
			/>
		<path fill-rule="evenodd" clip-rule="evenodd" fill="#ABAAAA" d="M95.713,65.81l-8.679,5.258
			c-0.049,0.496-0.099,0.991-0.149,1.487c-0.051,0.5-0.102,1-0.153,1.5l8.659-5.873c0.056-0.397,0.111-0.795,0.165-1.193
			C95.609,66.596,95.662,66.203,95.713,65.81z"/>
	</g>
	<path fill-rule="evenodd" clip-rule="evenodd" fill="#C5C4C3" d="M105.695,37.106l-7.284-3.247
		c0.979,10.015,0.767,19.622-0.4,29.562l7.452-4.245C106.15,51.796,106.26,44.516,105.695,37.106z"/>
	<g>
		<polygon fill-rule="evenodd" clip-rule="evenodd" fill="#BC3B3C" points="71.786,8.387 54.496,18.7 54,23.274 71.787,14.218 		"/>
		<polygon fill-rule="evenodd" clip-rule="evenodd" fill="#BC3B3C" points="71.786,16.162 53.846,24.774 53.428,29.204 
			71.787,21.993 		"/>
		<polygon fill-rule="evenodd" clip-rule="evenodd" fill="#BC3B3C" points="71.786,23.937 53.304,30.658 52.983,34.965 
			71.787,29.768 		"/>
		<polygon fill-rule="evenodd" clip-rule="evenodd" fill="#BC3B3C" points="71.786,31.711 52.895,36.383 52.688,40.599 
			71.787,37.542 		"/>
		<polygon fill-rule="evenodd" clip-rule="evenodd" fill="#BC3B3C" points="71.786,41.43 52.604,43.383 52.564,47.541 
			71.787,47.261 		"/>
		<polygon fill-rule="evenodd" clip-rule="evenodd" fill="#BC3B3C" points="71.786,49.205 52.575,48.925 52.679,53.09 
			71.787,55.036 		"/>
		<polygon fill-rule="evenodd" clip-rule="evenodd" fill="#BC3B3C" points="71.786,56.979 52.735,54.485 52.965,58.704 
			71.787,62.811 		"/>
		<polygon fill-rule="evenodd" clip-rule="evenodd" fill="#BC3B3C" points="71.786,66.698 53.163,61.551 53.518,65.885 
			71.787,72.529 		"/>
		<polygon fill-rule="evenodd" clip-rule="evenodd" fill="#BC3B3C" points="71.786,74.473 53.65,67.35 54.081,71.804 71.787,80.304 
					"/>
		<polygon fill-rule="evenodd" clip-rule="evenodd" fill="#BC3B3C" points="71.786,82.248 54.233,73.31 54.708,77.893 
			71.786,88.079 		"/>
	</g>
	<g>
		<polygon fill-rule="evenodd" clip-rule="evenodd" fill="#BC5255" points="51.754,25.778 41.646,30.631 41.396,32.87 51.49,28.611 
					"/>
		<polygon fill-rule="evenodd" clip-rule="evenodd" fill="#BC5255" points="51.254,31.403 41.18,35.067 40.998,37.229 51.05,34.159 
					"/>
		<polygon fill-rule="evenodd" clip-rule="evenodd" fill="#BC5255" points="50.88,36.881 40.851,39.362 40.738,41.471 
			50.745,39.578 		"/>
		<polygon fill-rule="evenodd" clip-rule="evenodd" fill="#BC5255" points="50.615,43.586 40.637,44.602 40.615,46.678 
			50.581,46.243 		"/>
		<polygon fill-rule="evenodd" clip-rule="evenodd" fill="#BC5255" points="50.59,48.896 40.632,48.751 40.687,50.83 50.644,51.554 
					"/>
		<polygon fill-rule="evenodd" clip-rule="evenodd" fill="#BC5255" points="50.738,54.224 40.778,52.92 40.904,55.027 50.87,56.912 
					"/>
		<polygon fill-rule="evenodd" clip-rule="evenodd" fill="#BC5255" points="51.037,59.623 41.063,57.157 41.256,59.315 
			51.235,62.364 		"/>
		<polygon fill-rule="evenodd" clip-rule="evenodd" fill="#BC5255" points="51.462,65.138 41.481,61.508 41.738,63.74 
			51.714,67.949 		"/>
		<polygon fill-rule="evenodd" clip-rule="evenodd" fill="#BC5255" points="51.987,70.799 42.025,66.017 42.343,68.344 
			52.278,73.691 		"/>
	</g>
	<path fill-rule="evenodd" clip-rule="evenodd" fill="#C39090" d="M33.613,59.479l5.902,2.318c-0.916-8.396-1.152-16.4-0.478-24.96
		l-5.804,1.942C32.778,45.798,32.949,52.547,33.613,59.479z"/>
</g>
</svg>
