<svg xmlns="http://www.w3.org/2000/svg" viewBox="0 0 138 123.28">
  <g id="fon">
    <rect x="1" y="1" width="136" height="121.28" rx="8.25" style="fill: #a80000;stroke: #a80000;stroke-miterlimit: 22.925600000000003;stroke-width: 2.0001px"/>
  </g>
  <g id="text">
    <path d="M30.1,99.22a.8.8,0,0,0,.11.4.84.84,0,0,0,.31.28A.93.93,0,0,0,31,100h.28l3.29,6.87-.85,1.77h-.22a.93.93,0,0,0-.46.12,1,1,0,0,0-.36.33.82.82,0,0,0-.15.47.78.78,0,0,0,.12.4.83.83,0,0,0,.3.29,1.11,1.11,0,0,0,.45.11h.85a1,1,0,0,0,.54-.15.93.93,0,0,0,.36-.4l5-10.5a.64.64,0,0,0,.06-.18,1.09,1.09,0,0,0,0-.18.71.71,0,0,0-.13-.43.76.76,0,0,0-.31-.28,1,1,0,0,0-.43-.11,1.06,1.06,0,0,0-.52.16,1,1,0,0,0-.38.41l-2.87,6-2.86-6a.78.78,0,0,0-.32-.35.92.92,0,0,0-.48-.12h-.84a1,1,0,0,0-.47.12,1.11,1.11,0,0,0-.36.32A.87.87,0,0,0,30.1,99.22Z" transform="translate(0 0)" style="fill: #fff"/>
    <path d="M41.13,99.22a.77.77,0,0,0,.11.4.84.84,0,0,0,.3.29.89.89,0,0,0,.44.1v2.06a4.33,4.33,0,0,0,.38,1.89,2.83,2.83,0,0,0,1,1.2,2.94,2.94,0,0,0,1.55.41c.28,0,.57,0,.87,0l.86-.14.77-.18v4.37a.75.75,0,0,0,.24.58,1,1,0,0,0,.62.22h.85a1.31,1.31,0,0,0,.47-.12,1.13,1.13,0,0,0,.36-.33.84.84,0,0,0,.14-.47A.74.74,0,0,0,50,109a.81.81,0,0,0-.3-.28.9.9,0,0,0-.44-.11V98.94a.81.81,0,0,0-.43-.7.79.79,0,0,0-.43-.11,1.07,1.07,0,0,0-.51.12,1.1,1.1,0,0,0-.34.34.9.9,0,0,0-.12.46v4.47c-.15,0-.33.11-.54.16s-.47.09-.77.13-.67,0-1.09,0a1.13,1.13,0,0,1-.61-.18,1.1,1.1,0,0,1-.37-.45,2,2,0,0,1-.19-.61,3.66,3.66,0,0,1-.06-.65V99.1a.74.74,0,0,0-.24-.58A.86.86,0,0,0,43,98.3H42.1a.93.93,0,0,0-.46.12,1.14,1.14,0,0,0-.37.32A.87.87,0,0,0,41.13,99.22Z" transform="translate(0 0)" style="fill: #fff"/>
    <path d="M55.1,105.47l1.53-4.13,1.5,4.13Zm-3.43,4.25a.77.77,0,0,0,.11.4.79.79,0,0,0,.3.3,1.08,1.08,0,0,0,.46.12,1,1,0,0,0,.38-.08,1.21,1.21,0,0,0,.32-.22.84.84,0,0,0,.21-.33l1-2.72h4.29l1,2.65a.71.71,0,0,0,.31.39.93.93,0,0,0,.51.14h.85a1.25,1.25,0,0,0,.46-.12,1,1,0,0,0,.36-.33.84.84,0,0,0,.14-.47.69.69,0,0,0-.11-.4.79.79,0,0,0-.31-.29.93.93,0,0,0-.44-.11h-.22l-3.73-9.83a.76.76,0,0,0-.31-.39,1,1,0,0,0-.5-.13h-.85a.93.93,0,0,0-.46.12,1.14,1.14,0,0,0-.37.32.87.87,0,0,0-.14.48.76.76,0,0,0,.13.44.86.86,0,0,0,.36.29l-3.67,9.46a1.18,1.18,0,0,0,0,.31Z" transform="translate(0 0)" style="fill: #fff"/>
    <path d="M63.55,104.38a7.74,7.74,0,0,0,.24,2,6.5,6.5,0,0,0,.68,1.69,5.17,5.17,0,0,0,1.07,1.33,4.8,4.8,0,0,0,1.42.87,5,5,0,0,0,1.71.31,5.22,5.22,0,0,0,.59,0,4.51,4.51,0,0,0,.87-.21,5.23,5.23,0,0,0,1.06-.53,6.2,6.2,0,0,0,1.13-1,1,1,0,0,0,.18-.28.91.91,0,0,0,.06-.32.68.68,0,0,0-.13-.42.84.84,0,0,0-.31-.28,1.06,1.06,0,0,0-.42-.09,1.14,1.14,0,0,0-.41.07,1,1,0,0,0-.34.25c-.1.11-.22.22-.36.35a3.1,3.1,0,0,1-.49.36,2.43,2.43,0,0,1-.61.28,2.36,2.36,0,0,1-.72.11,2.77,2.77,0,0,1-1.38-.35,3.4,3.4,0,0,1-1.07-1,4.8,4.8,0,0,1-.69-1.44,6.33,6.33,0,0,1-.24-1.78,6.15,6.15,0,0,1,.23-1.71,4,4,0,0,1,.66-1.34,3,3,0,0,1,1-.88,3,3,0,0,1,1.35-.32h1.22a.94.94,0,0,0,.12.42.86.86,0,0,0,.31.29,1,1,0,0,0,.94,0,.83.83,0,0,0,.34-.33.82.82,0,0,0,.13-.46V99.1a.81.81,0,0,0-.24-.58.88.88,0,0,0-.63-.22H68.77a5,5,0,0,0-1.75.3,4.53,4.53,0,0,0-1.44.85,5.18,5.18,0,0,0-1.1,1.31,6.38,6.38,0,0,0-.69,1.67A7.66,7.66,0,0,0,63.55,104.38Z" transform="translate(0 0)" style="fill: #fff"/>
    <path d="M73,100a.74.74,0,0,0,.12.42.86.86,0,0,0,.31.29.93.93,0,0,0,.44.11,1,1,0,0,0,.47-.11,1.1,1.1,0,0,0,.34-.3.86.86,0,0,0,.16-.41h1.56v9.56a.83.83,0,0,0,.24.58,1,1,0,0,0,.63.22h.85a1.21,1.21,0,0,0,.46-.12,1,1,0,0,0,.36-.33.81.81,0,0,0,0-.88,1,1,0,0,0-.3-.28.93.93,0,0,0-.44-.11V100H81.2a1,1,0,0,0,.82-.44.87.87,0,0,0,.15-.47.82.82,0,0,0-.12-.41.84.84,0,0,0-.3-.29,1,1,0,0,0-.45-.1H74a1,1,0,0,0-.49.12,1,1,0,0,0-.35.34.91.91,0,0,0-.13.46Z" transform="translate(0 0)" style="fill: #fff"/>
    <path d="M83.71,99.22a.88.88,0,0,0,.11.4.84.84,0,0,0,.31.28.77.77,0,0,0,.43.11v9.71a1,1,0,0,0,.12.42.86.86,0,0,0,.31.29,1.1,1.1,0,0,0,.44.11,1.12,1.12,0,0,0,.5-.13,1,1,0,0,0,.34-.33.82.82,0,0,0,.13-.46v-4.86H87L91.19,110a.82.82,0,0,0,.31.25,1,1,0,0,0,.39.08h.85a1.21,1.21,0,0,0,.46-.12,1.06,1.06,0,0,0,.37-.33.84.84,0,0,0,.14-.47.7.7,0,0,0-.12-.4.76.76,0,0,0-.3-.29.94.94,0,0,0-.45-.11h-.41l-3.79-4.76,3.86-4.37a.68.68,0,0,0,.17-.28.73.73,0,0,0,0-.3.77.77,0,0,0-.12-.43,1,1,0,0,0-.32-.28.87.87,0,0,0-.42-.1,1.06,1.06,0,0,0-.75.34l-4,4.57h-.7V99.1a.81.81,0,0,0-.24-.58.88.88,0,0,0-.63-.22h-.85a1,1,0,0,0-.46.12,1.11,1.11,0,0,0-.36.32A.88.88,0,0,0,83.71,99.22Z" transform="translate(0 0)" style="fill: #fff"/>
    <path d="M95.32,99.22a.81.81,0,0,0,.12.4.77.77,0,0,0,.31.28.93.93,0,0,0,.44.11h.15v9.71a1,1,0,0,0,.12.42.82.82,0,0,0,.32.29,1,1,0,0,0,.43.11,1.12,1.12,0,0,0,.5-.13,1,1,0,0,0,.34-.33.82.82,0,0,0,.13-.46v-.54l4.62-6.24v6.73a.8.8,0,0,0,.25.58.93.93,0,0,0,.62.22h.85a1.21,1.21,0,0,0,.46-.12,1.06,1.06,0,0,0,.37-.33.84.84,0,0,0,0-.88.81.81,0,0,0-.3-.28.9.9,0,0,0-.44-.11V98.94a.81.81,0,0,0-.43-.7.8.8,0,0,0-.44-.11,1.06,1.06,0,0,0-.5.12,1,1,0,0,0-.34.34,1,1,0,0,0-.13.46v.86l-4.62,6.24V99.1a.77.77,0,0,0-.24-.58.88.88,0,0,0-.63-.22h-1a1,1,0,0,0-.46.12,1.11,1.11,0,0,0-.36.32A1,1,0,0,0,95.32,99.22Z" transform="translate(0 0)" style="fill: #fff"/>
  </g>
  <g id="icons">
    <path d="M39.82,68.25l6.27-19.66h1.53q-2.09,9.87-4.18,19.76l-2.07,6.22h-2.3l.75-6.32Zm7.5,0q-.16,3.15-.35,6.3h2.3L51,68.34q1.39-9.89,2.8-19.75H52.22q-2.44,9.84-4.9,19.68Zm7.5,0q1.77-9.86,3.53-19.69h1.53q-.71,9.85-1.43,19.73c-.42,2.08-.85,4.17-1.27,6.25h-2.3l-.06-6.29Zm7.51,0q1.06-9.86,2.15-19.7H66q0,9.85-.07,19.72c-.29,2.09-.57,4.17-.86,6.26h-2.3q-.24-3.13-.46-6.28Zm7.5,0q.39-9.87.79-19.72h1.53q.66,9.85,1.31,19.7c-.16,2.1-.31,4.19-.47,6.28H70.7l-.87-6.26Zm7.5,0q-.28-9.87-.58-19.73h1.53Q79.63,58.43,81,68.28l-.06,6.29H78.6c-.42-2.08-.84-4.17-1.27-6.25Zm7.51,0q-1-9.89-2-19.75h1.54q2,9.84,4,19.68c.12,2.1.23,4.2.35,6.3h-2.3q-.84-3.12-1.67-6.23Zm7.5,0Q90.68,58.47,89,48.59h1.53q2.7,9.82,5.42,19.66l.75,6.32h-2.3c-.7-2.07-1.39-4.15-2.08-6.22Zm7.5,0,2.48,6.2h2.3l-1.15-6.33L96.68,48.59H95.15l4.69,19.78Zm-67.53-.13-1.15,6.33h2.3l2.48-6.2,5.54-19.78H40Z" transform="translate(0 0)" style="fill: #fff;fill-rule: evenodd"/>
    <path d="M51.16,44.25l4.32-16h2.07l-4.32,16Zm5.12,0h2l3.09-16h-2l-3.09,16Zm5.11,0,1.86-16h2l-1.86,16Zm7.11,0h-2l.62-16h2l-.62,16Zm5.1,0h-2l-.62-16h2l.62,16Zm5.11,0h-2l-1.85-16h2l1.85,16Zm5.12,0-3.09-16h-2l3.09,16Zm5.12,0H86.88l-4.33-16h2.07l4.33,16Zm5.12,0-5.56-16H86.4l5.56,16Zm-48,0h2.11l5.57-16H51.6Z" transform="translate(0 0)" style="fill: #f4f4f4"/>
    <path d="M39.18,76.68h2.16l1,4.47H39l.14-4.47Zm7.88,0h2.19c.28,1.52.56,3,.85,4.55H46.78c.1-1.52.19-3,.28-4.55Zm7.88,0h2.23l.72,4.63H54.52l.42-4.63Zm7.88,0h2.27l.6,4.71H62.25l.57-4.71Zm7.87,0H73c.17,1.6.33,3.2.49,4.8H70c.24-1.6.47-3.2.7-4.8Zm7.88,0h2.35l.36,4.88H77.73l.84-4.88Zm7.88,0h2.39l.24,5H85.46l1-5Zm7.88,0h2.43l.12,5H93.2c.38-1.68.75-3.36,1.13-5Zm7.87,0h2.47v5.13h-3.73l1.26-5.13Zm-70.89,0h2.11l1.08,4.38H31.31Z" transform="translate(0 0)" style="fill: #fff;fill-rule: evenodd"/>
  </g>
</svg>
