<?xml version="1.0" encoding="utf-8"?>
<!-- Generator: Adobe Illustrator 16.2.0, SVG Export Plug-In . SVG Version: 6.00 Build 0)  -->
<!DOCTYPE svg PUBLIC "-//W3C//DTD SVG 1.1//EN" "http://www.w3.org/Graphics/SVG/1.1/DTD/svg11.dtd">
<svg version="1.1" xmlns="http://www.w3.org/2000/svg" xmlns:xlink="http://www.w3.org/1999/xlink" x="0px" y="0px" width="138px"
	 height="123px" viewBox="0 0 138 123" enable-background="new 0 0 138 123" xml:space="preserve">
<g id="fon">
	
		<path fill-rule="evenodd" clip-rule="evenodd" fill="#FFFFFF" stroke="#919191" stroke-width="2.0001" stroke-miterlimit="22.9256" d="
		M9.249,1H128.75c4.537,0,8.249,3.712,8.249,8.249v104.778c0,4.537-3.712,8.249-8.249,8.249H9.249c-4.537,0-8.249-3.712-8.249-8.249
		V9.249C1,4.712,4.712,1,9.249,1z"/>
</g>
<g id="text">
	<path d="M30.096,99.215c0.003,0.147,0.04,0.283,0.116,0.402c0.074,0.122,0.176,0.216,0.307,0.286
		c0.13,0.071,0.277,0.107,0.444,0.11h0.272l3.298,6.868l-0.851,1.769h-0.221c-0.161,0.003-0.317,0.042-0.462,0.121
		c-0.146,0.079-0.269,0.188-0.362,0.323c-0.094,0.139-0.142,0.295-0.145,0.474c0.003,0.149,0.04,0.283,0.116,0.401
		c0.073,0.122,0.176,0.216,0.306,0.289c0.131,0.071,0.278,0.105,0.445,0.108h0.85c0.207-0.003,0.386-0.051,0.541-0.145
		c0.153-0.097,0.275-0.229,0.36-0.399l5.032-10.506c0.025-0.06,0.042-0.119,0.054-0.179c0.008-0.06,0.014-0.119,0.014-0.179
		c-0.003-0.164-0.045-0.309-0.127-0.431c-0.083-0.122-0.188-0.215-0.317-0.283c-0.134-0.068-0.272-0.103-0.423-0.103
		c-0.189,0.003-0.365,0.055-0.526,0.153c-0.162,0.099-0.286,0.235-0.374,0.408l-2.873,6.018l-2.856-5.949
		c-0.076-0.153-0.184-0.272-0.323-0.354c-0.136-0.079-0.294-0.122-0.476-0.122h-0.85c-0.162,0-0.317,0.043-0.462,0.122
		c-0.147,0.076-0.27,0.187-0.363,0.323C30.147,98.881,30.099,99.037,30.096,99.215z"/>
	<path d="M41.129,99.215c0.003,0.15,0.04,0.283,0.11,0.402c0.074,0.122,0.173,0.216,0.301,0.289
		c0.127,0.071,0.274,0.104,0.438,0.107v2.058c0.006,0.739,0.131,1.368,0.377,1.89c0.25,0.521,0.596,0.921,1.037,1.195
		c0.442,0.275,0.958,0.414,1.544,0.417c0.286-0.003,0.575-0.021,0.87-0.057c0.298-0.034,0.584-0.082,0.861-0.14
		c0.277-0.056,0.533-0.116,0.768-0.178v4.369c0.006,0.24,0.085,0.433,0.244,0.577c0.156,0.145,0.365,0.219,0.623,0.222h0.85
		c0.162-0.003,0.318-0.043,0.463-0.122c0.146-0.079,0.269-0.188,0.362-0.323c0.094-0.139,0.142-0.297,0.145-0.473
		c0-0.15-0.037-0.283-0.11-0.405c-0.074-0.119-0.173-0.216-0.301-0.286c-0.127-0.071-0.271-0.104-0.439-0.107v-9.707
		c-0.002-0.156-0.042-0.295-0.119-0.417c-0.076-0.122-0.181-0.218-0.312-0.289c-0.13-0.073-0.274-0.11-0.436-0.11
		c-0.188,0.003-0.354,0.045-0.502,0.128c-0.145,0.085-0.258,0.195-0.34,0.334c-0.082,0.136-0.125,0.289-0.128,0.456v4.471
		c-0.145,0.057-0.322,0.113-0.535,0.165c-0.21,0.051-0.468,0.093-0.771,0.124c-0.304,0.034-0.669,0.051-1.091,0.051
		c-0.246-0.002-0.447-0.062-0.606-0.175c-0.162-0.113-0.286-0.264-0.377-0.451c-0.088-0.184-0.153-0.388-0.187-0.605
		c-0.037-0.222-0.055-0.439-0.055-0.655v-2.873c-0.005-0.24-0.085-0.434-0.243-0.578c-0.156-0.144-0.365-0.218-0.623-0.221h-0.851
		c-0.161,0-0.317,0.043-0.462,0.122c-0.147,0.076-0.266,0.187-0.362,0.323C41.18,98.881,41.132,99.037,41.129,99.215z"/>
	<path d="M55.104,105.471l1.529-4.131l1.496,4.131H55.104L55.104,105.471z M51.669,109.721c0,0.145,0.037,0.277,0.107,0.399
		c0.071,0.125,0.17,0.225,0.301,0.301c0.13,0.073,0.283,0.113,0.459,0.116c0.133,0,0.258-0.028,0.383-0.079
		c0.121-0.055,0.229-0.128,0.322-0.222c0.097-0.093,0.165-0.204,0.213-0.328l1.02-2.721h4.284l0.952,2.652
		c0.063,0.17,0.164,0.301,0.306,0.391c0.143,0.091,0.312,0.137,0.511,0.137h0.85c0.161-0.003,0.317-0.043,0.462-0.122
		c0.147-0.079,0.269-0.188,0.362-0.323c0.094-0.139,0.142-0.295,0.145-0.473c-0.003-0.15-0.039-0.283-0.116-0.402
		c-0.073-0.122-0.176-0.216-0.306-0.289c-0.131-0.071-0.278-0.104-0.445-0.107h-0.221l-3.723-9.826
		c-0.063-0.17-0.17-0.301-0.317-0.392c-0.15-0.09-0.314-0.136-0.499-0.136h-0.85c-0.161,0-0.317,0.043-0.462,0.122
		c-0.147,0.076-0.27,0.187-0.363,0.323c-0.093,0.139-0.142,0.294-0.145,0.473c0.003,0.164,0.046,0.312,0.134,0.442
		c0.085,0.13,0.207,0.227,0.359,0.289l-3.672,9.469C51.687,109.517,51.669,109.62,51.669,109.721L51.669,109.721z"/>
	<path d="M63.552,104.383c0.003,0.688,0.079,1.343,0.238,1.958c0.156,0.617,0.383,1.182,0.677,1.691
		c0.295,0.51,0.652,0.955,1.071,1.326c0.419,0.374,0.893,0.663,1.417,0.867c0.527,0.204,1.097,0.309,1.714,0.312
		c0.139,0.003,0.334-0.009,0.587-0.04c0.255-0.031,0.547-0.102,0.878-0.212c0.331-0.114,0.683-0.289,1.057-0.53
		s0.751-0.569,1.134-0.986c0.076-0.084,0.136-0.181,0.176-0.283c0.042-0.104,0.062-0.207,0.062-0.312
		c-0.003-0.164-0.045-0.306-0.127-0.425s-0.187-0.213-0.317-0.277c-0.133-0.063-0.272-0.097-0.422-0.097
		c-0.139,0-0.272,0.025-0.4,0.079c-0.13,0.051-0.246,0.133-0.348,0.244c-0.1,0.107-0.219,0.227-0.36,0.352
		c-0.142,0.127-0.303,0.246-0.487,0.359c-0.181,0.116-0.385,0.207-0.606,0.28c-0.221,0.073-0.462,0.11-0.722,0.113
		c-0.508-0.003-0.97-0.121-1.383-0.354c-0.414-0.235-0.771-0.559-1.068-0.972c-0.298-0.414-0.527-0.896-0.688-1.442
		c-0.162-0.547-0.241-1.14-0.244-1.771c0.003-0.623,0.08-1.192,0.232-1.711c0.153-0.519,0.374-0.967,0.663-1.346
		c0.286-0.377,0.632-0.672,1.034-0.879c0.402-0.206,0.853-0.312,1.352-0.314h1.224c0.003,0.153,0.043,0.292,0.119,0.417
		c0.076,0.122,0.182,0.218,0.312,0.289c0.131,0.07,0.275,0.107,0.437,0.11c0.19-0.003,0.354-0.045,0.502-0.128
		c0.145-0.085,0.258-0.195,0.34-0.334c0.085-0.139,0.125-0.289,0.127-0.456v-0.816c-0.005-0.24-0.084-0.434-0.243-0.578
		c-0.156-0.144-0.365-0.218-0.623-0.221h-2.091c-0.632,0.003-1.213,0.102-1.752,0.304c-0.535,0.198-1.017,0.481-1.444,0.85
		c-0.428,0.365-0.791,0.802-1.091,1.307c-0.304,0.504-0.533,1.062-0.691,1.674C63.634,103.043,63.555,103.695,63.552,104.383z"/>
	<path d="M73.021,100.014c0.003,0.153,0.043,0.292,0.119,0.414c0.077,0.125,0.182,0.221,0.312,0.292
		c0.131,0.07,0.275,0.107,0.437,0.11c0.179-0.003,0.334-0.04,0.474-0.113c0.142-0.074,0.252-0.173,0.34-0.295
		c0.085-0.125,0.139-0.261,0.155-0.408h1.564v9.555c0.006,0.24,0.085,0.433,0.243,0.577c0.156,0.145,0.366,0.219,0.624,0.222h0.85
		c0.162-0.003,0.317-0.043,0.462-0.122c0.147-0.079,0.27-0.188,0.363-0.323c0.093-0.139,0.141-0.297,0.144-0.473
		c0-0.15-0.039-0.283-0.11-0.405c-0.073-0.119-0.173-0.216-0.3-0.286c-0.128-0.071-0.275-0.104-0.439-0.107v-8.637h2.941
		c0.161-0.003,0.317-0.042,0.461-0.122c0.147-0.079,0.27-0.187,0.363-0.322c0.093-0.139,0.142-0.298,0.145-0.474
		c-0.003-0.149-0.04-0.283-0.116-0.405c-0.073-0.119-0.176-0.215-0.306-0.286c-0.131-0.07-0.278-0.104-0.445-0.107h-7.31
		c-0.185,0.003-0.349,0.046-0.493,0.127c-0.145,0.086-0.261,0.196-0.346,0.335c-0.085,0.136-0.128,0.289-0.131,0.456V100.014z"/>
	<path d="M83.714,99.215c0.003,0.15,0.039,0.283,0.11,0.402c0.074,0.122,0.173,0.216,0.301,0.286
		c0.127,0.074,0.274,0.107,0.438,0.11v9.707c0.003,0.153,0.043,0.292,0.119,0.417c0.077,0.121,0.182,0.218,0.312,0.289
		c0.131,0.07,0.275,0.107,0.437,0.11c0.189-0.003,0.354-0.046,0.502-0.128c0.145-0.085,0.258-0.195,0.34-0.334
		c0.085-0.139,0.124-0.289,0.127-0.456v-4.862h0.596l4.198,5.287c0.085,0.11,0.188,0.192,0.304,0.244
		c0.119,0.054,0.249,0.079,0.394,0.079h0.851c0.161-0.003,0.316-0.043,0.462-0.122c0.146-0.079,0.269-0.188,0.362-0.323
		c0.094-0.139,0.142-0.295,0.145-0.473c-0.003-0.15-0.04-0.283-0.116-0.402c-0.074-0.122-0.176-0.216-0.306-0.289
		c-0.131-0.071-0.278-0.104-0.445-0.107h-0.408l-3.791-4.761l3.859-4.368c0.076-0.086,0.133-0.179,0.167-0.278
		c0.037-0.097,0.054-0.198,0.054-0.3c-0.003-0.165-0.045-0.31-0.127-0.431c-0.083-0.122-0.188-0.216-0.317-0.283
		c-0.134-0.068-0.272-0.103-0.423-0.103c-0.139,0-0.271,0.028-0.399,0.088c-0.13,0.057-0.246,0.142-0.349,0.252l-4.012,4.573h-0.697
		v-3.944c-0.005-0.24-0.085-0.434-0.243-0.578C86,98.375,85.793,98.3,85.532,98.297h-0.85c-0.161,0-0.317,0.043-0.462,0.122
		c-0.147,0.076-0.266,0.187-0.362,0.323C83.765,98.881,83.717,99.037,83.714,99.215z"/>
	<path d="M95.324,99.215c0.003,0.147,0.04,0.283,0.116,0.402c0.074,0.122,0.179,0.216,0.307,0.286c0.13,0.071,0.28,0.107,0.444,0.11
		h0.153v9.707c0.003,0.153,0.043,0.292,0.119,0.417c0.076,0.121,0.181,0.218,0.312,0.289c0.131,0.07,0.275,0.107,0.437,0.11
		c0.189-0.003,0.354-0.046,0.502-0.128c0.144-0.085,0.257-0.195,0.339-0.334c0.086-0.139,0.125-0.289,0.128-0.456v-0.544
		l4.624-6.239v6.732c0.006,0.24,0.085,0.433,0.244,0.577c0.155,0.145,0.365,0.219,0.623,0.222h0.85
		c0.162-0.003,0.317-0.043,0.462-0.122c0.147-0.079,0.27-0.188,0.363-0.323c0.093-0.139,0.142-0.297,0.145-0.473
		c0-0.15-0.037-0.283-0.111-0.405c-0.073-0.119-0.173-0.216-0.3-0.286c-0.128-0.071-0.272-0.104-0.439-0.107v-9.707
		c-0.003-0.156-0.043-0.295-0.119-0.417s-0.181-0.218-0.312-0.289c-0.13-0.073-0.274-0.11-0.437-0.11
		c-0.187,0.003-0.354,0.045-0.501,0.128c-0.145,0.085-0.258,0.195-0.34,0.334c-0.083,0.136-0.125,0.289-0.128,0.456v0.867
		l-4.624,6.239v-7.056c-0.006-0.24-0.085-0.434-0.243-0.578c-0.156-0.144-0.363-0.218-0.624-0.221h-1.02
		c-0.162,0-0.314,0.043-0.462,0.122c-0.147,0.076-0.267,0.187-0.363,0.323C95.376,98.881,95.327,99.037,95.324,99.215z"/>
</g>
<g id="icons">
	<path fill-rule="evenodd" clip-rule="evenodd" fill="#BB3B3B" d="M39.816,68.25c2.089-6.555,4.179-13.11,6.269-19.665
		c0.511,0,1.021,0,1.533,0c-1.392,6.589-2.783,13.178-4.174,19.767c-0.692,2.071-1.386,4.144-2.078,6.215c-0.767,0-1.532,0-2.299,0
		C39.317,72.461,39.566,70.356,39.816,68.25L39.816,68.25z M47.32,68.265c-0.115,2.101-0.23,4.201-0.346,6.302
		c0.767,0,1.533,0,2.299,0c0.558-2.076,1.116-4.153,1.674-6.229c0.935-6.583,1.869-13.167,2.804-19.752c-0.511,0-1.022,0-1.533,0
		C50.585,55.146,48.953,61.706,47.32,68.265L47.32,68.265z M54.823,68.28c1.176-6.565,2.352-13.129,3.527-19.694
		c0.511,0,1.022,0,1.533,0c-0.478,6.58-0.955,13.159-1.433,19.737c-0.424,2.082-0.848,4.163-1.271,6.244c-0.767,0-1.533,0-2.299,0
		C54.862,72.471,54.843,70.375,54.823,68.28L54.823,68.28z M62.326,68.294c0.719-6.57,1.438-13.139,2.158-19.709
		c0.511,0,1.021,0,1.532,0c-0.021,6.575-0.042,13.149-0.063,19.724c-0.289,2.086-0.578,4.172-0.866,6.258c-0.767,0-1.533,0-2.299,0
		C62.635,72.476,62.48,70.385,62.326,68.294L62.326,68.294z M69.829,68.309c0.263-6.575,0.525-13.149,0.788-19.724
		c0.511,0,1.021,0,1.532,0c0.437,6.57,0.872,13.139,1.308,19.709c-0.154,2.091-0.309,4.182-0.463,6.272c-0.766,0-1.532,0-2.298,0
		C70.407,72.481,70.118,70.395,69.829,68.309L69.829,68.309z M77.332,68.323c-0.193-6.579-0.388-13.158-0.582-19.737
		c0.511,0,1.021,0,1.533,0c0.893,6.565,1.784,13.129,2.677,19.694c-0.02,2.096-0.039,4.191-0.059,6.287c-0.766,0-1.532,0-2.298,0
		C78.18,72.486,77.756,70.405,77.332,68.323L77.332,68.323z M84.836,68.337c-0.651-6.583-1.303-13.167-1.953-19.752
		c0.511,0,1.021,0,1.533,0c1.349,6.56,2.698,13.12,4.047,19.68c0.115,2.101,0.23,4.201,0.346,6.302c-0.767,0-1.532,0-2.299,0
		C85.951,72.491,85.394,70.414,84.836,68.337L84.836,68.337z M92.339,68.352c-1.107-6.588-2.215-13.177-3.323-19.767
		c0.511,0,1.022,0,1.533,0c1.806,6.555,3.612,13.11,5.418,19.665c0.249,2.105,0.499,4.211,0.749,6.316c-0.767,0-1.532,0-2.299,0
		C93.725,72.496,93.031,70.423,92.339,68.352L92.339,68.352z M99.842,68.367l2.482,6.201h2.299l-1.153-6.331l-6.788-19.651h-1.533
		L99.842,68.367L99.842,68.367z M32.313,68.237l-1.153,6.331h2.299l2.482-6.201l5.543-19.781h-1.532L32.313,68.237z"/>
	<path fill="#BB3B3B" d="M51.157,44.254l4.327-15.973h2.068l-4.327,15.973H51.157L51.157,44.254z M56.278,44.254h2.032l3.092-15.973
		h-2.033L56.278,44.254L56.278,44.254z M61.393,44.254l1.854-15.973h2.011l-1.855,15.973H61.393L61.393,44.254z M68.499,44.254
		h-1.995l0.618-15.973h1.994L68.499,44.254L68.499,44.254z M73.601,44.254h-1.994l-0.618-15.973h1.995L73.601,44.254L73.601,44.254z
		 M78.712,44.254h-2.01l-1.854-15.973h2.011L78.712,44.254L78.712,44.254z M83.827,44.254l-3.091-15.973h-2.034l3.092,15.973H83.827
		L83.827,44.254z M88.947,44.254h-2.068l-4.327-15.973h2.069L88.947,44.254L88.947,44.254z M94.073,44.254l-5.564-15.973h-2.112
		l5.565,15.973H94.073L94.073,44.254z M46.032,44.254h2.111l5.564-15.973h-2.111L46.032,44.254z"/>
	<path fill-rule="evenodd" clip-rule="evenodd" fill="#A1A2A3" d="M39.185,76.684c0.718,0,1.435,0,2.152,0
		c0.32,1.487,0.642,2.975,0.962,4.462c-1.085,0-2.17,0-3.255,0C39.091,79.659,39.138,78.171,39.185,76.684L39.185,76.684z
		 M47.062,76.684c0.73,0,1.462,0,2.192,0c0.28,1.515,0.561,3.029,0.842,4.544c-1.105,0-2.21,0-3.315,0
		C46.875,79.713,46.968,78.199,47.062,76.684L47.062,76.684z M54.939,76.684c0.744,0,1.487,0,2.231,0
		c0.24,1.542,0.481,3.084,0.722,4.627c-1.125,0-2.25,0-3.375,0C54.658,79.768,54.799,78.226,54.939,76.684L54.939,76.684z
		 M62.816,76.684c0.758,0,1.515,0,2.271,0c0.2,1.569,0.401,3.14,0.602,4.709c-1.146,0-2.29,0-3.436,0
		C62.441,79.824,62.629,78.253,62.816,76.684L62.816,76.684z M70.693,76.684c0.771,0,1.541,0,2.312,0
		c0.161,1.597,0.321,3.194,0.481,4.791c-1.165,0-2.33,0-3.495,0C70.226,79.878,70.46,78.281,70.693,76.684L70.693,76.684z
		 M78.571,76.684c0.783,0,1.567,0,2.351,0c0.121,1.624,0.241,3.249,0.361,4.874c-1.186,0-2.37,0-3.556,0
		C78.009,79.933,78.29,78.308,78.571,76.684L78.571,76.684z M86.448,76.684c0.798,0,1.594,0,2.392,0
		c0.08,1.652,0.16,3.304,0.24,4.956c-1.205,0-2.41,0-3.615,0C85.792,79.988,86.12,78.336,86.448,76.684L86.448,76.684z
		 M94.326,76.684c0.81,0,1.62,0,2.431,0c0.04,1.68,0.08,3.358,0.12,5.038c-1.226,0-2.45,0-3.676,0
		C93.576,80.042,93.951,78.364,94.326,76.684L94.326,76.684z M102.203,76.684h2.471v5.121h-3.735L102.203,76.684L102.203,76.684z
		 M31.308,76.684h2.112l1.082,4.38h-3.194V76.684z"/>
</g>
</svg>
