<svg xmlns="http://www.w3.org/2000/svg" viewBox="0 0 138 123.28">
  <g id="fon">
    <rect x="1" y="1" width="136" height="121.28" rx="8.25" style="fill: #a80000;stroke: #a80000;stroke-miterlimit: 22.925600000000003;stroke-width: 2.0001px"/>
  </g>
  <g id="text">
    <path d="M14.59,103.26V100h.77a4.5,4.5,0,0,1,1.17.15,2,2,0,0,1,.71.38,1.21,1.21,0,0,1,.34.49,1.45,1.45,0,0,1,.09.48,2,2,0,0,1-.11.63,2.12,2.12,0,0,1-.33.56,1.71,1.71,0,0,1-.51.41,1.51,1.51,0,0,1-.68.15Zm0,5.39V105h1.35a2.78,2.78,0,0,1,.75.11,2.17,2.17,0,0,1,.68.34,1.81,1.81,0,0,1,.49.57,1.86,1.86,0,0,1,.19.81,1.9,1.9,0,0,1-.16.76,1.46,1.46,0,0,1-.39.52,2.4,2.4,0,0,1-.55.34,2.64,2.64,0,0,1-.61.17,3.88,3.88,0,0,1-.57.05Zm-2.68-9.43a.8.8,0,0,0,.11.4.74.74,0,0,0,.3.28.9.9,0,0,0,.44.11v9.56a.75.75,0,0,0,.24.58,1,1,0,0,0,.63.22h2a5.36,5.36,0,0,0,1.7-.28,4,4,0,0,0,1.34-.77,3.48,3.48,0,0,0,.86-1.16,3.53,3.53,0,0,0,.13-2.56,3.24,3.24,0,0,0-.51-.93,3.48,3.48,0,0,0-.77-.71,3.61,3.61,0,0,0,.59-.76,4.14,4.14,0,0,0,.37-.87,3.25,3.25,0,0,0,.13-.92,2.92,2.92,0,0,0-.57-1.72,2.78,2.78,0,0,0-.77-.71,3.85,3.85,0,0,0-1.14-.5,6.11,6.11,0,0,0-1.57-.18H12.88a.93.93,0,0,0-.46.12,1.14,1.14,0,0,0-.37.32A.87.87,0,0,0,11.91,99.22Z" transform="translate(0 0)" style="fill: #fff"/>
    <path d="M20.7,100a.74.74,0,0,0,.12.42.79.79,0,0,0,.31.29.89.89,0,0,0,.43.11,1.06,1.06,0,0,0,.48-.11,1.1,1.1,0,0,0,.34-.3.85.85,0,0,0,.15-.41H24.1v9.56a.75.75,0,0,0,.24.58,1,1,0,0,0,.62.22h.85a1.26,1.26,0,0,0,.47-.12,1,1,0,0,0,.36-.33.84.84,0,0,0,0-.88.81.81,0,0,0-.3-.28.87.87,0,0,0-.44-.11V100h2.95a1,1,0,0,0,.46-.12,1,1,0,0,0,.36-.32.86.86,0,0,0,.14-.47.81.81,0,0,0-.11-.41,1,1,0,0,0-.31-.29.92.92,0,0,0-.44-.1H21.67a1,1,0,0,0-.5.12,1,1,0,0,0-.34.34.82.82,0,0,0-.13.46Z" transform="translate(0 0)" style="fill: #fff"/>
    <path d="M32.8,104.26a6,6,0,0,1,.24-1.74,4.49,4.49,0,0,1,.67-1.39,3.07,3.07,0,0,1,1-.93,2.71,2.71,0,0,1,1.33-.34,2.84,2.84,0,0,1,1.39.35,3.31,3.31,0,0,1,1.06,1,4.69,4.69,0,0,1,.69,1.44,6.33,6.33,0,0,1,.25,1.78,6.12,6.12,0,0,1-.24,1.75,4.66,4.66,0,0,1-.67,1.4,3.16,3.16,0,0,1-1,.93,2.63,2.63,0,0,1-1.33.34,2.84,2.84,0,0,1-1.39-.35,3.52,3.52,0,0,1-1.07-1,5,5,0,0,1-.68-1.44,6,6,0,0,1-.25-1.78Zm-1.83.12a7.74,7.74,0,0,0,.23,2,6.87,6.87,0,0,0,.68,1.69A5.39,5.39,0,0,0,33,109.36a4.8,4.8,0,0,0,1.42.87,5,5,0,0,0,1.71.31,5,5,0,0,0,1.75-.32,4.83,4.83,0,0,0,1.45-.9A5.22,5.22,0,0,0,40.37,108a6.73,6.73,0,0,0,.69-1.72,7.9,7.9,0,0,0,.24-2,8.2,8.2,0,0,0-.23-2,6.87,6.87,0,0,0-.68-1.69,5.57,5.57,0,0,0-1.07-1.32,4.68,4.68,0,0,0-3.13-1.17,4.74,4.74,0,0,0-3.2,1.2,5.57,5.57,0,0,0-1.09,1.36,6.39,6.39,0,0,0-.69,1.72A7.88,7.88,0,0,0,31,104.38Z" transform="translate(0 0)" style="fill: #fff"/>
    <path d="M46,104v-4h1.16a2.36,2.36,0,0,1,.79.15,2,2,0,0,1,.66.43,1.88,1.88,0,0,1,.45.67,2.23,2.23,0,0,1,.17.88,2.3,2.3,0,0,1-.14.79,2,2,0,0,1-.39.65,1.93,1.93,0,0,1-.61.45,2,2,0,0,1-.78.17,5.36,5.36,0,0,1-.77-.06A4.63,4.63,0,0,1,46,104Zm-2.69-4.81a.92.92,0,0,0,.11.4.89.89,0,0,0,.3.28.93.93,0,0,0,.44.11v9.56a.8.8,0,0,0,.25.58.93.93,0,0,0,.62.22h.85a1.21,1.21,0,0,0,.46-.12,1,1,0,0,0,.36-.33.78.78,0,0,0,.15-.47.84.84,0,0,0-.11-.41.81.81,0,0,0-.3-.28.93.93,0,0,0-.44-.11v-2.84l.52.07.43,0h.26a3.87,3.87,0,0,0,1.48-.29,3.76,3.76,0,0,0,1.23-.81,3.9,3.9,0,0,0,.84-1.23A4.07,4.07,0,0,0,51,102a3.73,3.73,0,0,0-.32-1.53,3.45,3.45,0,0,0-.83-1.18,3.64,3.64,0,0,0-1.21-.76,3.93,3.93,0,0,0-1.45-.27h-3a1,1,0,0,0-.46.12,1,1,0,0,0-.36.32A.88.88,0,0,0,43.27,99.22Z" transform="translate(0 0)" style="fill: #fff"/>
    <path d="M52.81,99.22a.72.72,0,0,0,.12.4.74.74,0,0,0,.3.28.94.94,0,0,0,.45.11h.15v9.71a.79.79,0,0,0,.12.42.86.86,0,0,0,.31.29,1.06,1.06,0,0,0,.44.11,1.16,1.16,0,0,0,.5-.13,1.07,1.07,0,0,0,.34-.33,1,1,0,0,0,.13-.46v-.54l4.62-6.24v6.73a.83.83,0,0,0,.24.58,1,1,0,0,0,.63.22H62a1.25,1.25,0,0,0,.46-.12,1,1,0,0,0,.36-.33.81.81,0,0,0,0-.88,1,1,0,0,0-.3-.28.93.93,0,0,0-.44-.11V98.94a.93.93,0,0,0-.12-.41.78.78,0,0,0-.31-.29.82.82,0,0,0-.44-.11,1,1,0,0,0-.5.12.92.92,0,0,0-.34.34.91.91,0,0,0-.13.46v.86l-4.62,6.24V99.1a.78.78,0,0,0-.25-.58.84.84,0,0,0-.62-.22h-1a.93.93,0,0,0-.46.12,1,1,0,0,0-.36.32A.81.81,0,0,0,52.81,99.22Z" transform="translate(0 0)" style="fill: #fff"/>
    <path d="M64.49,99.22a.77.77,0,0,0,.11.4.84.84,0,0,0,.3.29.89.89,0,0,0,.44.1v2.06a4.48,4.48,0,0,0,.38,1.89,2.83,2.83,0,0,0,1,1.2,2.94,2.94,0,0,0,1.55.41c.28,0,.57,0,.87,0l.86-.14.77-.18v4.37a.75.75,0,0,0,.24.58,1,1,0,0,0,.62.22h.85a1.31,1.31,0,0,0,.47-.12,1.13,1.13,0,0,0,.36-.33.84.84,0,0,0,.14-.47.74.74,0,0,0-.11-.41.81.81,0,0,0-.3-.28.9.9,0,0,0-.44-.11V98.94a.81.81,0,0,0-.43-.7.79.79,0,0,0-.43-.11,1.07,1.07,0,0,0-.51.12,1.1,1.1,0,0,0-.34.34.9.9,0,0,0-.12.46v4.47c-.15,0-.33.11-.54.16s-.47.09-.77.13-.67,0-1.09,0a1.13,1.13,0,0,1-.61-.18,1.1,1.1,0,0,1-.37-.45,2,2,0,0,1-.19-.61,3.63,3.63,0,0,1,0-.65V99.1a.78.78,0,0,0-.25-.58.84.84,0,0,0-.62-.22h-.85a.93.93,0,0,0-.46.12,1.14,1.14,0,0,0-.37.32A.87.87,0,0,0,64.49,99.22Z" transform="translate(0 0)" style="fill: #fff"/>
    <path d="M75.71,99.22a.77.77,0,0,0,.11.4.84.84,0,0,0,.3.29.92.92,0,0,0,.44.1v9.71a.79.79,0,0,0,.12.42.86.86,0,0,0,.31.29,1.06,1.06,0,0,0,.44.11,1.16,1.16,0,0,0,.5-.13,1.07,1.07,0,0,0,.34-.33,1,1,0,0,0,.13-.46v-4.86H83v4.81a.75.75,0,0,0,.24.58,1,1,0,0,0,.63.22h.85a1.25,1.25,0,0,0,.46-.12,1,1,0,0,0,.36-.33.93.93,0,0,0,.15-.47.84.84,0,0,0-.11-.41.93.93,0,0,0-.31-.28.86.86,0,0,0-.43-.11V98.94a.93.93,0,0,0-.12-.41.75.75,0,0,0-.32-.29.79.79,0,0,0-.43-.11,1,1,0,0,0-.5.12.92.92,0,0,0-.34.34.82.82,0,0,0-.13.46v4H78.4V99.1a.78.78,0,0,0-.25-.58.84.84,0,0,0-.62-.22h-.85a.93.93,0,0,0-.46.12,1.14,1.14,0,0,0-.37.32A.87.87,0,0,0,75.71,99.22Z" transform="translate(0 0)" style="fill: #fff"/>
    <path d="M96.42,109.57a.77.77,0,0,0,.11.4.86.86,0,0,0,.31.29,1.06,1.06,0,0,0,.44.11H99a1.21,1.21,0,0,0,.46-.12,1.06,1.06,0,0,0,.37-.33.84.84,0,0,0,.14-.47.77.77,0,0,0-.11-.4.76.76,0,0,0-.3-.29.9.9,0,0,0-.44-.11V100a1,1,0,0,0,.73-.47.88.88,0,0,0,.12-.44.81.81,0,0,0-.11-.41,1,1,0,0,0-.31-.29.93.93,0,0,0-.45-.1h-1.7a1,1,0,0,0-.46.12,1.22,1.22,0,0,0-.36.32.87.87,0,0,0-.14.48.8.8,0,0,0,.11.4.74.74,0,0,0,.3.28.87.87,0,0,0,.44.11v8.64a1,1,0,0,0-.73.48.83.83,0,0,0-.12.44Zm-5.78-.92V105h1.17a3.33,3.33,0,0,1,.84.1,2.21,2.21,0,0,1,.73.33,1.55,1.55,0,0,1,.51.57,1.79,1.79,0,0,1,.2.83,1.55,1.55,0,0,1-.21.79,1.83,1.83,0,0,1-.53.58,2.59,2.59,0,0,1-.73.35,2.84,2.84,0,0,1-.81.12ZM88,99.22a.8.8,0,0,0,.11.4.74.74,0,0,0,.3.28.93.93,0,0,0,.44.11v9.56a.79.79,0,0,0,.24.58,1,1,0,0,0,.63.22h2A4.83,4.83,0,0,0,93,110.2a4.66,4.66,0,0,0,1.15-.48,3.91,3.91,0,0,0,.94-.77,3.4,3.4,0,0,0,.64-1,3.32,3.32,0,0,0,.23-1.23,3.52,3.52,0,0,0-.22-1.25,3.16,3.16,0,0,0-.62-1,3.56,3.56,0,0,0-.9-.68,4.09,4.09,0,0,0-1.09-.41,5.21,5.21,0,0,0-1.18-.14H90.64V99.1a.78.78,0,0,0-.25-.58.84.84,0,0,0-.62-.22h-.85a.93.93,0,0,0-.46.12,1.14,1.14,0,0,0-.37.32A.87.87,0,0,0,88,99.22Z" transform="translate(0 0)" style="fill: #fff"/>
    <path d="M105,95.66a.81.81,0,0,0,0,.31.8.8,0,0,0,.18.27,3.74,3.74,0,0,0,.87.62,4.33,4.33,0,0,0,1,.38,4.55,4.55,0,0,0,1,.12,4.28,4.28,0,0,0,1.16-.15,4.58,4.58,0,0,0,1-.41,3.79,3.79,0,0,0,.77-.58,1.05,1.05,0,0,0,.22-.3.72.72,0,0,0,.07-.33.68.68,0,0,0-.13-.42.92.92,0,0,0-.33-.29.87.87,0,0,0-.42-.1.86.86,0,0,0-.41.09,2.2,2.2,0,0,0-.32.21l-.34.26a1.78,1.78,0,0,1-.46.21,2.43,2.43,0,0,1-.67.1,2.65,2.65,0,0,1-.83-.14,2.2,2.2,0,0,1-.55-.31l-.42-.3a1,1,0,0,0-.47-.14,1.07,1.07,0,0,0-.51.13,1,1,0,0,0-.34.33.83.83,0,0,0-.12.44Zm-2,3.56a.81.81,0,0,0,.12.4.77.77,0,0,0,.31.28.93.93,0,0,0,.44.11H104v9.71a1,1,0,0,0,.12.42.82.82,0,0,0,.32.29,1,1,0,0,0,.43.11,1.12,1.12,0,0,0,.5-.13,1,1,0,0,0,.34-.33.82.82,0,0,0,.13-.46v-.54l4.62-6.24v6.73a.8.8,0,0,0,.25.58.93.93,0,0,0,.62.22h.85a1.21,1.21,0,0,0,.46-.12,1.06,1.06,0,0,0,.37-.33.84.84,0,0,0,0-.88.81.81,0,0,0-.3-.28.9.9,0,0,0-.44-.11V98.94a.73.73,0,0,0-.12-.41.78.78,0,0,0-.31-.29.82.82,0,0,0-.44-.11,1.06,1.06,0,0,0-.5.12,1,1,0,0,0-.34.34,1,1,0,0,0-.13.46v.86l-4.62,6.24V99.1a.77.77,0,0,0-.24-.58.88.88,0,0,0-.63-.22h-1a1,1,0,0,0-.46.12,1.11,1.11,0,0,0-.36.32A1,1,0,0,0,103,99.22Z" transform="translate(0 0)" style="fill: #fff"/>
    <path d="M123.16,104v-4h1.15a2.31,2.31,0,0,1,.79.15,1.93,1.93,0,0,1,.66.43,1.78,1.78,0,0,1,.46.67,2.42,2.42,0,0,1,.17.88,2.3,2.3,0,0,1-.14.79,2.28,2.28,0,0,1-.4.65,1.89,1.89,0,0,1-.6.45,2,2,0,0,1-.78.17,5.24,5.24,0,0,1-.77-.06,4.63,4.63,0,0,1-.54-.11Zm-2.69-4.81a.8.8,0,0,0,.11.4.74.74,0,0,0,.3.28.93.93,0,0,0,.44.11v9.56a.83.83,0,0,0,.24.58,1,1,0,0,0,.63.22H123a1.25,1.25,0,0,0,.46-.12,1,1,0,0,0,.36-.33.81.81,0,0,0,0-.88,1,1,0,0,0-.3-.28.93.93,0,0,0-.44-.11v-2.84l.52.07.42,0h.26a3.84,3.84,0,0,0,3.86-3.87,3.73,3.73,0,0,0-.31-1.53,3.45,3.45,0,0,0-.83-1.18,3.69,3.69,0,0,0-1.22-.76,3.89,3.89,0,0,0-1.45-.27h-3a1,1,0,0,0-.46.12,1,1,0,0,0-.36.32A.81.81,0,0,0,120.47,99.22Z" transform="translate(0 0)" style="fill: #fff"/>
  </g>
  <g id="icons">
    <path d="M60.65,19.88l18.58,6.7v1.63L60.56,23.76l-5.88-2.22V19.08l6,.8Zm0,8-6-.37V30l5.89,1.79,18.66,3V33.13L60.64,27.9Zm0,8,18.61,3.77v1.64L60.58,39.79l-5.9-1.36V36l5.94-.06Zm0,8,18.62,2.3v1.64L60.6,47.8l-5.92-.92V44.42l5.93-.49Zm0,8,18.63.84v1.64l-18.62,1.4-5.93-.5V52.87l5.92-.93Zm0,8,18.65-.63V61L60.62,63.83l-5.94-.06V61.31L60.58,60Zm0,8,18.66-2.09v1.64L60.64,71.84l-6,.37V69.76L60.57,68Zm0,8,18.67-3.54v1.63L60.65,79.86l-6,.8V78.2L60.56,76Zm0,8-5.86,2.65v2.46l6-1.23,18.57-7.26V79L60.54,84Zm.12-72.13-6-1.24v2.46l5.86,2.65,18.69,5.92V20Z" transform="translate(0 0)" style="fill: #fff;fill-rule: evenodd"/>
    <path d="M48.57,19.88l-15.29,6.7v1.63l15.37-4.45,4.83-2.22V19.08l-4.91.8Zm0,8,4.9-.37V30l-4.85,1.79-15.35,3V33.13l15.3-5.23Zm0,8L33.28,39.68v1.64l15.34-1.53,4.86-1.36V36l-4.89-.06Zm0,8-15.32,2.3v1.64l15.33-.07,4.87-.92V44.42l-4.88-.49Zm0,8-15.33.84v1.64l15.32,1.4,4.88-.5V52.87l-4.87-.93Zm0,8-15.34-.63V61l15.31,2.86,4.89-.06V61.31L48.62,60Zm0,8L33.28,65.88v1.64l15.3,4.32,4.9.37V69.76L48.63,68Zm0,8L33.28,72.44v1.63l15.29,5.79,4.91.8V78.2L48.65,76Zm0,8,4.82,2.65v2.46l-4.92-1.23L33.28,80.62V79l15.38,5Zm-.1-72.13,4.92-1.24v2.46l-4.82,2.65L33.28,21.66V20Z" transform="translate(0 0)" style="fill: #fff;fill-rule: evenodd"/>
    <path d="M83.32,32l15.09,4.62v2.21L83.32,34.2V32Zm0,5.47v2.17l15.09,3.3V40.77l-15.09-3.3Zm0,5.46,15.09,2v2.15l-15.09-2V42.93Zm0,7.59V48.39l15.09.66v2.13l-15.09-.66Zm0,5.45V53.84l15.09-.66v2.13L83.32,56Zm0,5.46V59.28l15.09-2v2.15l-15.09,2Zm0,5.46,15.09-3.3V61.42l-15.09,3.3v2.17Zm0,5.47V70.15l15.09-4.62v2.21L83.32,72.36Zm0,5.48,15.09-6V69.64L83.32,75.58v2.26Zm0-51.32v2.26l15.09,5.94V32.46Z" transform="translate(0 0)" style="fill: #f9f9f9"/>
  </g>
</svg>
