<?xml version="1.0" encoding="utf-8"?>
<!-- Generator: Adobe Illustrator 16.2.0, SVG Export Plug-In . SVG Version: 6.00 Build 0)  -->
<!DOCTYPE svg PUBLIC "-//W3C//DTD SVG 1.1//EN" "http://www.w3.org/Graphics/SVG/1.1/DTD/svg11.dtd">
<svg version="1.1" xmlns="http://www.w3.org/2000/svg" xmlns:xlink="http://www.w3.org/1999/xlink" x="0px" y="0px" width="138px"
	 height="123px" viewBox="0 0 138 123" enable-background="new 0 0 138 123" xml:space="preserve">
<g id="fon">
	<path fill-rule="evenodd" clip-rule="evenodd" fill="#FFFFFF" stroke="#919191" stroke-width="2" stroke-miterlimit="22.9256" d="
		M9.249,1H128.75C133.288,1,137,4.712,137,9.249v104.778c0,4.537-3.712,8.249-8.249,8.249H9.249c-4.537,0-8.249-3.712-8.249-8.249
		V9.249C1,4.712,4.712,1,9.249,1z"/>
</g>
<g id="text">
	<path d="M14.595,103.261v-3.247h0.765c0.479,0.003,0.867,0.055,1.173,0.15c0.303,0.097,0.539,0.221,0.703,0.374
		c0.167,0.153,0.28,0.314,0.346,0.487c0.063,0.17,0.094,0.332,0.091,0.484c0,0.21-0.04,0.42-0.113,0.626
		c-0.077,0.204-0.185,0.392-0.326,0.562c-0.142,0.17-0.315,0.306-0.516,0.408c-0.198,0.102-0.425,0.152-0.677,0.155H14.595
		L14.595,103.261z M14.595,108.651v-3.673h1.343c0.255,0,0.504,0.037,0.753,0.113c0.247,0.074,0.473,0.188,0.677,0.341
		c0.204,0.149,0.365,0.343,0.49,0.572c0.122,0.229,0.184,0.498,0.187,0.811c-0.002,0.291-0.054,0.541-0.152,0.753
		c-0.097,0.21-0.23,0.386-0.394,0.524c-0.165,0.142-0.349,0.252-0.547,0.334c-0.201,0.08-0.402,0.14-0.609,0.173
		c-0.204,0.034-0.396,0.052-0.575,0.052H14.595L14.595,108.651z M11.909,99.215c0.003,0.147,0.04,0.283,0.11,0.402
		c0.074,0.122,0.173,0.216,0.301,0.286c0.127,0.071,0.274,0.107,0.439,0.11v9.555c0.006,0.24,0.085,0.433,0.244,0.577
		c0.156,0.145,0.366,0.219,0.624,0.222h2.04c0.624-0.003,1.193-0.097,1.706-0.281c0.516-0.181,0.958-0.438,1.335-0.771
		c0.374-0.328,0.663-0.714,0.867-1.158c0.204-0.442,0.306-0.924,0.309-1.445c-0.003-0.396-0.063-0.768-0.181-1.11
		c-0.122-0.343-0.289-0.651-0.507-0.93c-0.221-0.277-0.476-0.516-0.773-0.714c0.232-0.229,0.431-0.481,0.592-0.76
		c0.161-0.277,0.283-0.569,0.368-0.872c0.085-0.304,0.127-0.609,0.127-0.918c0-0.292-0.042-0.584-0.136-0.879
		c-0.09-0.295-0.235-0.575-0.431-0.841c-0.198-0.267-0.453-0.505-0.771-0.711c-0.314-0.21-0.697-0.375-1.145-0.496
		c-0.448-0.119-0.969-0.182-1.564-0.185h-2.584c-0.162,0-0.315,0.043-0.462,0.122c-0.147,0.076-0.267,0.187-0.363,0.323
		C11.96,98.881,11.912,99.037,11.909,99.215z"/>
	<path d="M20.698,100.014c0.003,0.153,0.042,0.292,0.119,0.414c0.077,0.125,0.181,0.221,0.312,0.292
		c0.13,0.07,0.275,0.107,0.437,0.11c0.179-0.003,0.334-0.04,0.473-0.113c0.142-0.074,0.252-0.173,0.34-0.295
		c0.085-0.125,0.139-0.261,0.156-0.408h1.564v9.555c0.005,0.24,0.085,0.433,0.243,0.577c0.156,0.145,0.366,0.219,0.624,0.222h0.85
		c0.162-0.003,0.317-0.043,0.462-0.122c0.147-0.079,0.269-0.188,0.363-0.323c0.093-0.139,0.141-0.297,0.144-0.473
		c0-0.15-0.04-0.283-0.11-0.405c-0.074-0.119-0.173-0.216-0.3-0.286c-0.127-0.071-0.275-0.104-0.439-0.107v-8.637h2.941
		c0.162-0.003,0.317-0.042,0.461-0.122c0.147-0.079,0.27-0.187,0.363-0.322c0.094-0.139,0.142-0.298,0.145-0.474
		c-0.003-0.149-0.04-0.283-0.116-0.405c-0.074-0.119-0.176-0.215-0.307-0.286c-0.13-0.07-0.277-0.104-0.444-0.107h-7.31
		c-0.185,0.003-0.349,0.046-0.493,0.127c-0.145,0.086-0.261,0.196-0.346,0.335c-0.085,0.136-0.127,0.289-0.13,0.456V100.014z"/>
	<path d="M32.802,104.264c0.003-0.629,0.082-1.21,0.238-1.742c0.156-0.532,0.379-1,0.668-1.396c0.292-0.396,0.635-0.706,1.037-0.927
		c0.402-0.221,0.847-0.334,1.337-0.337c0.507,0.003,0.969,0.118,1.382,0.349c0.414,0.227,0.771,0.547,1.068,0.954
		c0.297,0.411,0.527,0.89,0.688,1.437c0.161,0.547,0.244,1.143,0.244,1.782c0,0.629-0.08,1.21-0.238,1.745
		c-0.156,0.536-0.38,1.003-0.669,1.402c-0.289,0.4-0.635,0.712-1.037,0.933c-0.399,0.224-0.847,0.337-1.337,0.34
		c-0.508-0.003-0.969-0.121-1.383-0.354c-0.414-0.235-0.768-0.559-1.068-0.972c-0.297-0.414-0.527-0.896-0.688-1.442
		C32.884,105.489,32.805,104.896,32.802,104.264L32.802,104.264z M30.966,104.383c0.003,0.688,0.079,1.343,0.238,1.958
		c0.156,0.617,0.383,1.182,0.677,1.691s0.652,0.955,1.071,1.326c0.419,0.374,0.892,0.663,1.417,0.867
		c0.527,0.204,1.097,0.309,1.714,0.312c0.632-0.003,1.212-0.11,1.75-0.32c0.536-0.213,1.017-0.51,1.445-0.896
		c0.428-0.383,0.791-0.836,1.091-1.359c0.303-0.521,0.533-1.094,0.691-1.721c0.158-0.626,0.241-1.283,0.241-1.978
		c0-0.688-0.08-1.343-0.235-1.958c-0.159-0.614-0.385-1.176-0.68-1.686c-0.295-0.51-0.652-0.949-1.071-1.323
		c-0.419-0.371-0.89-0.657-1.417-0.861s-1.096-0.306-1.714-0.309c-0.629,0.003-1.213,0.11-1.751,0.32
		c-0.536,0.21-1.017,0.504-1.445,0.887s-0.791,0.836-1.091,1.354c-0.303,0.521-0.533,1.094-0.691,1.72
		C31.048,103.032,30.969,103.689,30.966,104.383z"/>
	<path d="M45.959,104.027v-4.013h1.156c0.278,0,0.541,0.052,0.791,0.147c0.249,0.1,0.467,0.238,0.66,0.425
		c0.192,0.185,0.345,0.408,0.456,0.669c0.11,0.261,0.165,0.556,0.167,0.884c0,0.278-0.048,0.541-0.139,0.788
		c-0.094,0.246-0.224,0.465-0.394,0.654c-0.17,0.19-0.375,0.34-0.606,0.447c-0.235,0.111-0.496,0.165-0.782,0.168
		c-0.303-0.003-0.558-0.021-0.768-0.055C46.288,104.109,46.11,104.072,45.959,104.027L45.959,104.027z M43.273,99.215
		c0.003,0.147,0.04,0.283,0.11,0.402c0.074,0.122,0.173,0.216,0.301,0.286c0.127,0.071,0.274,0.107,0.439,0.11v9.555
		c0.006,0.24,0.085,0.433,0.244,0.577c0.156,0.145,0.366,0.219,0.624,0.222h0.85c0.162-0.003,0.318-0.043,0.462-0.122
		c0.147-0.079,0.269-0.188,0.363-0.323c0.094-0.139,0.142-0.297,0.145-0.473c0-0.15-0.04-0.283-0.11-0.405
		c-0.074-0.119-0.173-0.216-0.301-0.286c-0.127-0.071-0.274-0.104-0.439-0.107v-2.84c0.185,0.028,0.357,0.049,0.521,0.065
		c0.164,0.015,0.306,0.022,0.425,0.028c0.122,0.006,0.207,0.009,0.261,0.009c0.527-0.003,1.023-0.1,1.485-0.292
		c0.464-0.192,0.873-0.462,1.229-0.811c0.354-0.349,0.635-0.759,0.836-1.229c0.201-0.47,0.306-0.986,0.309-1.544
		c-0.002-0.564-0.107-1.074-0.312-1.53c-0.201-0.459-0.479-0.853-0.833-1.182c-0.354-0.328-0.759-0.583-1.215-0.759
		c-0.457-0.179-0.938-0.267-1.448-0.27h-2.975c-0.162,0-0.315,0.043-0.462,0.122c-0.147,0.076-0.266,0.187-0.363,0.323
		C43.324,98.881,43.276,99.037,43.273,99.215z"/>
	<path d="M52.811,99.215c0.002,0.147,0.04,0.283,0.116,0.402c0.073,0.122,0.178,0.216,0.306,0.286c0.13,0.071,0.28,0.107,0.444,0.11
		h0.153v9.707c0.003,0.153,0.042,0.292,0.119,0.417c0.076,0.121,0.181,0.218,0.312,0.289c0.13,0.07,0.275,0.107,0.436,0.11
		c0.19-0.003,0.354-0.046,0.502-0.128c0.144-0.085,0.257-0.195,0.34-0.334c0.085-0.139,0.125-0.289,0.127-0.456v-0.544l4.624-6.239
		v6.732c0.005,0.24,0.085,0.433,0.244,0.577c0.156,0.145,0.365,0.219,0.624,0.222h0.85c0.162-0.003,0.317-0.043,0.462-0.122
		c0.147-0.079,0.269-0.188,0.363-0.323c0.093-0.139,0.142-0.297,0.145-0.473c0-0.15-0.037-0.283-0.111-0.405
		c-0.074-0.119-0.173-0.216-0.3-0.286c-0.127-0.071-0.272-0.104-0.439-0.107v-9.707c-0.003-0.156-0.042-0.295-0.119-0.417
		s-0.181-0.218-0.312-0.289c-0.13-0.073-0.275-0.11-0.436-0.11c-0.188,0.003-0.354,0.045-0.502,0.128
		c-0.144,0.085-0.258,0.195-0.34,0.334c-0.082,0.136-0.125,0.289-0.127,0.456v0.867l-4.624,6.239v-7.056
		c-0.006-0.24-0.085-0.434-0.244-0.578c-0.156-0.144-0.363-0.218-0.624-0.221h-1.02c-0.161,0-0.314,0.043-0.461,0.122
		c-0.147,0.076-0.267,0.187-0.363,0.323C52.861,98.881,52.813,99.037,52.811,99.215z"/>
	<path d="M64.49,99.215c0.002,0.15,0.04,0.283,0.11,0.402c0.074,0.122,0.173,0.216,0.3,0.289c0.127,0.071,0.274,0.104,0.439,0.107
		v2.058c0.006,0.739,0.13,1.368,0.377,1.89c0.25,0.521,0.595,0.921,1.037,1.195c0.442,0.275,0.958,0.414,1.544,0.417
		c0.286-0.003,0.575-0.021,0.87-0.057c0.298-0.034,0.583-0.082,0.861-0.14c0.277-0.056,0.532-0.116,0.768-0.178v4.369
		c0.006,0.24,0.085,0.433,0.243,0.577c0.156,0.145,0.366,0.219,0.624,0.222h0.85c0.161-0.003,0.317-0.043,0.462-0.122
		c0.147-0.079,0.27-0.188,0.363-0.323c0.094-0.139,0.141-0.297,0.145-0.473c0-0.15-0.037-0.283-0.111-0.405
		c-0.073-0.119-0.172-0.216-0.301-0.286c-0.127-0.071-0.271-0.104-0.438-0.107v-9.707c-0.003-0.156-0.042-0.295-0.119-0.417
		c-0.076-0.122-0.181-0.218-0.312-0.289c-0.131-0.073-0.275-0.11-0.436-0.11c-0.188,0.003-0.355,0.045-0.502,0.128
		c-0.145,0.085-0.258,0.195-0.34,0.334c-0.082,0.136-0.125,0.289-0.128,0.456v4.471c-0.145,0.057-0.323,0.113-0.536,0.165
		c-0.209,0.051-0.467,0.093-0.77,0.124c-0.304,0.034-0.669,0.051-1.091,0.051c-0.246-0.002-0.448-0.062-0.606-0.175
		c-0.162-0.113-0.286-0.264-0.376-0.451c-0.088-0.184-0.153-0.388-0.187-0.605c-0.037-0.222-0.054-0.439-0.054-0.655v-2.873
		c-0.005-0.24-0.085-0.434-0.243-0.578c-0.156-0.144-0.366-0.218-0.624-0.221h-0.85c-0.162,0-0.317,0.043-0.462,0.122
		c-0.147,0.076-0.266,0.187-0.363,0.323C64.541,98.881,64.492,99.037,64.49,99.215z"/>
	<path d="M75.709,99.215c0.003,0.15,0.039,0.283,0.11,0.402c0.073,0.122,0.173,0.216,0.301,0.289
		c0.128,0.071,0.274,0.104,0.438,0.107v9.707c0.004,0.153,0.043,0.292,0.119,0.417c0.077,0.121,0.182,0.218,0.313,0.289
		c0.13,0.07,0.274,0.107,0.436,0.11c0.189-0.003,0.354-0.046,0.502-0.128c0.145-0.085,0.258-0.195,0.34-0.334
		c0.085-0.139,0.125-0.289,0.127-0.456v-4.862h4.625v4.812c0.005,0.24,0.084,0.433,0.243,0.577c0.155,0.145,0.365,0.219,0.624,0.222
		h0.85c0.161-0.003,0.316-0.043,0.461-0.122c0.148-0.079,0.27-0.188,0.363-0.323c0.094-0.139,0.142-0.297,0.145-0.473
		c0-0.15-0.037-0.283-0.11-0.405c-0.073-0.119-0.173-0.216-0.3-0.286c-0.129-0.071-0.273-0.104-0.439-0.107v-9.707
		c-0.004-0.156-0.043-0.295-0.119-0.417s-0.182-0.218-0.313-0.289c-0.13-0.073-0.274-0.11-0.436-0.11
		c-0.188,0.003-0.354,0.045-0.502,0.128c-0.145,0.085-0.258,0.195-0.34,0.334c-0.082,0.136-0.125,0.289-0.127,0.456v3.995h-4.625
		v-3.944c-0.005-0.24-0.084-0.434-0.243-0.578c-0.155-0.144-0.362-0.218-0.624-0.221h-0.85c-0.161,0-0.316,0.043-0.461,0.122
		c-0.148,0.076-0.268,0.187-0.363,0.323C75.76,98.881,75.712,99.037,75.709,99.215z"/>
	<path d="M96.416,109.569c0.003,0.149,0.04,0.283,0.116,0.401c0.074,0.122,0.179,0.216,0.307,0.289
		c0.13,0.071,0.279,0.105,0.444,0.108h1.7c0.161-0.003,0.316-0.043,0.461-0.122c0.148-0.079,0.27-0.188,0.363-0.323
		c0.094-0.139,0.142-0.295,0.145-0.473c0-0.15-0.037-0.283-0.111-0.402c-0.073-0.122-0.172-0.216-0.3-0.289
		c-0.127-0.071-0.272-0.104-0.438-0.107v-8.637c0.15-0.02,0.289-0.07,0.416-0.155s0.232-0.193,0.312-0.323
		c0.079-0.133,0.119-0.28,0.122-0.439c0-0.149-0.039-0.283-0.116-0.405c-0.073-0.119-0.176-0.215-0.306-0.286
		c-0.131-0.07-0.277-0.104-0.445-0.107h-1.699c-0.162,0-0.315,0.043-0.463,0.122c-0.146,0.076-0.266,0.187-0.362,0.323
		c-0.094,0.139-0.142,0.294-0.145,0.473c0.003,0.147,0.04,0.283,0.11,0.402c0.074,0.122,0.173,0.216,0.301,0.286
		c0.127,0.071,0.274,0.107,0.439,0.11v8.637c-0.15,0.02-0.289,0.07-0.417,0.155s-0.232,0.192-0.312,0.323
		C96.458,109.262,96.418,109.407,96.416,109.569L96.416,109.569L96.416,109.569z M90.635,108.651v-3.673h1.174
		c0.291,0,0.572,0.034,0.844,0.105c0.27,0.07,0.513,0.181,0.729,0.328c0.215,0.147,0.385,0.337,0.513,0.569
		c0.124,0.233,0.189,0.511,0.192,0.834c-0.003,0.297-0.07,0.561-0.203,0.787c-0.134,0.229-0.313,0.422-0.533,0.578
		c-0.221,0.153-0.465,0.271-0.734,0.352c-0.266,0.079-0.535,0.119-0.807,0.119H90.635L90.635,108.651z M87.95,99.215
		c0.002,0.147,0.039,0.283,0.11,0.402c0.073,0.122,0.173,0.216,0.3,0.286c0.128,0.071,0.275,0.107,0.439,0.11v9.555
		c0.006,0.24,0.086,0.433,0.244,0.577c0.155,0.145,0.365,0.219,0.623,0.222h2.04c0.429,0,0.847-0.057,1.255-0.167
		c0.408-0.114,0.791-0.272,1.147-0.482c0.357-0.212,0.669-0.467,0.94-0.765c0.272-0.298,0.485-0.638,0.639-1.012
		c0.152-0.377,0.231-0.787,0.234-1.229c-0.003-0.465-0.079-0.884-0.227-1.252c-0.147-0.372-0.352-0.694-0.611-0.97
		c-0.262-0.274-0.562-0.504-0.902-0.686c-0.34-0.181-0.705-0.317-1.09-0.408c-0.389-0.09-0.782-0.136-1.182-0.136h-1.275v-4.165
		c-0.006-0.24-0.085-0.434-0.244-0.578c-0.154-0.144-0.361-0.218-0.623-0.221h-0.85c-0.162,0-0.317,0.043-0.461,0.122
		c-0.148,0.076-0.268,0.187-0.363,0.323C88,98.881,87.952,99.037,87.95,99.215z"/>
	<path d="M104.966,95.663c0,0.104,0.017,0.207,0.057,0.309c0.037,0.102,0.097,0.189,0.182,0.27c0.263,0.249,0.55,0.456,0.86,0.623
		c0.315,0.164,0.645,0.289,0.986,0.374c0.344,0.082,0.689,0.125,1.043,0.125c0.414-0.003,0.799-0.055,1.159-0.156
		c0.356-0.102,0.683-0.238,0.975-0.408c0.294-0.173,0.553-0.362,0.773-0.575c0.093-0.093,0.164-0.195,0.216-0.303
		c0.048-0.104,0.073-0.216,0.073-0.326c-0.003-0.161-0.046-0.3-0.13-0.422c-0.086-0.125-0.196-0.219-0.329-0.289
		c-0.134-0.068-0.274-0.104-0.425-0.104c-0.156,0.002-0.292,0.03-0.405,0.09c-0.114,0.057-0.224,0.128-0.326,0.216
		c-0.102,0.085-0.216,0.17-0.34,0.255s-0.274,0.159-0.456,0.216c-0.179,0.057-0.4,0.087-0.666,0.09
		c-0.34-0.005-0.617-0.051-0.833-0.139c-0.218-0.088-0.399-0.187-0.547-0.303c-0.15-0.116-0.292-0.216-0.428-0.304
		s-0.292-0.133-0.47-0.139c-0.19,0.003-0.355,0.046-0.502,0.128c-0.145,0.082-0.258,0.192-0.34,0.328
		C105.008,95.354,104.969,95.5,104.966,95.663L104.966,95.663z M102.995,99.215c0.002,0.147,0.039,0.283,0.115,0.402
		c0.074,0.122,0.18,0.216,0.307,0.286c0.131,0.071,0.281,0.107,0.445,0.11h0.152v9.707c0.003,0.153,0.043,0.292,0.119,0.417
		c0.076,0.121,0.182,0.218,0.313,0.289c0.13,0.07,0.274,0.107,0.436,0.11c0.189-0.003,0.354-0.046,0.502-0.128
		c0.145-0.085,0.258-0.195,0.34-0.334c0.085-0.139,0.125-0.289,0.127-0.456v-0.544l4.625-6.239v6.732
		c0.005,0.24,0.084,0.433,0.243,0.577c0.155,0.145,0.365,0.219,0.623,0.222h0.851c0.161-0.003,0.316-0.043,0.461-0.122
		c0.147-0.079,0.27-0.188,0.363-0.323c0.094-0.139,0.142-0.297,0.145-0.473c0-0.15-0.037-0.283-0.111-0.405
		c-0.073-0.119-0.172-0.216-0.3-0.286c-0.128-0.071-0.272-0.104-0.438-0.107v-9.707c-0.004-0.156-0.043-0.295-0.119-0.417
		c-0.077-0.122-0.182-0.218-0.313-0.289c-0.13-0.073-0.274-0.11-0.436-0.11c-0.188,0.003-0.354,0.045-0.502,0.128
		c-0.145,0.085-0.258,0.195-0.34,0.334c-0.082,0.136-0.125,0.289-0.127,0.456v0.867l-4.625,6.239v-7.056
		c-0.006-0.24-0.084-0.434-0.243-0.578c-0.156-0.144-0.362-0.218-0.624-0.221h-1.02c-0.162,0-0.314,0.043-0.461,0.122
		c-0.148,0.076-0.268,0.187-0.363,0.323C103.045,98.881,102.997,99.037,102.995,99.215z"/>
	<path d="M123.157,104.027v-4.013h1.156c0.277,0,0.541,0.052,0.79,0.147c0.249,0.1,0.468,0.238,0.66,0.425
		c0.192,0.185,0.346,0.408,0.456,0.669c0.111,0.261,0.164,0.556,0.168,0.884c0,0.278-0.049,0.541-0.14,0.788
		c-0.093,0.246-0.224,0.465-0.394,0.654c-0.17,0.19-0.374,0.34-0.606,0.447c-0.235,0.111-0.496,0.165-0.782,0.168
		c-0.303-0.003-0.558-0.021-0.768-0.055C123.485,104.109,123.307,104.072,123.157,104.027L123.157,104.027z M120.471,99.215
		c0.002,0.147,0.039,0.283,0.109,0.402c0.074,0.122,0.174,0.216,0.301,0.286c0.127,0.071,0.275,0.107,0.439,0.11v9.555
		c0.006,0.24,0.085,0.433,0.244,0.577c0.155,0.145,0.365,0.219,0.623,0.222h0.85c0.162-0.003,0.317-0.043,0.462-0.122
		c0.147-0.079,0.269-0.188,0.362-0.323c0.094-0.139,0.143-0.297,0.145-0.473c0-0.15-0.039-0.283-0.11-0.405
		c-0.073-0.119-0.173-0.216-0.3-0.286c-0.128-0.071-0.275-0.104-0.439-0.107v-2.84c0.184,0.028,0.356,0.049,0.521,0.065
		c0.164,0.015,0.306,0.022,0.425,0.028c0.122,0.006,0.206,0.009,0.261,0.009c0.527-0.003,1.022-0.1,1.484-0.292
		c0.465-0.192,0.873-0.462,1.23-0.811c0.354-0.349,0.635-0.759,0.835-1.229c0.201-0.47,0.306-0.986,0.31-1.544
		c-0.004-0.564-0.108-1.074-0.313-1.53c-0.201-0.459-0.479-0.853-0.832-1.182c-0.355-0.328-0.76-0.583-1.217-0.759
		c-0.455-0.179-0.938-0.267-1.447-0.27h-2.975c-0.162,0-0.314,0.043-0.462,0.122c-0.147,0.076-0.267,0.187-0.362,0.323
		C120.522,98.881,120.473,99.037,120.471,99.215z"/>
</g>
<g id="icons">
	<path fill-rule="evenodd" clip-rule="evenodd" fill="#BB3B3B" d="M60.651,19.881c6.192,2.232,12.384,4.463,18.576,6.696
		c0,0.545,0,1.091,0,1.637c-6.224-1.486-12.448-2.972-18.671-4.458c-1.957-0.74-3.914-1.48-5.871-2.22c0-0.819,0-1.637,0-2.456
		C56.673,19.348,58.663,19.615,60.651,19.881L60.651,19.881z M60.638,27.896c-1.984-0.123-3.969-0.246-5.953-0.369
		c0,0.818,0,1.637,0,2.455c1.961,0.596,3.923,1.192,5.885,1.789c6.219,0.999,12.439,1.996,18.658,2.995c0-0.546,0-1.092,0-1.638
		C73.031,31.384,66.834,29.64,60.638,27.896L60.638,27.896z M60.624,35.911c6.201,1.256,12.402,2.512,18.603,3.769
		c0,0.546,0,1.092,0,1.638c-6.215-0.511-12.43-1.021-18.644-1.531c-1.966-0.452-3.932-0.904-5.898-1.356c0-0.819,0-1.638,0-2.456
		C56.665,35.953,58.645,35.932,60.624,35.911L60.624,35.911z M60.61,43.926c6.206,0.768,12.412,1.536,18.617,2.305
		c0,0.546,0,1.092,0,1.638c-6.211-0.023-12.42-0.045-18.63-0.067c-1.971-0.309-3.941-0.617-5.912-0.926c0-0.818,0-1.637,0-2.456
		C56.66,44.255,58.635,44.09,60.61,43.926L60.61,43.926z M60.597,51.94c6.21,0.28,12.419,0.561,18.63,0.841c0,0.546,0,1.092,0,1.638
		c-6.205,0.466-12.411,0.931-18.617,1.396c-1.975-0.165-3.951-0.33-5.926-0.494c0-0.818,0-1.637,0-2.455
		C56.655,52.557,58.626,52.249,60.597,51.94L60.597,51.94z M60.583,59.955c6.214-0.208,12.429-0.415,18.644-0.622
		c0,0.545,0,1.091,0,1.637c-6.201,0.954-12.402,1.906-18.603,2.859c-1.979-0.021-3.959-0.041-5.939-0.062c0-0.819,0-1.638,0-2.456
		C56.651,60.86,58.617,60.407,60.583,59.955L60.583,59.955z M60.569,67.97c6.219-0.695,12.439-1.391,18.658-2.087
		c0,0.546,0,1.092,0,1.638c-6.196,1.441-12.393,2.883-18.589,4.324c-1.984,0.122-3.969,0.245-5.953,0.368c0-0.818,0-1.637,0-2.455
		C56.646,69.162,58.608,68.566,60.569,67.97L60.569,67.97z M60.556,75.985c6.224-1.184,12.448-2.366,18.671-3.55
		c0,0.546,0,1.092,0,1.638c-6.191,1.929-12.384,3.858-18.576,5.787c-1.989,0.267-3.978,0.533-5.967,0.8c0-0.818,0-1.637,0-2.455
		C56.642,77.464,58.599,76.724,60.556,75.985L60.556,75.985z M60.542,84l-5.857,2.651v2.455l5.981-1.231l18.562-7.251v-1.638
		L60.542,84L60.542,84z M60.665,11.866l-5.981-1.231v2.456l5.857,2.651l18.686,5.922v-1.638L60.665,11.866z"/>
	<path fill-rule="evenodd" clip-rule="evenodd" fill="#A1A2A3" d="M48.567,19.881c-5.096,2.232-10.191,4.463-15.287,6.696
		c0,0.545,0,1.091,0,1.637c5.122-1.486,10.244-2.972,15.366-4.458c1.611-0.74,3.221-1.48,4.832-2.22c0-0.819,0-1.637,0-2.456
		C51.841,19.348,50.204,19.615,48.567,19.881L48.567,19.881z M48.578,27.896c1.633-0.123,3.266-0.246,4.899-0.369
		c0,0.818,0,1.637,0,2.456c-1.615,0.596-3.229,1.192-4.843,1.788c-5.119,0.998-10.237,1.996-15.355,2.995c0-0.546,0-1.092,0-1.638
		C38.379,31.384,43.479,29.641,48.578,27.896L48.578,27.896z M48.589,35.911c-5.103,1.256-10.207,2.512-15.31,3.769
		c0,0.546,0,1.092,0,1.638c5.115-0.511,10.229-1.021,15.343-1.531c1.618-0.452,3.236-0.905,4.854-1.357c0-0.818,0-1.637,0-2.455
		C51.848,35.953,50.219,35.932,48.589,35.911L48.589,35.911z M48.601,43.926c-5.107,0.768-10.214,1.536-15.321,2.305
		c0,0.546,0,1.092,0,1.638c5.111-0.023,10.222-0.045,15.332-0.067c1.622-0.309,3.244-0.617,4.866-0.926c0-0.818,0-1.637,0-2.455
		C51.852,44.255,50.226,44.09,48.601,43.926L48.601,43.926z M48.612,51.94c-5.11,0.28-10.221,0.561-15.332,0.841
		c0,0.546,0,1.092,0,1.638c5.107,0.466,10.214,0.931,15.321,1.396c1.625-0.165,3.251-0.33,4.877-0.494c0-0.818,0-1.637,0-2.456
		C51.855,52.557,50.233,52.249,48.612,51.94L48.612,51.94z M48.623,59.955c-5.114-0.208-10.229-0.415-15.343-0.622
		c0,0.545,0,1.091,0,1.637c5.103,0.954,10.207,1.906,15.31,2.859c1.629-0.021,3.259-0.041,4.888-0.063c0-0.818,0-1.636,0-2.455
		C51.859,60.859,50.241,60.407,48.623,59.955L48.623,59.955z M48.635,67.97c-5.119-0.695-10.237-1.391-15.355-2.086
		c0,0.545,0,1.091,0,1.637c5.099,1.441,10.199,2.882,15.298,4.324c1.633,0.122,3.266,0.245,4.899,0.368c0-0.818,0-1.637,0-2.455
		C51.863,69.162,50.249,68.566,48.635,67.97L48.635,67.97z M48.646,75.985c-5.122-1.183-10.244-2.366-15.366-3.55
		c0,0.546,0,1.092,0,1.638c5.096,1.929,10.191,3.857,15.287,5.787c1.637,0.267,3.274,0.533,4.911,0.8c0-0.818,0-1.637,0-2.455
		C51.867,77.464,50.256,76.724,48.646,75.985L48.646,75.985z M48.657,84l4.82,2.651v2.455l-4.922-1.231L33.28,80.624v-1.638
		L48.657,84L48.657,84z M48.556,11.866l4.922-1.231v2.456l-4.82,2.651L33.28,21.663v-1.637L48.556,11.866z"/>
	<path fill="#BB3B3B" d="M83.319,31.996l15.088,4.622v2.21l-15.088-4.623V31.996L83.319,31.996z M83.319,37.465v2.171l15.088,3.302
		v-2.172L83.319,37.465L83.319,37.465z M83.319,42.928l15.088,1.981v2.147l-15.088-1.981V42.928L83.319,42.928z M83.319,50.519
		v-2.13l15.088,0.66v2.131L83.319,50.519L83.319,50.519z M83.319,55.969v-2.13l15.088-0.66v2.131L83.319,55.969L83.319,55.969z
		 M83.319,61.429v-2.147l15.088-1.981v2.147L83.319,61.429L83.319,61.429z M83.319,66.892l15.088-3.301v-2.173L83.319,64.72V66.892
		L83.319,66.892z M83.319,72.362v-2.209l15.088-4.622v2.209L83.319,72.362L83.319,72.362z M83.319,77.837l15.088-5.944v-2.256
		l-15.088,5.944V77.837L83.319,77.837z M83.319,26.521v2.255l15.088,5.944v-2.256L83.319,26.521z"/>
</g>
</svg>
