<svg xmlns="http://www.w3.org/2000/svg" viewBox="0 0 14.54 18.99">
  <defs>
    <style>
      .a {
        fill: #e64f1e;
      }

      .b {
        fill: #f4a615;
      }

      .c {
        fill: #f4cf6f;
      }
    </style>
  </defs>
  <g>
    <g>
      <path class="a" d="M7205.88,7198.88a0,0,0,0,0-.06,0h0s-.07,0-.06.06a1.4,1.4,0,0,1-.51,1.28,1.34,1.34,0,0,1-.76.33,5.89,5.89,0,0,0,.37-2.65,4,4,0,0,0-.35-1.55,6.94,6.94,0,0,0-.93-1.48s-.09,0-.09,0a3.35,3.35,0,0,1-.33,1.73c-.13.23-.29.53-.57.62a3.86,3.86,0,0,0,.27-1,8.22,8.22,0,0,0,.07-1.31,9.75,9.75,0,0,0-.35-2.79,7.5,7.5,0,0,0-1.17-2.35c-.24-.32-.5-.62-.76-.92a2.67,2.67,0,0,0-.86-.74c-.06,0-.11,0-.05.08h0a0,0,0,0,0,0,0,4.33,4.33,0,0,1,.4,1.53,7.51,7.51,0,0,1,.06,1.57,5.05,5.05,0,0,1-.38,1.53,3.78,3.78,0,0,1-.36.69,1,1,0,0,1-.35.34l-.14.08a3.31,3.31,0,0,0-.37-1.44,2,2,0,0,0-.44-.56,2.44,2.44,0,0,0-.69-.33c-.05,0-.07,0-.05.07v0a2,2,0,0,1-.24,1.84c-.27.57-.56,1.13-.85,1.69a5.86,5.86,0,0,0-.65,1.58,2.24,2.24,0,0,0,.17,1.35,1,1,0,0,1-.33-.22,1.82,1.82,0,0,1-.43-.56,3,3,0,0,1-.24-.71,1,1,0,0,1,0-.16v-.15a1.18,1.18,0,0,1,0-.46c0-.05-.06-.1-.08,0h0v0h0a2.43,2.43,0,0,0-.61,1.05,5.28,5.28,0,0,0-.2,1.48,5.34,5.34,0,0,0,.72,2.64,2.06,2.06,0,0,1-.89-1,3.17,3.17,0,0,1-.33-1.54s0-.05-.07,0h0a0,0,0,0,0-.06,0s-1.36,3.25.29,5.54c1.09,1.52,3.24,2.29,6.37,2.29s5.22-.74,6.17-2.2C7207.55,7202,7205.9,7198.91,7205.88,7198.88Z" transform="translate(-7192.17 -7188.09)"/>
      <path class="b" d="M7204.67,7202.64s-.05,0-.08,0a2.58,2.58,0,0,1-2.13,1c.1-.26.24-.51.32-.77s.13-.62.2-.92a11.78,11.78,0,0,0,.23-1.88s-.07-.06-.09,0a1.86,1.86,0,0,1-1.55,1,2.48,2.48,0,0,0,.18-1.29,8,8,0,0,0-.16-1.62,12.6,12.6,0,0,0-.69-1.72,4.65,4.65,0,0,1-.24-1.89s-.06-.06-.09,0a7,7,0,0,1-1.35,1.67,9.37,9.37,0,0,0-1.56,1.65,4.35,4.35,0,0,0-.74,2,7,7,0,0,1-.17,1.12c-.09.32-.69-.35-.77-.48a0,0,0,0,0-.08,0,2.69,2.69,0,0,0-.28,2c.08.37.25.71.33,1.07,0,.18-.18.1-.29.07a1.32,1.32,0,0,1-.38-.13,2.54,2.54,0,0,0-.54-.29,0,0,0,0,0-.06,0,4.06,4.06,0,0,0,3.34,3,.08.08,0,0,1,.07,0c.82,0,1.61.11,2.43.06.26,0,.58-.07.89-.09l.59-.11a3.45,3.45,0,0,0,1.86-.68,3,3,0,0,0,.76-1.37A1.83,1.83,0,0,0,7204.67,7202.64Z" transform="translate(-7192.17 -7188.09)"/>
      <path class="c" d="M7203.16,7204.83a4.31,4.31,0,0,1-1.18.27,5.63,5.63,0,0,1-.58,0s-.19,0-.19,0a1.11,1.11,0,0,1,.08-.3,4.74,4.74,0,0,0,.25-2.18,0,0,0,0,0-.08,0,1.77,1.77,0,0,1-.58.34,5.93,5.93,0,0,0-.13-1,9.19,9.19,0,0,0-.43-1.21,6.84,6.84,0,0,1-.65-2.28,0,0,0,0,0-.08,0c-.32.35-.54.77-.88,1.12a3,3,0,0,0-.62,1,7,7,0,0,0-.31,1.43,3.73,3.73,0,0,0-.05,1.29,4.15,4.15,0,0,0-.66-.59,0,0,0,0,0-.07,0,3.35,3.35,0,0,0,.68,2.24,5,5,0,0,1-1.29-.24l0,0s-.12,0-.09.05l0,0s0,0,0,0h0a5,5,0,0,0,3.61,1.59,3.46,3.46,0,0,0,3.28-1.49A.05.05,0,0,0,7203.16,7204.83Z" transform="translate(-7192.17 -7188.09)"/>
    </g>
    <g>
      <path class="a" d="M7205.28,7199.57a.07.07,0,0,0-.07,0h0s-.07,0-.06,0a1.41,1.41,0,0,1-.5,1.29,1.47,1.47,0,0,1-.77.32,5.7,5.7,0,0,0,.37-2.64,4,4,0,0,0-.34-1.56,7.41,7.41,0,0,0-.94-1.48.05.05,0,0,0-.09,0,3.11,3.11,0,0,1-.33,1.72c-.12.23-.29.54-.57.62a3.35,3.35,0,0,0,.27-1,8.11,8.11,0,0,0,.08-1.3,10.08,10.08,0,0,0-.36-2.79,7.14,7.14,0,0,0-1.17-2.36c-.24-.31-.5-.62-.75-.92a2.78,2.78,0,0,0-.87-.73c-.06,0-.11.05-.05.07h0v0a4.29,4.29,0,0,1,.41,1.53,8.22,8.22,0,0,1,.06,1.57,5.45,5.45,0,0,1-.38,1.53,4.58,4.58,0,0,1-.37.69,1,1,0,0,1-.34.34.71.71,0,0,0-.15.08,3.35,3.35,0,0,0-.37-1.45,1.78,1.78,0,0,0-.44-.55,2.1,2.1,0,0,0-.69-.33s-.07,0,0,.07a0,0,0,0,0,0,0,2,2,0,0,1-.25,1.84c-.27.56-.56,1.13-.85,1.68a5.79,5.79,0,0,0-.65,1.59,2.26,2.26,0,0,0,.18,1.35,1.26,1.26,0,0,1-.34-.23,1.91,1.91,0,0,1-.43-.55,2.63,2.63,0,0,1-.23-.72.9.9,0,0,1,0-.16v-.14a1.41,1.41,0,0,1,0-.46c0-.05-.06-.1-.08-.05h0l0,0h0a2.59,2.59,0,0,0-.61,1.05,5,5,0,0,0-.19,1.49,5.2,5.2,0,0,0,.72,2.63,2,2,0,0,1-.89-1,3.21,3.21,0,0,1-.34-1.54s0-.06-.07,0h0s-.05,0-.06,0-1.36,3.25.29,5.53c1.09,1.52,3.24,2.29,6.37,2.29s5.22-.74,6.17-2.19C7206.94,7202.65,7205.29,7199.6,7205.28,7199.57Z" transform="translate(-7192.17 -7188.09)"/>
      <path class="b" d="M7204.07,7203.32a.06.06,0,0,0-.08,0,2.61,2.61,0,0,1-2.14,1c.1-.27.24-.51.33-.78s.12-.61.19-.91a11.94,11.94,0,0,0,.24-1.88s-.07-.07-.09,0a1.9,1.9,0,0,1-1.55,1,2.61,2.61,0,0,0,.17-1.3,8,8,0,0,0-.16-1.61,13.36,13.36,0,0,0-.68-1.72,4.35,4.35,0,0,1-.24-1.89,0,0,0,0,0-.09,0,6.74,6.74,0,0,1-1.36,1.66,9.29,9.29,0,0,0-1.55,1.65,4.44,4.44,0,0,0-.75,2,7.22,7.22,0,0,1-.17,1.12c-.08.31-.69-.36-.77-.48s-.06,0-.08,0a2.69,2.69,0,0,0-.28,2c.08.36.25.7.33,1.06.05.18-.17.1-.28.08a1.24,1.24,0,0,1-.38-.14,5.61,5.61,0,0,0-.54-.29s-.07,0-.06.05a3.64,3.64,0,0,0,1.85,2.51,3.68,3.68,0,0,0,1.49.52h.07c.81,0,1.61.11,2.42.07.26,0,.59-.08.89-.09l.59-.12a3.37,3.37,0,0,0,1.86-.68,2.93,2.93,0,0,0,.76-1.36A1.85,1.85,0,0,0,7204.07,7203.32Z" transform="translate(-7192.17 -7188.09)"/>
      <path class="c" d="M7202.56,7205.52a4.38,4.38,0,0,1-1.19.27,5.52,5.52,0,0,1-.58,0s-.19,0-.19,0a1.38,1.38,0,0,1,.08-.29,4.91,4.91,0,0,0,.26-2.18.05.05,0,0,0-.09,0,2.33,2.33,0,0,1-.57.34,8.62,8.62,0,0,0-.13-1,8.3,8.3,0,0,0-.44-1.21,7.08,7.08,0,0,1-.65-2.28s-.05-.07-.08,0c-.32.36-.54.78-.87,1.13a2.66,2.66,0,0,0-.62,1,7,7,0,0,0-.32,1.42.65.65,0,1,1-.71.71,0,0,0,0,0-.07,0,3.35,3.35,0,0,0,.68,2.24,5.07,5.07,0,0,1-1.29-.24l0,0c0-.05-.12,0-.09,0l0,0a.05.05,0,0,0,0,0h0a5.07,5.07,0,0,0,3.62,1.59,3.45,3.45,0,0,0,3.27-1.5S7202.6,7205.5,7202.56,7205.52Z" transform="translate(-7192.17 -7188.09)"/>
    </g>
  </g>
</svg>
