<svg width="0" height="0" class="hidden">
  <symbol xmlns="http://www.w3.org/2000/svg" viewBox="0 0 97.75 97.75" id="facebook-logo">
    <path d="M48.875 0C21.882 0 0 21.882 0 48.875S21.882 97.75 48.875 97.75 97.75 75.868 97.75 48.875 75.868 0 48.875 0zm18.646 24.89l-6.76.003c-5.301 0-6.326 2.519-6.326 6.215v8.15h12.641l-.006 12.765H54.436v32.758H41.251V52.023H30.229V39.258h11.022v-9.414c0-10.925 6.675-16.875 16.42-16.875l9.851.015V24.89h-.001z"></path>
  </symbol>
  <symbol xmlns="http://www.w3.org/2000/svg" viewBox="0 0 512 512" id="ok">
    <path d="M490.24 113.92c-13.888-24.704-28.96-29.248-59.648-30.976C399.936 80.864 322.848 80 256.064 80c-66.912 0-144.032.864-174.656 2.912-30.624 1.76-45.728 6.272-59.744 31.008C7.36 138.592 0 181.088 0 255.904v.256c0 74.496 7.36 117.312 21.664 141.728 14.016 24.704 29.088 29.184 59.712 31.264C112.032 430.944 189.152 432 256.064 432c66.784 0 143.872-1.056 174.56-2.816 30.688-2.08 45.76-6.56 59.648-31.264C504.704 373.504 512 330.688 512 256.192v-.256c0-74.848-7.296-117.344-21.76-142.016zM192 352V160l160 96-160 96z"></path>
  </symbol>
  <symbol fill="none" xmlns="http://www.w3.org/2000/svg" viewBox="0 0 48 48" id="twitter">
    <path fill-rule="evenodd" clip-rule="evenodd" d="M23.735 0C13.843 0 6.988.034 3.47 3.47.034 6.988.001 14.164.001 23.735c10.627-.32 15.487-.587 19.363-4.372 3.784-3.876 4.05-8.735 4.371-19.363zM3.47 44.53C.033 41.014 0 33.837 0 24.266c10.627.321 15.487.587 19.363 4.372 3.785 3.876 4.051 8.736 4.372 19.362-9.893 0-16.748-.032-20.266-3.468zM24.265 48c.321-10.627.587-15.487 4.372-19.363 3.876-3.785 8.736-4.051 19.363-4.372-.001 9.571-.034 16.748-3.47 20.266-3.518 3.437-10.372 3.468-20.265 3.468zm0-48c.321 10.628.587 15.487 4.372 19.363 3.876 3.785 8.736 4.051 19.363 4.372-.001-9.57-.034-16.747-3.47-20.265C41.012.034 34.158 0 24.265 0z" fill="#2C3036"></path>
    <path fill-rule="evenodd" clip-rule="evenodd" d="M28.637 28.637c-3.785 3.876-4.051 8.736-4.372 19.362 9.893 0 16.747-.032 20.265-3.468C47.966 41.013 48 33.836 48 24.265c-10.627.321-15.487.587-19.363 4.372zM0 24.265c0 9.571.033 16.748 3.469 20.266 3.518 3.437 10.373 3.468 20.266 3.468-.32-10.626-.587-15.486-4.372-19.362-3.876-3.785-8.736-4.051-19.363-4.372zM23.735 0C13.843 0 6.988.034 3.47 3.47.034 6.988.001 14.164.001 23.735c10.627-.32 15.487-.587 19.363-4.372 3.784-3.876 4.05-8.735 4.371-19.363zm4.902 19.363C24.852 15.487 24.586 10.628 24.265 0c9.893 0 16.747.034 20.265 3.47C47.966 6.988 48 14.164 48 23.735c-10.627-.32-15.487-.587-19.363-4.372z" fill="url(#paint0_linear)"></path>
    <path fill-rule="evenodd" clip-rule="evenodd" d="M48 24.265v-.529c-10.627-.322-15.487-.587-19.363-4.373-3.785-3.875-4.051-8.734-4.372-19.362h-.53c-.321 10.628-.587 15.487-4.372 19.362C15.487 23.15 10.627 23.414 0 23.736v.529c10.627.322 15.487.587 19.363 4.372 3.785 3.876 4.051 8.736 4.372 19.364h.53c.32-10.628.587-15.488 4.372-19.364 3.876-3.785 8.736-4.05 19.363-4.372z" fill="#fff"></path>
    <defs>
      <linearGradient id="paint0_linear" x1="48" y1="47.999" x2="48" y2="0" gradientUnits="userSpaceOnUse">
        <stop stop-color="#fff" stop-opacity=".01"></stop>
        <stop offset=".475" stop-color="#fff" stop-opacity=".01"></stop>
        <stop offset=".76" stop-color="#fff" stop-opacity=".043"></stop>
        <stop offset=".995" stop-color="#fff" stop-opacity=".099"></stop>
        <stop offset="1" stop-color="#fff" stop-opacity=".1"></stop>
      </linearGradient>
    </defs>
  </symbol>
  <symbol xmlns="http://www.w3.org/2000/svg" viewBox="0 0 512 512" id="instagram">
    <path d="M305 256c0 27.063-21.938 49-49 49s-49-21.938-49-49 21.938-49 49-49 49 21.938 49 49zm0 0"></path>
    <path d="M370.594 169.305a45.546 45.546 0 00-10.996-16.903 45.514 45.514 0 00-16.903-10.996c-5.18-2.011-12.96-4.406-27.293-5.058-15.504-.707-20.152-.86-59.402-.86-39.254 0-43.902.149-59.402.856-14.332.656-22.118 3.05-27.293 5.062a45.483 45.483 0 00-16.903 10.996 45.572 45.572 0 00-11 16.903c-2.011 5.18-4.406 12.965-5.058 27.297-.707 15.5-.86 20.148-.86 59.402 0 39.25.153 43.898.86 59.402.652 14.332 3.047 22.114 5.058 27.293a45.563 45.563 0 0010.996 16.903 45.514 45.514 0 0016.903 10.996c5.18 2.015 12.965 4.41 27.297 5.062 15.5.707 20.144.856 59.398.856 39.258 0 43.906-.149 59.402-.856 14.332-.652 22.118-3.047 27.297-5.062a48.68 48.68 0 0027.899-27.899c2.011-5.18 4.406-12.96 5.062-27.293.707-15.504.856-20.152.856-59.402 0-39.254-.149-43.902-.856-59.402-.652-14.332-3.047-22.118-5.062-27.297zM256 331.485c-41.691 0-75.488-33.794-75.488-75.485s33.797-75.484 75.488-75.484c41.688 0 75.484 33.793 75.484 75.484S297.688 331.484 256 331.484zm78.469-136.313c-9.742 0-17.64-7.899-17.64-17.64s7.898-17.641 17.64-17.641 17.64 7.898 17.64 17.64c-.004 9.742-7.898 17.64-17.64 17.64zm0 0"></path>
    <path d="M256 0C114.637 0 0 114.637 0 256s114.637 256 256 256 256-114.637 256-256S397.363 0 256 0zm146.113 316.605c-.71 15.649-3.199 26.333-6.832 35.684a75.164 75.164 0 01-42.992 42.992c-9.348 3.633-20.035 6.117-35.68 6.832-15.675.715-20.683.887-60.605.887-39.926 0-44.93-.172-60.61-.887-15.644-.715-26.331-3.199-35.68-6.832a72.018 72.018 0 01-26.038-16.957 72.044 72.044 0 01-16.953-26.035c-3.633-9.348-6.121-20.035-6.832-35.68-.723-15.68-.891-20.687-.891-60.609s.168-44.93.887-60.605c.71-15.649 3.195-26.332 6.828-35.684a72.013 72.013 0 0116.96-26.035 72.003 72.003 0 0126.036-16.957c9.352-3.633 20.035-6.117 35.684-6.832C211.07 109.172 216.078 109 256 109s44.93.172 60.605.89c15.649.712 26.332 3.196 35.684 6.825a72.061 72.061 0 0126.04 16.96 72.027 72.027 0 0116.952 26.036c3.637 9.352 6.121 20.035 6.836 35.684.715 15.675.883 20.683.883 60.605s-.168 44.93-.887 60.605zm0 0"></path>
  </symbol>
  <symbol xmlns="http://www.w3.org/2000/svg" viewBox="0 0 24 24" id="telegram">
    <path d="M12 24c6.629 0 12-5.371 12-12S18.629 0 12 0 0 5.371 0 12s5.371 12 12 12zM5.491 11.74l11.57-4.461c.537-.194 1.006.131.832.943l.001-.001-1.97 9.281c-.146.658-.537.818-1.084.508l-3-2.211-1.447 1.394c-.16.16-.295.295-.605.295l.213-3.053 5.56-5.023c.242-.213-.054-.333-.373-.121l-6.871 4.326-2.962-.924c-.643-.204-.657-.643.136-.953z"></path>
  </symbol>
  <symbol xmlns="http://www.w3.org/2000/svg" viewBox="0 0 512 512" id="whatsapp">
    <path xmlns="http://www.w3.org/2000/svg" d="M255.936 0h.128C397.216 0 512 114.816 512 256c0 56-18.048 107.904-48.736 150.048l31.904 95.104-98.4-31.456C356.288 496.512 308 512 255.936 512 114.784 512 0 397.152 0 256S114.784 0 255.936 0z" fill="#4caf50" data-original="#4caf50"></path>
    <path xmlns="http://www.w3.org/2000/svg" d="M106.976 361.504c6.176 17.44 30.688 31.904 50.24 36.128 13.376 2.848 30.848 5.12 89.664-19.264 75.232-31.168 123.68-107.616 127.456-112.576 3.616-4.96 30.4-40.48 30.4-77.216s-18.656-54.624-26.176-62.304c-6.176-6.304-16.384-9.184-26.176-9.184-3.168 0-6.016.16-8.576.288-7.52.32-11.296.768-16.256 12.64-6.176 14.88-21.216 51.616-23.008 55.392-1.824 3.776-3.648 8.896-1.088 13.856 2.4 5.12 4.512 7.392 8.288 11.744 3.776 4.352 7.36 7.68 11.136 12.352 3.456 4.064 7.36 8.416 3.008 15.936-4.352 7.36-19.392 31.904-41.536 51.616-28.576 25.44-51.744 33.568-60.032 37.024-6.176 2.56-13.536 1.952-18.048-2.848-5.728-6.176-12.8-16.416-20-26.496-5.12-7.232-11.584-8.128-18.368-5.568-6.912 2.4-43.488 20.48-51.008 24.224-7.52 3.776-12.48 5.568-14.304 8.736-1.792 3.168-1.792 18.048 4.384 35.52z" fill="#fafafa" data-original="#fafafa"></path>
  </symbol>
  <symbol xmlns="http://www.w3.org/2000/svg" viewBox="0 0 35 35" id="smartphone">
    <path d="M25.302 0H9.698a2.37 2.37 0 00-2.364 2.364v30.271A2.371 2.371 0 009.698 35h15.604a2.37 2.37 0 002.364-2.364V2.364A2.37 2.37 0 0025.302 0zM15.004 1.704h4.992a.286.286 0 010 .573h-4.992a.286.286 0 110-.573zM17.5 33.818a1.182 1.182 0 110-2.364 1.182 1.182 0 010 2.364zm8.521-3.193H8.979V3.749h17.042v26.876z"></path>
  </symbol>
  <symbol xmlns="http://www.w3.org/2000/svg" viewBox="0 0 482.6 482.6" id="telephone">
    <path d="M98.339 320.8c47.6 56.9 104.9 101.7 170.3 133.4 24.9 11.8 58.2 25.8 95.3 28.2 2.3.1 4.5.2 6.8.2 24.9 0 44.9-8.6 61.2-26.3.1-.1.3-.3.4-.5 5.8-7 12.4-13.3 19.3-20 4.7-4.5 9.5-9.2 14.1-14 21.3-22.2 21.3-50.4-.2-71.9l-60.1-60.1c-10.2-10.6-22.4-16.2-35.2-16.2-12.8 0-25.1 5.6-35.6 16.1l-35.8 35.8c-3.3-1.9-6.7-3.6-9.9-5.2-4-2-7.7-3.9-11-6-32.6-20.7-62.2-47.7-90.5-82.4-14.3-18.1-23.9-33.3-30.6-48.8 9.4-8.5 18.2-17.4 26.7-26.1 3-3.1 6.1-6.2 9.2-9.3 10.8-10.8 16.6-23.3 16.6-36s-5.7-25.2-16.6-36l-29.8-29.8c-3.5-3.5-6.8-6.9-10.2-10.4-6.6-6.8-13.5-13.8-20.3-20.1-10.3-10.1-22.4-15.4-35.2-15.4-12.7 0-24.9 5.3-35.6 15.5l-37.4 37.4c-13.6 13.6-21.3 30.1-22.9 49.2-1.9 23.9 2.5 49.3 13.9 80 17.5 47.5 43.9 91.6 83.1 138.7zm-72.6-216.6c1.2-13.3 6.3-24.4 15.9-34l37.2-37.2c5.8-5.6 12.2-8.5 18.4-8.5 6.1 0 12.3 2.9 18 8.7 6.7 6.2 13 12.7 19.8 19.6 3.4 3.5 6.9 7 10.4 10.6l29.8 29.8c6.2 6.2 9.4 12.5 9.4 18.7s-3.2 12.5-9.4 18.7c-3.1 3.1-6.2 6.3-9.3 9.4-9.3 9.4-18 18.3-27.6 26.8l-.5.5c-8.3 8.3-7 16.2-5 22.2.1.3.2.5.3.8 7.7 18.5 18.4 36.1 35.1 57.1 30 37 61.6 65.7 96.4 87.8 4.3 2.8 8.9 5 13.2 7.2 4 2 7.7 3.9 11 6 .4.2.7.4 1.1.6 3.3 1.7 6.5 2.5 9.7 2.5 8 0 13.2-5.1 14.9-6.8l37.4-37.4c5.8-5.8 12.1-8.9 18.3-8.9 7.6 0 13.8 4.7 17.7 8.9l60.3 60.2c12 12 11.9 25-.3 37.7-4.2 4.5-8.6 8.8-13.3 13.3-7 6.8-14.3 13.8-20.9 21.7-11.5 12.4-25.2 18.2-42.9 18.2-1.7 0-3.5-.1-5.2-.2-32.8-2.1-63.3-14.9-86.2-25.8-62.2-30.1-116.8-72.8-162.1-127-37.3-44.9-62.4-86.7-79-131.5-10.3-27.5-14.2-49.6-12.6-69.7z"></path>
  </symbol>
  <symbol xmlns="http://www.w3.org/2000/svg" viewBox="0 0 394.971 394.971" id="list">
    <path d="M56.424 146.286c-28.277 0-51.2 22.923-51.2 51.2s22.923 51.2 51.2 51.2 51.2-22.923 51.2-51.2-22.923-51.2-51.2-51.2zm0 81.502c-16.735 0-30.302-13.567-30.302-30.302s13.567-30.302 30.302-30.302 30.302 13.567 30.302 30.302-13.566 30.302-30.302 30.302zm322.874-40.751H143.151c-5.771 0-10.449 4.678-10.449 10.449s4.678 10.449 10.449 10.449h236.147c5.771 0 10.449-4.678 10.449-10.449s-4.678-10.449-10.449-10.449zM56.424 0c-28.277 0-51.2 22.923-51.2 51.2s22.923 51.2 51.2 51.2 51.2-22.923 51.2-51.2S84.701 0 56.424 0zm0 81.502c-16.735 0-30.302-13.567-30.302-30.302s13.567-30.302 30.302-30.302S86.726 34.465 86.726 51.2 73.16 81.502 56.424 81.502zm86.727-19.853h236.147c5.771 0 10.449-4.678 10.449-10.449s-4.678-10.449-10.449-10.449H143.151c-5.771 0-10.449 4.678-10.449 10.449s4.678 10.449 10.449 10.449zM56.424 292.571c-28.277 0-51.2 22.923-51.2 51.2 0 28.277 22.923 51.2 51.2 51.2s51.2-22.923 51.2-51.2c0-28.277-22.923-51.2-51.2-51.2zm30.302 51.2c0 16.735-13.567 30.302-30.302 30.302s-30.302-13.567-30.302-30.302 13.567-30.302 30.302-30.302 30.302 13.567 30.302 30.302zm292.572-10.449H143.151c-5.771 0-10.449 4.678-10.449 10.449s4.678 10.449 10.449 10.449h236.147c5.771 0 10.449-4.678 10.449-10.449s-4.678-10.449-10.449-10.449z"></path>
  </symbol>
  <symbol xmlns="http://www.w3.org/2000/svg" viewBox="0 0 44.776 44.776" id="list2">
    <path d="M39.776 12.766H5a5 5 0 010-10h34.776a5 5 0 010 10zm0 14.622H5a5 5 0 010-10h34.776a5 5 0 110 10zm0 14.622H5a5 5 0 010-10h34.776a5 5 0 110 10z"></path>
  </symbol>
  <symbol xmlns="http://www.w3.org/2000/svg" viewBox="0 0 422.686 422.686" id="list3">
    <path d="M211.343 422.686C94.804 422.686 0 327.882 0 211.343 0 94.812 94.812 0 211.343 0s211.343 94.812 211.343 211.343c0 116.539-94.804 211.343-211.343 211.343zm0-406.429c-107.574 0-195.086 87.52-195.086 195.086s87.52 195.086 195.086 195.086 195.086-87.52 195.086-195.086S318.908 16.257 211.343 16.257z"></path>
    <path d="M231.9 104.647c.366 11.323-7.934 20.37-21.134 20.37-11.689 0-19.996-9.055-19.996-20.37 0-11.689 8.681-20.744 20.744-20.744 12.461 0 20.386 9.055 20.386 20.744zm-36.969 233.884V155.955h33.189v182.576h-33.189z"></path>
  </symbol>
</svg>