<svg width="0" height="0" class="hidden">
  <symbol xmlns="http://www.w3.org/2000/svg" viewBox="0 0 97.75 97.75" id="vk">
    <path d="M48.875 0C21.883 0 0 21.882 0 48.875S21.883 97.75 48.875 97.75 97.75 75.868 97.75 48.875 75.867 0 48.875 0zm24.792 54.161c2.278 2.225 4.688 4.319 6.733 6.774.906 1.086 1.76 2.209 2.41 3.472.928 1.801.09 3.776-1.522 3.883l-10.013-.002c-2.586.214-4.644-.829-6.379-2.597-1.385-1.409-2.67-2.914-4.004-4.371-.545-.598-1.119-1.161-1.803-1.604-1.365-.888-2.551-.616-3.333.81-.797 1.451-.979 3.059-1.055 4.674-.109 2.361-.821 2.978-3.19 3.089-5.062.237-9.865-.531-14.329-3.083-3.938-2.251-6.986-5.428-9.642-9.025-5.172-7.012-9.133-14.708-12.692-22.625-.801-1.783-.215-2.737 1.752-2.774 3.268-.063 6.536-.055 9.804-.003 1.33.021 2.21.782 2.721 2.037 1.766 4.345 3.931 8.479 6.644 12.313.723 1.021 1.461 2.039 2.512 2.76 1.16.796 2.044.533 2.591-.762.35-.823.501-1.703.577-2.585.26-3.021.291-6.041-.159-9.05-.28-1.883-1.339-3.099-3.216-3.455-.956-.181-.816-.535-.351-1.081.807-.944 1.563-1.528 3.074-1.528l11.313-.002c1.783.35 2.183 1.15 2.425 2.946l.01 12.572c-.021.695.349 2.755 1.597 3.21 1 .33 1.66-.472 2.258-1.105 2.713-2.879 4.646-6.277 6.377-9.794.764-1.551 1.423-3.156 2.063-4.764.476-1.189 1.216-1.774 2.558-1.754l10.894.013c.321 0 .647.003.965.058 1.836.314 2.339 1.104 1.771 2.895-.894 2.814-2.631 5.158-4.329 7.508-1.82 2.516-3.761 4.944-5.563 7.471-1.656 2.31-1.525 3.473.531 5.479z"></path>
  </symbol>
  <symbol xmlns="http://www.w3.org/2000/svg" viewBox="0 0 512 512" id="youtube">
    <path d="M224.113 303.96L307.387 256l-83.274-47.96zm0 0"></path>
    <path d="M256 0C114.637 0 0 114.637 0 256s114.637 256 256 256 256-114.637 256-256S397.363 0 256 0zm159.96 256.262s0 51.918-6.585 76.953c-3.691 13.703-14.496 24.508-28.2 28.195C356.142 368 256 368 256 368s-99.879 0-125.176-6.852c-13.703-3.687-24.508-14.496-28.199-28.199-6.59-24.77-6.59-76.949-6.59-76.949s0-51.914 6.59-76.95c3.688-13.702 14.758-24.773 28.2-28.46C155.858 144 256 144 256 144s100.14 0 125.176 6.852c13.703 3.687 24.508 14.496 28.199 28.199 6.852 25.035 6.586 77.21 6.586 77.21zm0 0"></path>
  </symbol>
  <symbol xmlns="http://www.w3.org/2000/svg" viewBox="0 0 512 512" id="yandex">
    <circle cx="255.999" cy="256" r="246.455"></circle>
    <path d="M334.759 106.018h-25.387c-2.25 0-3.652 1.104-3.979 2.704-.32 1.606-38.072 116.712-40.816 126.301-1.945 6.797-8.287 30.76-9.809 36.514l-13.13-35.845c-3.19-9.866-33.768-95.289-34.662-98.701-.495-1.875-1.356-4.208-4.646-4.208h-24.785c-2.424 0-3.795 2.658-3.013 4.307.624 1.32 45.396 120.428 63.481 165.928v100.045c0 1.824.729 2.92 2.551 2.92h23.473c1.455 0 2.549-1.096 2.549-2.92v-99.256c15.076-42.109 70.15-191.903 70.75-193.58.731-2.05.517-4.209-2.577-4.209z" fill="#FFF"></path>
  </symbol>
</svg>