<svg width="0" height="0" class="hidden">
  <symbol xmlns="http://www.w3.org/2000/svg" viewBox="0 0 97.75 97.75" id="ok">
    <path d="M48.921 40.507a8.367 8.367 0 008.367-8.443c-.017-4.679-3.742-8.402-8.411-8.406a8.398 8.398 0 00-8.432 8.508c.035 4.66 3.794 8.358 8.476 8.341z"></path>
    <path d="M48.875 0C21.882 0 0 21.883 0 48.875S21.882 97.75 48.875 97.75 97.75 75.867 97.75 48.875 75.868 0 48.875 0zm.07 14.863c9.52.026 17.161 7.813 17.112 17.438-.048 9.403-7.814 17.024-17.318 16.992-9.407-.032-17.122-7.831-17.066-17.253.053-9.525 7.772-17.203 17.272-17.177zm19.282 41.194c-2.105 2.161-4.639 3.725-7.453 4.816-2.66 1.031-5.575 1.55-8.461 1.896.437.474.642.707.914.979 3.916 3.937 7.851 7.854 11.754 11.802 1.33 1.346 1.607 3.014.875 4.577-.799 1.71-2.592 2.834-4.351 2.713-1.114-.077-1.983-.63-2.754-1.407-2.956-2.974-5.968-5.895-8.862-8.925-.845-.882-1.249-.714-1.994.052a589.856 589.856 0 01-9.034 9.072c-1.365 1.346-2.989 1.59-4.573.82-1.683-.814-2.753-2.533-2.671-4.262.058-1.166.632-2.06 1.434-2.858 3.877-3.869 7.742-7.75 11.608-11.628.257-.257.495-.53.868-.93-5.273-.551-10.028-1.849-14.099-5.032-.506-.396-1.027-.778-1.487-1.222-1.783-1.711-1.962-3.672-.553-5.69 1.207-1.728 3.231-2.19 5.336-1.197.408.191.796.433 1.168.689 7.586 5.213 18.008 5.356 25.624.233.754-.576 1.561-1.05 2.496-1.289 1.816-.468 3.512.201 4.486 1.791 1.115 1.817 1.102 3.589-.271 5z"></path>
  </symbol>
  <symbol xmlns="http://www.w3.org/2000/svg" viewBox="0 0 34 34" id="twitter">
    <path d="M17 0C7.611 0 0 7.61 0 17c0 9.391 7.611 17 17 17s17-7.609 17-17c0-9.39-7.611-17-17-17zm8.902 13.957c.008.171.012.343.012.517 0 5.286-4.023 11.383-11.383 11.383-2.26 0-4.362-.662-6.133-1.797.314.037.632.055.955.055a8.028 8.028 0 004.968-1.711 4.004 4.004 0 01-3.736-2.777 4.045 4.045 0 001.805-.071 4.006 4.006 0 01-3.208-3.925v-.049c.541.3 1.157.479 1.813.5a3.998 3.998 0 01-1.779-3.331c0-.731.197-1.42.542-2.011a11.35 11.35 0 008.246 4.18 4 4 0 016.816-3.648 8.095 8.095 0 002.541-.969 4.017 4.017 0 01-1.758 2.211 7.974 7.974 0 002.297-.629 8.15 8.15 0 01-1.998 2.072z"></path>
  </symbol>
</svg>