<svg width="0" height="0" class="hidden">
  <symbol xmlns="http://www.w3.org/2000/svg" viewBox="0 0 512 512" id="yandex">
    <circle cx="255.999" cy="256" r="246.455"></circle>
    <path d="M334.759 106.018h-25.387c-2.25 0-3.652 1.104-3.979 2.704-.32 1.606-38.072 116.712-40.816 126.301-1.945 6.797-8.287 30.76-9.809 36.514l-13.13-35.845c-3.19-9.866-33.768-95.289-34.662-98.701-.495-1.875-1.356-4.208-4.646-4.208h-24.785c-2.424 0-3.795 2.658-3.013 4.307.624 1.32 45.396 120.428 63.481 165.928v100.045c0 1.824.729 2.92 2.551 2.92h23.473c1.455 0 2.549-1.096 2.549-2.92v-99.256c15.076-42.109 70.15-191.903 70.75-193.58.731-2.05.517-4.209-2.577-4.209z" fill="#a90303"></path>
  </symbol>
</svg>